Urbanist.glyphspackage
{
glyphname = exclam;
kernLeft = exclam;
kernRight = exclam;
layers = (
{
hints = (
{
horizontal = 1;
origin = (1,11);
target = (1,5);
type = Stem;
},
{
horizontal = 1;
origin = (0,2);
target = down;
type = TopGhost;
},
{
origin = (0,3);
target = (0,0);
type = Stem;
},
{
origin = (1,8);
target = (1,2);
type = Stem;
}
);
layerId = "10BC12B3-5274-42E3-B5BC-F74F362F0DF4";
shapes = (
{
closed = 1;
nodes = (
(335,420,l),
(335,1400,l),
(85,1400,l),
(85,420,l)
);
},
{
closed = 1;
nodes = (
(293,-26,o),
(359,40,o),
(359,126,cs),
(359,208,o),
(293,274,o),
(211,274,cs),
(127,274,o),
(61,208,o),
(61,126,cs),
(61,40,o),
(127,-26,o),
(211,-26,cs)
);
}
);
width = 420;
},
{
hints = (
{
horizontal = 1;
origin = (1,11);
target = (1,5);
type = Stem;
},
{
horizontal = 1;
origin = (0,2);
target = down;
type = TopGhost;
},
{
origin = (0,3);
target = (0,0);
type = Stem;
},
{
origin = (1,8);
target = (1,2);
type = Stem;
}
);
layerId = "9AF1F7D9-E035-453E-B2A8-46DE370997D0";
shapes = (
{
closed = 1;
nodes = (
(211,420,l),
(211,1400,l),
(151,1400,l),
(151,420,l)
);
},
{
closed = 1;
nodes = (
(205,-26,o),
(225,-6,o),
(225,20,cs),
(225,44,o),
(205,64,o),
(181,64,cs),
(155,64,o),
(135,44,o),
(135,20,cs),
(135,-6,o),
(155,-26,o),
(181,-26,cs)
);
}
);
width = 360;
},
{
hints = (
{
horizontal = 1;
origin = (1,11);
target = (1,5);
type = Stem;
},
{
horizontal = 1;
origin = (0,2);
target = down;
type = TopGhost;
},
{
origin = (0,3);
target = (0,0);
type = Stem;
},
{
origin = (1,8);
target = (1,2);
type = Stem;
}
);
layerId = m003;
shapes = (
{
closed = 1;
nodes = (
(129,420,l),
(267,1400,l),
(207,1400,l),
(69,420,l)
);
},
{
closed = 1;
nodes = (
(61,-26,o),
(84,-6,o),
(87,20,cs),
(91,44,o),
(73,64,o),
(49,64,cs),
(23,64,o),
(1,44,o),
(-3,20,cs),
(-6,-6,o),
(11,-26,o),
(37,-26,cs)
);
}
);
width = 360;
},
{
hints = (
{
horizontal = 1;
origin = (1,11);
target = (1,5);
type = Stem;
},
{
horizontal = 1;
origin = (0,2);
target = down;
type = TopGhost;
},
{
origin = (0,3);
target = (0,0);
type = Stem;
},
{
origin = (1,8);
target = (1,2);
type = Stem;
}
);
layerId = m004;
shapes = (
{
closed = 1;
nodes = (
(253,420,l),
(391,1400,l),
(141,1400,l),
(3,420,l)
);
},
{
closed = 1;
nodes = (
(149,-26,o),
(224,40,o),
(236,126,cs),
(248,208,o),
(191,274,o),
(109,274,cs),
(25,274,o),
(-50,208,o),
(-62,126,cs),
(-74,40,o),
(-17,-26,o),
(67,-26,cs)
);
}
);
width = 420;
},
{
hints = (
{
horizontal = 1;
origin = (1,11);
target = (1,5);
type = Stem;
},
{
horizontal = 1;
origin = (0,2);
target = down;
type = TopGhost;
},
{
origin = (0,3);
target = (0,0);
type = Stem;
},
{
origin = (1,8);
target = (1,2);
type = Stem;
}
);
layerId = "79A30733-E9D0-406C-A133-0F4AF5F1D98D";
shapes = (
{
closed = 1;
nodes = (
(179,420,l),
(317,1400,l),
(181,1400,l),
(43,420,l)
);
},
{
closed = 1;
nodes = (
(96,-26,o),
(140,12,o),
(147,62,cs),
(154,110,o),
(120,148,o),
(73,148,cs),
(24,148,o),
(-19,110,o),
(-27,62,cs),
(-33,12,o),
(0,-26,o),
(49,-26,cs)
);
}
);
width = 384;
},
{
hints = (
{
horizontal = 1;
origin = (1,11);
target = (1,5);
type = Stem;
},
{
horizontal = 1;
origin = (0,2);
target = down;
type = TopGhost;
},
{
origin = (0,3);
target = (0,0);
type = Stem;
},
{
origin = (1,8);
target = (1,2);
type = Stem;
}
);
layerId = "6E59A8CF-B173-4F95-974A-A2EBEECFA9BB";
shapes = (
{
closed = 1;
nodes = (
(261,420,l),
(261,1400,l),
(125,1400,l),
(125,420,l)
);
},
{
closed = 1;
nodes = (
(240,-26,o),
(279,12,o),
(279,62,cs),
(279,110,o),
(240,148,o),
(193,148,cs),
(144,148,o),
(105,110,o),
(105,62,cs),
(105,12,o),
(144,-26,o),
(193,-26,cs)
);
}
);
width = 384;
}
);
unicode = 33;
}
{
glyphname = numbersign;
kernLeft = numbersign;
kernRight = numbersign;
layers = (
{
hints = (
{
horizontal = 1;
origin = (0,16);
target = up;
type = BottomGhost;
},
{
horizontal = 1;
origin = (0,14);
target = (0,13);
type = Stem;
},
{
horizontal = 1;
origin = (0,10);
target = (0,9);
type = Stem;
},
{
horizontal = 1;
origin = (0,7);
target = down;
type = TopGhost;
}
);
layerId = "10BC12B3-5274-42E3-B5BC-F74F362F0DF4";
shapes = (
{
closed = 1;
nodes = (
(1476,1140,l),
(1328,1140,l),
(1396,1400,l),
(1096,1400,l),
(1028,1140,l),
(714,1140,l),
(784,1400,l),
(484,1400,l),
(414,1140,l),
(266,1140,l),
(188,850,l),
(338,850,l),
(256,550,l),
(108,550,l),
(30,260,l),
(178,260,l),
(110,0,l),
(410,0,l),
(478,260,l),
(792,260,l),
(722,0,l),
(1022,0,l),
(1092,260,l),
(1240,260,l),
(1318,550,l),
(1168,550,l),
(1250,850,l),
(1398,850,l)
);
},
{
closed = 1;
nodes = (
(556,550,l),
(638,850,l),
(950,850,l),
(868,550,l)
);
}
);
width = 1506;
},
{
hints = (
{
horizontal = 1;
origin = (0,16);
target = up;
type = BottomGhost;
},
{
horizontal = 1;
origin = (0,14);
target = (0,13);
type = Stem;
},
{
horizontal = 1;
origin = (0,9);
target = (0,10);
type = Stem;
},
{
horizontal = 1;
origin = (0,7);
target = down;
type = TopGhost;
}
);
layerId = "9AF1F7D9-E035-453E-B2A8-46DE370997D0";
shapes = (
{
closed = 1;
nodes = (
(1334,1026,l),
(1106,1026,l),
(1206,1400,l),
(1146,1400,l),
(1046,1026,l),
(494,1026,l),
(594,1400,l),
(534,1400,l),
(434,1026,l),
(204,1026,l),
(188,968,l),
(418,968,l),
(274,434,l),
(46,434,l),
(30,376,l),
(260,376,l),
(158,0,l),
(218,0,l),
(320,376,l),
(872,376,l),
(770,0,l),
(830,0,l),
(932,376,l),
(1160,376,l),
(1176,434,l),
(946,434,l),
(1090,968,l),
(1318,968,l)
);
},
{
closed = 1;
nodes = (
(334,434,l),
(478,968,l),
(1030,968,l),
(886,434,l)
);
}
);
width = 1364;
},
{
hints = (
{
horizontal = 1;
origin = (0,16);
target = up;
type = BottomGhost;
},
{
horizontal = 1;
origin = (0,14);
target = (0,13);
type = Stem;
},
{
horizontal = 1;
origin = (0,9);
target = (0,10);
type = Stem;
},
{
horizontal = 1;
origin = (0,7);
target = down;
type = TopGhost;
}
);
layerId = m003;
shapes = (
{
closed = 1;
nodes = (
(1338,1026,l),
(1110,1026,l),
(1262,1400,l),
(1202,1400,l),
(1050,1026,l),
(498,1026,l),
(650,1400,l),
(590,1400,l),
(438,1026,l),
(208,1026,l),
(184,968,l),
(414,968,l),
(194,434,l),
(-34,434,l),
(-58,376,l),
(172,376,l),
(17,0,l),
(77,0,l),
(232,376,l),
(784,376,l),
(629,0,l),
(689,0,l),
(844,376,l),
(1072,376,l),
(1096,434,l),
(866,434,l),
(1086,968,l),
(1314,968,l)
);
},
{
closed = 1;
nodes = (
(254,434,l),
(474,968,l),
(1026,968,l),
(806,434,l)
);
}
);
width = 1364;
},
{
hints = (
{
horizontal = 1;
origin = (0,16);
target = up;
type = BottomGhost;
},
{
horizontal = 1;
origin = (0,14);
target = (0,13);
type = Stem;
},
{
horizontal = 1;
origin = (0,10);
target = (0,9);
type = Stem;
},
{
horizontal = 1;
origin = (0,7);
target = down;
type = TopGhost;
}
);
layerId = m004;
shapes = (
{
closed = 1;
nodes = (
(1496,1140,l),
(1348,1140,l),
(1452,1400,l),
(1152,1400,l),
(1048,1140,l),
(734,1140,l),
(840,1400,l),
(540,1400,l),
(434,1140,l),
(286,1140,l),
(167,850,l),
(317,850,l),
(193,550,l),
(45,550,l),
(-74,260,l),
(74,260,l),
(-31,0,l),
(269,0,l),
(374,260,l),
(688,260,l),
(581,0,l),
(881,0,l),
(988,260,l),
(1136,260,l),
(1255,550,l),
(1105,550,l),
(1229,850,l),
(1377,850,l)
);
},
{
closed = 1;
nodes = (
(493,550,l),
(617,850,l),
(929,850,l),
(805,550,l)
);
}
);
width = 1506;
},
{
hints = (
{
horizontal = 1;
origin = (0,16);
target = up;
type = BottomGhost;
},
{
horizontal = 1;
origin = (0,14);
target = (0,13);
type = Stem;
},
{
horizontal = 1;
origin = (0,9);
target = (0,10);
type = Stem;
},
{
horizontal = 1;
origin = (0,7);
target = down;
type = TopGhost;
}
);
layerId = "79A30733-E9D0-406C-A133-0F4AF5F1D98D";
shapes = (
{
closed = 1;
nodes = (
(1401,1072,l),
(1205,1072,l),
(1338,1400,l),
(1182,1400,l),
(1049,1072,l),
(592,1072,l),
(726,1400,l),
(570,1400,l),
(436,1072,l),
(239,1072,l),
(177,921,l),
(375,921,l),
(194,480,l),
(-2,480,l),
(-64,330,l),
(133,330,l),
(-2,0,l),
(154,0,l),
(289,330,l),
(746,330,l),
(610,0,l),
(766,0,l),
(902,330,l),
(1098,330,l),
(1160,480,l),
(962,480,l),
(1143,921,l),
(1339,921,l)
);
},
{
closed = 1;
nodes = (
(350,480,l),
(531,921,l),
(987,921,l),
(806,480,l)
);
}
);
width = 1420.8;
},
{
hints = (
{
horizontal = 1;
origin = (0,16);
target = up;
type = BottomGhost;
},
{
horizontal = 1;
origin = (0,14);
target = (0,13);
type = Stem;
},
{
horizontal = 1;
origin = (0,9);
target = (0,10);
type = Stem;
},
{
horizontal = 1;
origin = (0,7);
target = down;
type = TopGhost;
}
);
layerId = "6E59A8CF-B173-4F95-974A-A2EBEECFA9BB";
shapes = (
{
closed = 1;
nodes = (
(1391,1072,l),
(1195,1072,l),
(1282,1400,l),
(1126,1400,l),
(1039,1072,l),
(582,1072,l),
(670,1400,l),
(514,1400,l),
(426,1072,l),
(229,1072,l),
(188,921,l),
(386,921,l),
(267,480,l),
(71,480,l),
(30,330,l),
(227,330,l),
(139,0,l),
(295,0,l),
(383,330,l),
(840,330,l),
(751,0,l),
(907,0,l),
(996,330,l),
(1192,330,l),
(1233,480,l),
(1035,480,l),
(1154,921,l),
(1350,921,l)
);
},
{
closed = 1;
nodes = (
(423,480,l),
(542,921,l),
(998,921,l),
(879,480,l)
);
}
);
width = 1420.8;
}
);
unicode = 35;
}
{
glyphname = dollar;
kernLeft = dollar;
kernRight = dollar;
layers = (
{
hints = (
{
horizontal = 1;
origin = (0,28);
target = up;
type = BottomGhost;
},
{
horizontal = 1;
origin = (0,43);
target = (0,8);
type = Stem;
},
{
horizontal = 1;
origin = (0,9);
target = down;
type = TopGhost;
},
{
horizontal = 1;
origin = (0,29);
target = (0,21);
type = Stem;
},
{
origin = (0,25);
target = (0,40);
type = Stem;
},
{
origin = (0,29);
target = (0,30);
type = Stem;
},
{
origin = (0,18);
target = (0,34);
type = Stem;
}
);
layerId = "10BC12B3-5274-42E3-B5BC-F74F362F0DF4";
shapes = (
{
closed = 1;
nodes = (
(710,1124,o),
(810,1066,o),
(830,1008,c),
(1112,1110,l),
(1052,1280,o),
(876,1392,o),
(680,1420,c),
(680,1624,l),
(480,1624,l),
(480,1420,l),
(240,1384,o),
(48,1220,o),
(48,988,cs),
(48,714,o),
(276,594,o),
(580,550,cs),
(692,534,o),
(812,496,o),
(812,412,cs),
(812,330,o),
(700,274,o),
(580,274,cs),
(450,274,o),
(350,334,o),
(330,392,c),
(48,288,l),
(110,120,o),
(282,10,o),
(480,-18,c),
(480,-224,l),
(680,-224,l),
(680,-18,l),
(920,18,o),
(1112,182,o),
(1112,412,cs),
(1112,670,o),
(868,808,o),
(580,850,cs),
(454,868,o),
(348,880,o),
(348,988,cs),
(348,1066,o),
(464,1126,o),
(580,1124,cs)
);
}
);
width = 1160;
},
{
hints = (
{
horizontal = 1;
origin = (0,28);
target = (0,21);
type = Stem;
},
{
horizontal = 1;
origin = (0,9);
target = (0,43);
type = Stem;
},
{
origin = (0,12);
target = (0,40);
type = Stem;
},
{
origin = (0,29);
target = (0,30);
type = Stem;
},
{
origin = (0,18);
target = (0,34);
type = Stem;
}
);
layerId = "9AF1F7D9-E035-453E-B2A8-46DE370997D0";
shapes = (
{
closed = 1;
nodes = (
(761,1358,o),
(965,1276,o),
(1021,1118,c),
(1079,1138,l),
(1013,1310,o),
(809,1408,o),
(611,1416,c),
(611,1624,l),
(551,1624,l),
(551,1416,l),
(305,1406,o),
(91,1262,o),
(91,1042,cs),
(91,790,o),
(301,718,o),
(579,666,cs),
(795,626,o),
(1009,546,o),
(1009,350,cs),
(1009,158,o),
(805,34,o),
(579,34,cs),
(397,34,o),
(193,116,o),
(137,274,c),
(81,252,l),
(139,86,o),
(341,-18,o),
(551,-26,c),
(551,-224,l),
(611,-224,l),
(611,-26,l),
(857,-14,o),
(1069,128,o),
(1069,350,cs),
(1069,576,o),
(837,682,o),
(579,730,cs),
(333,776,o),
(151,826,o),
(151,1042,cs),
(151,1232,o),
(351,1358,o),
(579,1358,cs)
);
}
);
width = 1160;
},
{
hints = (
{
horizontal = 1;
origin = (0,28);
target = (0,21);
type = Stem;
},
{
horizontal = 1;
origin = (0,9);
target = (0,43);
type = Stem;
},
{
origin = (0,12);
target = (0,40);
type = Stem;
},
{
origin = (0,29);
target = (0,30);
type = Stem;
},
{
origin = (0,18);
target = (0,34);
type = Stem;
}
);
layerId = m003;
shapes = (
{
closed = 1;
nodes = (
(811,1358,o),
(1004,1276,o),
(1038,1118,c),
(1098,1138,l),
(1057,1310,o),
(866,1408,o),
(669,1416,c),
(699,1624,l),
(639,1624,l),
(609,1416,l),
(362,1406,o),
(128,1262,o),
(97,1042,cs),
(61,790,o),
(261,718,o),
(532,666,cs),
(742,626,o),
(945,546,o),
(918,350,cs),
(891,158,o),
(669,34,o),
(443,34,cs),
(261,34,o),
(69,116,o),
(35,274,c),
(-24,252,l),
(11,86,o),
(198,-18,o),
(407,-26,c),
(379,-224,l),
(439,-224,l),
(467,-26,l),
(714,-14,o),
(946,128,o),
(978,350,cs),
(1009,576,o),
(792,682,o),
(541,730,cs),
(302,776,o),
(127,826,o),
(157,1042,cs),
(184,1232,o),
(401,1358,o),
(629,1358,cs)
);
}
);
width = 1160;
},
{
hints = (
{
horizontal = 1;
origin = (0,28);
target = up;
type = BottomGhost;
},
{
horizontal = 1;
origin = (0,43);
target = (0,8);
type = Stem;
},
{
horizontal = 1;
origin = (0,9);
target = down;
type = TopGhost;
},
{
horizontal = 1;
origin = (0,29);
target = (0,21);
type = Stem;
},
{
origin = (0,25);
target = (0,40);
type = Stem;
},
{
origin = (0,29);
target = (0,30);
type = Stem;
},
{
origin = (0,18);
target = (0,34);
type = Stem;
}
);
layerId = m004;
shapes = (
{
closed = 1;
nodes = (
(727,1124,o),
(819,1066,o),
(831,1008,c),
(1127,1110,l),
(1091,1280,o),
(931,1392,o),
(739,1420,c),
(768,1624,l),
(568,1624,l),
(539,1420,l),
(294,1384,o),
(79,1220,o),
(46,988,cs),
(8,714,o),
(219,594,o),
(517,550,cs),
(627,534,o),
(741,496,o),
(729,412,cs),
(718,330,o),
(598,274,o),
(478,274,cs),
(348,274,o),
(256,334,o),
(245,392,c),
(-52,288,l),
(-14,120,o),
(143,10,o),
(337,-18,c),
(308,-224,l),
(508,-224,l),
(537,-18,l),
(782,18,o),
(997,182,o),
(1029,412,cs),
(1066,670,o),
(841,808,o),
(559,850,cs),
(435,868,o),
(331,880,o),
(346,988,cs),
(357,1066,o),
(482,1126,o),
(597,1124,cs)
);
}
);
width = 1160;
},
{
hints = (
{
horizontal = 1;
origin = (0,28);
target = (0,21);
type = Stem;
},
{
horizontal = 1;
origin = (0,9);
target = (0,43);
type = Stem;
},
{
origin = (0,12);
target = (0,40);
type = Stem;
},
{
origin = (0,29);
target = (0,30);
type = Stem;
},
{
origin = (0,18);
target = (0,34);
type = Stem;
}
);
layerId = "79A30733-E9D0-406C-A133-0F4AF5F1D98D";
shapes = (
{
closed = 1;
nodes = (
(777,1264,o),
(930,1192,o),
(955,1074,c),
(1110,1127,l),
(1071,1298,o),
(892,1402,o),
(697,1418,c),
(727,1624,l),
(611,1624,l),
(581,1418,l),
(335,1397,o),
(108,1245,o),
(77,1020,cs),
(40,760,o),
(244,668,o),
(526,620,cs),
(696,589,o),
(863,526,o),
(842,375,cs),
(822,227,o),
(641,130,o),
(457,130,cs),
(296,130,o),
(144,203,o),
(119,321,c),
(-35,266,l),
(1,100,o),
(176,-7,o),
(379,-23,c),
(351,-224,l),
(467,-224,l),
(495,-23,l),
(741,-1,o),
(966,150,o),
(998,375,cs),
(1032,614,o),
(812,732,o),
(548,778,cs),
(355,813,o),
(209,848,o),
(233,1020,cs),
(253,1166,o),
(433,1265,o),
(616,1264,cs)
);
}
);
width = 1160;
},
{
hints = (
{
horizontal = 1;
origin = (0,28);
target = (0,21);
type = Stem;
},
{
horizontal = 1;
origin = (0,9);
target = (0,43);
type = Stem;
},
{
origin = (0,12);
target = (0,40);
type = Stem;
},
{
origin = (0,29);
target = (0,30);
type = Stem;
},
{
origin = (0,18);
target = (0,34);
type = Stem;
}
);
layerId = "6E59A8CF-B173-4F95-974A-A2EBEECFA9BB";
shapes = (
{
closed = 1;
nodes = (
(741,1264,o),
(903,1192,o),
(945,1074,c),
(1092,1127,l),
(1029,1298,o),
(836,1402,o),
(639,1418,c),
(639,1624,l),
(523,1624,l),
(523,1418,l),
(279,1397,o),
(74,1245,o),
(74,1020,cs),
(74,760,o),
(291,668,o),
(579,620,cs),
(754,589,o),
(930,526,o),
(930,375,cs),
(930,227,o),
(763,130,o),
(579,130,cs),
(418,130,o),
(256,203,o),
(214,321,c),
(68,266,l),
(127,100,o),
(317,-7,o),
(523,-23,c),
(523,-224,l),
(639,-224,l),
(639,-23,l),
(882,-1,o),
(1086,150,o),
(1086,375,cs),
(1086,614,o),
(849,732,o),
(579,778,cs),
(381,813,o),
(230,848,o),
(230,1020,cs),
(230,1166,o),
(396,1265,o),
(579,1264,cs)
);
}
);
width = 1160;
}
);
unicode = 36;
}
{
glyphname = percent;
kernLeft = percent;
kernRight = percent;
layers = (
{
hints = (
{
horizontal = 1;
origin = (0,3);
target = up;
type = BottomGhost;
},
{
horizontal = 1;
origin = (4,5);
target = (3,5);
type = Stem;
},
{
horizontal = 1;
origin = (1,11);
target = (2,11);
type = Stem;
},
{
horizontal = 1;
origin = (0,2);
target = down;
type = TopGhost;
},
{
horizontal = 1;
origin = (3,11);
target = (4,11);
type = Stem;
},
{
horizontal = 1;
origin = (1,5);
target = (2,5);
type = Stem;
},
{
origin = (1,8);
target = (2,2);
type = Stem;
},
{
origin = (2,8);
target = (1,2);
type = Stem;
},
{
origin = (3,8);
target = (4,2);
type = Stem;
},
{
origin = (4,8);
target = (3,2);
type = Stem;
}
);
layerId = "10BC12B3-5274-42E3-B5BC-F74F362F0DF4";
shapes = (
{
closed = 1;
nodes = (
(584,0,l),
(1392,1400,l),
(1046,1400,l),
(238,0,l)
);
},
{
closed = 1;
nodes = (
(590,760,o),
(746,902,o),
(746,1092,cs),
(746,1278,o),
(596,1424,o),
(414,1424,cs),
(236,1424,o),
(80,1284,o),
(80,1092,cs),
(80,906,o),
(232,760,o),
(414,760,cs)
);
},
{
closed = 1;
nodes = (
(340,960,o),
(280,1018,o),
(280,1092,cs),
(280,1166,o),
(340,1224,o),
(414,1224,cs),
(486,1224,o),
(546,1166,o),
(546,1092,cs),
(546,1018,o),
(486,960,o),
(414,960,cs)
);
},
{
closed = 1;
nodes = (
(1400,-26,o),
(1550,124,o),
(1550,306,cs),
(1550,482,o),
(1408,640,o),
(1216,640,cs),
(1040,640,o),
(884,496,o),
(884,306,cs),
(884,132,o),
(1030,-26,o),
(1216,-26,cs)
);
},
{
closed = 1;
nodes = (
(1144,174,o),
(1084,234,o),
(1084,306,cs),
(1084,380,o),
(1144,440,o),
(1216,440,cs),
(1290,440,o),
(1350,380,o),
(1350,306,cs),
(1350,234,o),
(1290,174,o),
(1216,174,cs)
);
}
);
width = 1630;
},
{
hints = (
{
horizontal = 1;
origin = (0,3);
target = up;
type = BottomGhost;
},
{
horizontal = 1;
origin = (3,11);
target = (4,11);
type = Stem;
},
{
horizontal = 1;
origin = (4,5);
target = (3,5);
type = Stem;
},
{
horizontal = 1;
origin = (1,11);
target = (2,11);
type = Stem;
},
{
horizontal = 1;
origin = (2,5);
target = (1,5);
type = Stem;
},
{
horizontal = 1;
origin = (0,2);
target = down;
type = TopGhost;
},
{
origin = (1,8);
target = (2,2);
type = Stem;
},
{
origin = (2,8);
target = (1,2);
type = Stem;
},
{
origin = (3,8);
target = (4,2);
type = Stem;
},
{
origin = (4,8);
target = (3,2);
type = Stem;
}
);
layerId = "9AF1F7D9-E035-453E-B2A8-46DE370997D0";
shapes = (
{
closed = 1;
nodes = (
(184,0,l),
(992,1400,l),
(922,1400,l),
(114,0,l)
);
},
{
closed = 1;
nodes = (
(378,900,o),
(464,986,o),
(464,1092,cs),
(464,1198,o),
(378,1286,o),
(272,1286,cs),
(166,1286,o),
(80,1198,o),
(80,1092,cs),
(80,986,o),
(166,900,o),
(272,900,cs)
);
},
{
closed = 1;
nodes = (
(198,960,o),
(140,1020,o),
(140,1092,cs),
(140,1166,o),
(198,1226,o),
(272,1226,cs),
(346,1226,o),
(404,1166,o),
(404,1092,cs),
(404,1020,o),
(346,960,o),
(272,960,cs)
);
},
{
closed = 1;
nodes = (
(942,114,o),
(1028,202,o),
(1028,308,cs),
(1028,414,o),
(942,500,o),
(836,500,cs),
(730,500,o),
(642,414,o),
(642,308,cs),
(642,202,o),
(730,114,o),
(836,114,cs)
);
},
{
closed = 1;
nodes = (
(762,174,o),
(702,234,o),
(702,308,cs),
(702,380,o),
(762,440,o),
(836,440,cs),
(908,440,o),
(968,380,o),
(968,308,cs),
(968,234,o),
(908,174,o),
(836,174,cs)
);
}
);
width = 1108;
},
{
hints = (
{
horizontal = 1;
origin = (0,3);
target = up;
type = BottomGhost;
},
{
horizontal = 1;
origin = (3,11);
target = (4,11);
type = Stem;
},
{
horizontal = 1;
origin = (4,5);
target = (3,5);
type = Stem;
},
{
horizontal = 1;
origin = (1,11);
target = (2,11);
type = Stem;
},
{
horizontal = 1;
origin = (2,5);
target = (1,5);
type = Stem;
},
{
horizontal = 1;
origin = (0,2);
target = down;
type = TopGhost;
},
{
origin = (1,8);
target = (2,2);
type = Stem;
},
{
origin = (2,8);
target = (1,2);
type = Stem;
},
{
origin = (3,8);
target = (4,2);
type = Stem;
},
{
origin = (4,8);
target = (3,2);
type = Stem;
}
);
layerId = m003;
shapes = (
{
closed = 1;
nodes = (
(43,0,l),
(1048,1400,l),
(978,1400,l),
(-27,0,l)
);
},
{
closed = 1;
nodes = (
(364,900,o),
(462,986,o),
(477,1092,cs),
(492,1198,o),
(418,1286,o),
(312,1286,cs),
(206,1286,o),
(108,1198,o),
(93,1092,cs),
(78,986,o),
(152,900,o),
(258,900,cs)
);
},
{
closed = 1;
nodes = (
(192,960,o),
(143,1020,o),
(153,1092,cs),
(163,1166,o),
(230,1226,o),
(304,1226,cs),
(378,1226,o),
(427,1166,o),
(417,1092,cs),
(407,1020,o),
(340,960,o),
(266,960,cs)
);
},
{
closed = 1;
nodes = (
(817,114,o),
(916,202,o),
(931,308,cs),
(946,414,o),
(872,500,o),
(766,500,cs),
(660,500,o),
(560,414,o),
(545,308,cs),
(530,202,o),
(605,114,o),
(711,114,cs)
);
},
{
closed = 1;
nodes = (
(646,174,o),
(594,234,o),
(605,308,cs),
(615,380,o),
(683,440,o),
(757,440,cs),
(829,440,o),
(881,380,o),
(871,308,cs),
(860,234,o),
(792,174,o),
(720,174,cs)
);
}
);
width = 1108;
},
{
hints = (
{
horizontal = 1;
origin = (0,3);
target = up;
type = BottomGhost;
},
{
horizontal = 1;
origin = (4,5);
target = (3,5);
type = Stem;
},
{
horizontal = 1;
origin = (1,11);
target = (2,11);
type = Stem;
},
{
horizontal = 1;
origin = (0,2);
target = down;
type = TopGhost;
},
{
horizontal = 1;
origin = (3,11);
target = (4,11);
type = Stem;
},
{
horizontal = 1;
origin = (1,5);
target = (2,5);
type = Stem;
},
{
origin = (1,8);
target = (2,2);
type = Stem;
},
{
origin = (2,8);
target = (1,2);
type = Stem;
},
{
origin = (3,8);
target = (4,2);
type = Stem;
},
{
origin = (4,8);
target = (3,2);
type = Stem;
}
);
layerId = m004;
shapes = (
{
closed = 1;
nodes = (
(443,0,l),
(1448,1400,l),
(1102,1400,l),
(97,0,l)
);
},
{
closed = 1;
nodes = (
(556,760,o),
(732,902,o),
(759,1092,cs),
(785,1278,o),
(656,1424,o),
(474,1424,cs),
(296,1424,o),
(120,1284,o),
(93,1092,cs),
(67,906,o),
(198,760,o),
(380,760,cs)
);
},
{
closed = 1;
nodes = (
(334,960,o),
(283,1018,o),
(293,1092,cs),
(303,1166,o),
(371,1224,o),
(445,1224,cs),
(517,1224,o),
(569,1166,o),
(559,1092,cs),
(549,1018,o),
(480,960,o),
(408,960,cs)
);
},
{
closed = 1;
nodes = (
(1256,-26,o),
(1427,124,o),
(1452,306,cs),
(1477,482,o),
(1357,640,o),
(1165,640,cs),
(989,640,o),
(813,496,o),
(786,306,cs),
(762,132,o),
(886,-26,o),
(1072,-26,cs)
);
},
{
closed = 1;
nodes = (
(1028,174,o),
(976,234,o),
(986,306,cs),
(997,380,o),
(1065,440,o),
(1137,440,cs),
(1211,440,o),
(1263,380,o),
(1252,306,cs),
(1242,234,o),
(1174,174,o),
(1100,174,cs)
);
}
);
width = 1630;
},
{
hints = (
{
horizontal = 1;
origin = (0,3);
target = up;
type = BottomGhost;
},
{
horizontal = 1;
origin = (3,11);
target = (4,11);
type = Stem;
},
{
horizontal = 1;
origin = (4,5);
target = (3,5);
type = Stem;
},
{
horizontal = 1;
origin = (1,11);
target = (2,11);
type = Stem;
},
{
horizontal = 1;
origin = (2,5);
target = (1,5);
type = Stem;
},
{
horizontal = 1;
origin = (0,2);
target = down;
type = TopGhost;
},
{
origin = (1,8);
target = (2,2);
type = Stem;
},
{
origin = (2,8);
target = (1,2);
type = Stem;
},
{
origin = (3,8);
target = (4,2);
type = Stem;
},
{
origin = (4,8);
target = (3,2);
type = Stem;
}
);
layerId = "79A30733-E9D0-406C-A133-0F4AF5F1D98D";
shapes = (
{
closed = 1;
nodes = (
(203,0,l),
(1208,1400,l),
(1028,1400,l),
(23,0,l)
);
},
{
closed = 1;
nodes = (
(441,844,o),
(570,952,o),
(590,1092,cs),
(609,1230,o),
(513,1341,o),
(377,1341,cs),
(242,1341,o),
(113,1232,o),
(93,1092,cs),
(74,954,o),
(170,844,o),
(307,844,cs)
);
},
{
closed = 1;
nodes = (
(249,960,o),
(199,1019,o),
(209,1092,cs),
(219,1166,o),
(286,1225,o),
(360,1225,cs),
(434,1225,o),
(484,1166,o),
(474,1092,cs),
(464,1019,o),
(396,960,o),
(323,960,cs)
);
},
{
closed = 1;
nodes = (
(993,58,o),
(1120,171,o),
(1139,307,cs),
(1158,441,o),
(1066,556,o),
(926,556,cs),
(792,556,o),
(661,447,o),
(641,307,cs),
(623,174,o),
(717,58,o),
(855,58,cs)
);
},
{
closed = 1;
nodes = (
(799,174,o),
(747,234,o),
(757,307,cs),
(768,380,o),
(836,440,o),
(909,440,cs),
(982,440,o),
(1034,380,o),
(1023,307,cs),
(1013,234,o),
(945,174,o),
(872,174,cs)
);
}
);
width = 1316.8;
},
{
hints = (
{
horizontal = 1;
origin = (0,3);
target = up;
type = BottomGhost;
},
{
horizontal = 1;
origin = (3,11);
target = (4,11);
type = Stem;
},
{
horizontal = 1;
origin = (4,5);
target = (3,5);
type = Stem;
},
{
horizontal = 1;
origin = (1,11);
target = (2,11);
type = Stem;
},
{
horizontal = 1;
origin = (2,5);
target = (1,5);
type = Stem;
},
{
horizontal = 1;
origin = (0,2);
target = down;
type = TopGhost;
},
{
origin = (1,8);
target = (2,2);
type = Stem;
},
{
origin = (2,8);
target = (1,2);
type = Stem;
},
{
origin = (3,8);
target = (4,2);
type = Stem;
},
{
origin = (4,8);
target = (3,2);
type = Stem;
}
);
layerId = "6E59A8CF-B173-4F95-974A-A2EBEECFA9BB";
shapes = (
{
closed = 1;
nodes = (
(344,0,l),
(1152,1400,l),
(972,1400,l),
(164,0,l)
);
},
{
closed = 1;
nodes = (
(463,844,o),
(577,952,o),
(577,1092,cs),
(577,1230,o),
(465,1341,o),
(329,1341,cs),
(194,1341,o),
(80,1232,o),
(80,1092,cs),
(80,954,o),
(192,844,o),
(329,844,cs)
);
},
{
closed = 1;
nodes = (
(255,960,o),
(196,1019,o),
(196,1092,cs),
(196,1166,o),
(255,1225,o),
(329,1225,cs),
(402,1225,o),
(461,1166,o),
(461,1092,cs),
(461,1019,o),
(402,960,o),
(329,960,cs)
);
},
{
closed = 1;
nodes = (
(1125,58,o),
(1237,171,o),
(1237,307,cs),
(1237,441,o),
(1128,556,o),
(988,556,cs),
(854,556,o),
(739,447,o),
(739,307,cs),
(739,174,o),
(850,58,o),
(988,58,cs)
);
},
{
closed = 1;
nodes = (
(915,174,o),
(855,234,o),
(855,307,cs),
(855,380,o),
(915,440,o),
(988,440,cs),
(1061,440,o),
(1121,380,o),
(1121,307,cs),
(1121,234,o),
(1061,174,o),
(988,174,cs)
);
}
);
width = 1316.8;
}
);
unicode = 37;
}
{
glyphname = ampersand;
kernLeft = ampersand;
kernRight = ampersand;
layers = (
{
hints = (
{
horizontal = 1;
origin = (0,27);
target = (1,9);
type = Stem;
},
{
horizontal = 1;
origin = (2,11);
target = down;
type = TopGhost;
},
{
horizontal = 1;
origin = (2,5);
target = (0,15);
type = Stem;
},
{
horizontal = 1;
origin = (0,3);
target = up;
type = BottomGhost;
},
{
origin = (0,24);
target = (1,2);
type = Stem;
},
{
origin = (2,8);
target = (0,12);
type = Stem;
},
{
origin = (0,18);
target = (2,2);
type = Stem;
}
);
layerId = "10BC12B3-5274-42E3-B5BC-F74F362F0DF4";
shapes = (
{
closed = 1;
nodes = (
(648,-26,o),
(718,24,o),
(900,206,c),
(1106,0,l),
(1318,212,l),
(1112,418,l),
(1170,476,l),
(1170,900,l),
(900,630,l),
(696,834,l),
(786,924,o),
(826,990,o),
(826,1104,cs),
(826,1296,o),
(672,1446,o),
(484,1446,cs),
(302,1446,o),
(144,1302,o),
(144,1104,cs),
(144,992,o),
(180,926,o),
(272,834,c),
(94,656,o),
(40,586,o),
(40,418,cs),
(40,180,o),
(234,-26,o),
(484,-26,cs)
);
},
{
closed = 1;
nodes = (
(412,274,o),
(340,332,o),
(340,418,cs),
(340,490,o),
(372,510,o),
(484,622,c),
(688,418,l),
(582,312,o),
(556,274,o),
(484,274,cs)
);
},
{
closed = 1;
nodes = (
(426,1056,o),
(404,1068,o),
(404,1110,cs),
(404,1156,o),
(444,1190,o),
(484,1190,cs),
(518,1190,o),
(564,1164,o),
(564,1110,cs),
(564,1068,o),
(550,1064,o),
(484,1000,c)
);
}
);
width = 1358;
},
{
hints = (
{
horizontal = 1;
origin = (0,27);
target = (1,9);
type = Stem;
},
{
horizontal = 1;
origin = (0,15);
target = (2,5);
type = Stem;
},
{
horizontal = 1;
origin = (0,3);
target = up;
type = BottomGhost;
},
{
origin = (0,24);
target = (1,2);
type = Stem;
},
{
origin = (0,18);
target = (2,2);
type = Stem;
},
{
origin = (2,8);
target = (0,12);
type = Stem;
}
);
layerId = "9AF1F7D9-E035-453E-B2A8-46DE370997D0";
shapes = (
{
closed = 1;
nodes = (
(606,-26,o),
(642,28,o),
(928,314,c),
(1244,0,l),
(1286,42,l),
(968,358,l),
(1124,514,l),
(1124,598,l),
(928,404,l),
(470,862,l),
(638,1030,o),
(678,1058,o),
(678,1174,cs),
(678,1314,o),
(564,1426,o),
(426,1426,cs),
(290,1426,o),
(176,1312,o),
(176,1174,cs),
(176,1062,o),
(210,1038,o),
(384,862,c),
(102,580,o),
(40,538,o),
(40,362,cs),
(40,164,o),
(194,-26,o),
(426,-26,cs)
);
},
{
closed = 1;
nodes = (
(244,34,o),
(102,178,o),
(102,358,cs),
(102,516,o),
(148,540,o),
(426,820,c),
(886,360,l),
(616,86,o),
(588,34,o),
(426,34,cs)
);
},
{
closed = 1;
nodes = (
(272,1060,o),
(236,1080,o),
(236,1174,cs),
(236,1274,o),
(316,1366,o),
(426,1366,cs),
(532,1366,o),
(618,1280,o),
(618,1174,cs),
(618,1082,o),
(586,1062,o),
(426,904,c)
);
}
);
width = 1326;
},
{
hints = (
{
horizontal = 1;
origin = (0,27);
target = (1,9);
type = Stem;
},
{
horizontal = 1;
origin = (0,15);
target = (2,5);
type = Stem;
},
{
horizontal = 1;
origin = (0,3);
target = up;
type = BottomGhost;
},
{
origin = (0,24);
target = (1,2);
type = Stem;
},
{
origin = (0,18);
target = (2,2);
type = Stem;
},
{
origin = (2,8);
target = (0,12);
type = Stem;
}
);
layerId = m003;
shapes = (
{
closed = 1;
nodes = (
(462,-26,o),
(505,28,o),
(832,314,c),
(1103,0,l),
(1151,42,l),
(878,358,l),
(1056,514,l),
(1068,598,l),
(844,404,l),
(451,862,l),
(642,1030,o),
(686,1058,o),
(702,1174,cs),
(722,1314,o),
(624,1426,o),
(486,1426,cs),
(350,1426,o),
(220,1312,o),
(200,1174,cs),
(185,1062,o),
(215,1038,o),
(365,862,c),
(43,580,o),
(-25,538,o),
(-50,362,cs),
(-77,164,o),
(50,-26,o),
(282,-26,cs)
);
},
{
closed = 1;
nodes = (
(108,34,o),
(-14,178,o),
(12,358,cs),
(34,516,o),
(83,540,o),
(401,820,c),
(796,360,l),
(488,86,o),
(452,34,o),
(290,34,cs)
);
},
{
closed = 1;
nodes = (
(280,1060,o),
(247,1080,o),
(260,1174,cs),
(275,1274,o),
(367,1366,o),
(477,1366,cs),
(583,1366,o),
(657,1280,o),
(642,1174,cs),
(630,1082,o),
(595,1062,o),
(413,904,c)
);
}
);
width = 1326;
},
{
hints = (
{
horizontal = 1;
origin = (0,27);
target = (1,9);
type = Stem;
},
{
horizontal = 1;
origin = (2,11);
target = down;
type = TopGhost;
},
{
horizontal = 1;
origin = (2,5);
target = (0,15);
type = Stem;
},
{
horizontal = 1;
origin = (0,3);
target = up;
type = BottomGhost;
},
{
origin = (0,24);
target = (1,2);
type = Stem;
},
{
origin = (2,8);
target = (0,12);
type = Stem;
},
{
origin = (0,18);
target = (2,2);
type = Stem;
}
);
layerId = m004;
shapes = (
{
closed = 1;
nodes = (
(504,-26,o),
(581,24,o),
(788,206,c),
(965,0,l),
(1207,212,l),
(1030,418,l),
(1096,476,l),
(1156,900,l),
(848,630,l),
(673,834,l),
(775,924,o),
(825,990,o),
(841,1104,cs),
(868,1296,o),
(735,1446,o),
(547,1446,cs),
(365,1446,o),
(186,1302,o),
(159,1104,cs),
(143,992,o),
(170,926,o),
(249,834,c),
(46,656,o),
(-18,586,o),
(-42,418,cs),
(-75,180,o),
(90,-26,o),
(340,-26,cs)
);
},
{
closed = 1;
nodes = (
(310,274,o),
(246,332,o),
(258,418,cs),
(268,490,o),
(303,510,o),
(431,622,c),
(606,418,l),
(485,312,o),
(454,274,o),
(382,274,cs)
);
},
{
closed = 1;
nodes = (
(434,1056,o),
(414,1068,o),
(419,1110,cs),
(426,1156,o),
(471,1190,o),
(511,1190,cs),
(545,1190,o),
(587,1164,o),
(579,1110,cs),
(574,1068,o),
(559,1064,o),
(484,1000,c)
);
}
);
width = 1358;
},
{
hints = (
{
horizontal = 1;
origin = (0,27);
target = (1,9);
type = Stem;
},
{
horizontal = 1;
origin = (0,15);
target = (2,5);
type = Stem;
},
{
horizontal = 1;
origin = (0,3);
target = up;
type = BottomGhost;
},
{
origin = (0,24);
target = (1,2);
type = Stem;
},
{
origin = (0,18);
target = (2,2);
type = Stem;
},
{
origin = (2,8);
target = (0,12);
type = Stem;
}
);
layerId = "79A30733-E9D0-406C-A133-0F4AF5F1D98D";
shapes = (
{
closed = 1;
nodes = (
(479,-26,o),
(535,26,o),
(814,271,c),
(1048,0,l),
(1173,110,l),
(939,382,l),
(1072,499,l),
(1103,719,l),
(846,494,l),
(540,851,l),
(695,988,o),
(742,1031,o),
(758,1146,cs),
(780,1307,o),
(668,1434,o),
(510,1434,cs),
(356,1434,o),
(206,1308,o),
(184,1146,cs),
(168,1034,o),
(197,993,o),
(319,851,c),
(44,610,o),
(-22,557,o),
(-47,384,cs),
(-76,170,o),
(66,-26,o),
(305,-26,cs)
);
},
{
closed = 1;
nodes = (
(189,130,o),
(90,240,o),
(110,382,cs),
(128,506,o),
(171,528,o),
(413,741,c),
(720,383,l),
(487,176,o),
(453,130,o),
(327,130,cs)
);
},
{
closed = 1;
nodes = (
(342,1058,o),
(314,1075,o),
(324,1148,cs),
(335,1227,o),
(409,1296,o),
(491,1296,cs),
(568,1296,o),
(629,1234,o),
(617,1148,cs),
(608,1076,o),
(581,1063,o),
(441,942,c)
);
}
);
width = 1338.8;
},
{
hints = (
{
horizontal = 1;
origin = (0,27);
target = (1,9);
type = Stem;
},
{
horizontal = 1;
origin = (0,15);
target = (2,5);
type = Stem;
},
{
horizontal = 1;
origin = (0,3);
target = up;
type = BottomGhost;
},
{
origin = (0,24);
target = (1,2);
type = Stem;
},
{
origin = (0,18);
target = (2,2);
type = Stem;
},
{
origin = (2,8);
target = (0,12);
type = Stem;
}
);
layerId = "6E59A8CF-B173-4F95-974A-A2EBEECFA9BB";
shapes = (
{
closed = 1;
nodes = (
(623,-26,o),
(672,26,o),
(917,271,c),
(1189,0,l),
(1299,110,l),
(1026,382,l),
(1142,499,l),
(1142,719,l),
(917,494,l),
(560,851,l),
(697,988,o),
(737,1031,o),
(737,1146,cs),
(737,1307,o),
(607,1434,o),
(449,1434,cs),
(295,1434,o),
(163,1308,o),
(163,1146,cs),
(163,1034,o),
(198,993,o),
(339,851,c),
(99,610,o),
(40,557,o),
(40,384,cs),
(40,170,o),
(210,-26,o),
(449,-26,cs)
);
},
{
closed = 1;
nodes = (
(311,130,o),
(197,240,o),
(197,382,cs),
(197,506,o),
(238,528,o),
(449,741,c),
(807,383,l),
(602,176,o),
(575,130,o),
(449,130,cs)
);
},
{
closed = 1;
nodes = (
(334,1058,o),
(303,1075,o),
(303,1148,cs),
(303,1227,o),
(367,1296,o),
(449,1296,cs),
(526,1296,o),
(596,1234,o),
(596,1148,cs),
(596,1076,o),
(572,1063,o),
(449,942,c)
);
}
);
width = 1338.8;
}
);
unicode = 38;
}
{
glyphname = quotesingle;
kernLeft = quotesingle;
kernRight = quotesingle;
layers = (
{
hints = (
{
horizontal = 1;
origin = (0,2);
target = (0,3);
type = Stem;
},
{
origin = (0,3);
target = (0,0);
type = Stem;
}
);
layerId = "10BC12B3-5274-42E3-B5BC-F74F362F0DF4";
shapes = (
{
closed = 1;
nodes = (
(310,878,l),
(310,1400,l),
(110,1400,l),
(110,878,l)
);
}
);
width = 420;
},
{
hints = (
{
horizontal = 1;
origin = (0,2);
target = down;
type = TopGhost;
},
{
origin = (0,3);
target = (0,0);
type = Stem;
}
);
layerId = "9AF1F7D9-E035-453E-B2A8-46DE370997D0";
shapes = (
{
closed = 1;
nodes = (
(210,878,l),
(210,1400,l),
(150,1400,l),
(150,878,l)
);
}
);
width = 360;
},
{
hints = (
{
horizontal = 1;
origin = (0,2);
target = down;
type = TopGhost;
},
{
origin = (0,3);
target = (0,0);
type = Stem;
}
);
layerId = m003;
shapes = (
{
closed = 1;
nodes = (
(193,878,l),
(266,1400,l),
(206,1400,l),
(133,878,l)
);
}
);
width = 360;
},
{
hints = (
{
horizontal = 1;
origin = (0,2);
target = (0,3);
type = Stem;
},
{
origin = (0,3);
target = (0,0);
type = Stem;
}
);
layerId = m004;
shapes = (
{
closed = 1;
nodes = (
(293,878,l),
(366,1400,l),
(166,1400,l),
(93,878,l)
);
}
);
width = 420;
},
{
hints = (
{
horizontal = 1;
origin = (0,2);
target = down;
type = TopGhost;
},
{
origin = (0,3);
target = (0,0);
type = Stem;
}
);
layerId = "79A30733-E9D0-406C-A133-0F4AF5F1D98D";
shapes = (
{
closed = 1;
nodes = (
(233,878,l),
(306,1400,l),
(190,1400,l),
(117,878,l)
);
}
);
width = 384;
},
{
hints = (
{
horizontal = 1;
origin = (0,2);
target = down;
type = TopGhost;
},
{
origin = (0,3);
target = (0,0);
type = Stem;
}
);
layerId = "6E59A8CF-B173-4F95-974A-A2EBEECFA9BB";
shapes = (
{
closed = 1;
nodes = (
(250,878,l),
(250,1400,l),
(134,1400,l),
(134,878,l)
);
}
);
width = 384;
}
);
unicode = 39;
}
{
glyphname = parenleft;
kernLeft = parenleft;
kernRight = parenleft;
layers = (
{
hints = (
{
horizontal = 1;
origin = (0,7);
target = down;
type = TopGhost;
},
{
origin = (0,10);
target = (0,13);
type = Stem;
}
);
layerId = "10BC12B3-5274-42E3-B5BC-F74F362F0DF4";
shapes = (
{
closed = 1;
nodes = (
(720,-112,l),
(588,40,o),
(420,332,o),
(420,644,cs),
(420,882,o),
(598,1338,o),
(720,1400,c),
(420,1400,l),
(256,1340,o),
(120,872,o),
(120,644,cs),
(120,326,o),
(210,98,o),
(420,-112,c)
);
}
);
width = 710;
},
{
hints = (
{
horizontal = 1;
origin = (0,7);
target = down;
type = TopGhost;
},
{
origin = (0,10);
target = (0,3);
type = Stem;
}
);
layerId = "9AF1F7D9-E035-453E-B2A8-46DE370997D0";
shapes = (
{
closed = 1;
nodes = (
(454,-112,l),
(268,86,o),
(192,328,o),
(180,644,c),
(192,954,o),
(262,1188,o),
(454,1400,c),
(394,1400,l),
(198,1226,o),
(120,932,o),
(120,644,cs),
(120,364,o),
(196,66,o),
(394,-112,c)
);
}
);
width = 444;
},
{
hints = (
{
horizontal = 1;
origin = (0,7);
target = down;
type = TopGhost;
},
{
origin = (0,10);
target = (0,3);
type = Stem;
}
);
layerId = m003;
shapes = (
{
closed = 1;
nodes = (
(298,-112,l),
(140,86,o),
(98,328,o),
(130,644,c),
(186,954,o),
(288,1188,o),
(510,1400,c),
(450,1400,l),
(230,1226,o),
(110,932,o),
(70,644,cs),
(31,364,o),
(65,66,o),
(238,-112,c)
);
}
);
width = 444;
},
{
hints = (
{
horizontal = 1;
origin = (0,7);
target = down;
type = TopGhost;
},
{
origin = (0,10);
target = (0,13);
type = Stem;
}
);
layerId = m004;
shapes = (
{
closed = 1;
nodes = (
(564,-112,l),
(453,40,o),
(326,332,o),
(370,644,cs),
(403,882,o),
(646,1338,o),
(776,1400,c),
(476,1400,l),
(304,1340,o),
(102,872,o),
(70,644,cs),
(25,326,o),
(83,98,o),
(264,-112,c)
);
}
);
width = 710;
},
{
hints = (
{
horizontal = 1;
origin = (0,7);
target = down;
type = TopGhost;
},
{
origin = (0,10);
target = (0,3);
type = Stem;
}
);
layerId = "79A30733-E9D0-406C-A133-0F4AF5F1D98D";
shapes = (
{
closed = 1;
nodes = (
(404,-112,l),
(265,68,o),
(189,330,o),
(226,644,cs),
(273,925,o),
(431,1248,o),
(616,1400,c),
(460,1400,l),
(260,1272,o),
(107,908,o),
(70,644,cs),
(29,349,o),
(72,79,o),
(248,-112,c)
);
}
);
width = 550.4;
},
{
hints = (
{
horizontal = 1;
origin = (0,7);
target = down;
type = TopGhost;
},
{
origin = (0,10);
target = (0,3);
type = Stem;
}
);
layerId = "6E59A8CF-B173-4F95-974A-A2EBEECFA9BB";
shapes = (
{
closed = 1;
nodes = (
(560,-112,l),
(396,68,o),
(283,330,o),
(276,644,cs),
(283,925,o),
(396,1248,o),
(560,1400,c),
(404,1400,l),
(221,1272,o),
(120,908,o),
(120,644,cs),
(120,349,o),
(202,79,o),
(404,-112,c)
);
}
);
width = 550.4;
}
);
unicode = 40;
}
{
glyphname = parenright;
kernLeft = parenright;
kernRight = parenright;
layers = (
{
hints = (
{
horizontal = 1;
origin = (0,7);
target = down;
type = TopGhost;
},
{
origin = (0,0);
target = (0,3);
type = Stem;
}
);
layerId = "10BC12B3-5274-42E3-B5BC-F74F362F0DF4";
shapes = (
{
closed = 1;
nodes = (
(290,-112,l),
(500,98,o),
(590,326,o),
(590,644,cs),
(590,872,o),
(454,1340,o),
(290,1400,c),
(-10,1400,l),
(112,1338,o),
(290,882,o),
(290,644,cs),
(290,332,o),
(122,40,o),
(-10,-112,c)
);
}
);
width = 710;
},
{
hints = (
{
horizontal = 1;
origin = (0,7);
target = down;
type = TopGhost;
},
{
origin = (0,10);
target = (0,3);
type = Stem;
}
);
layerId = "9AF1F7D9-E035-453E-B2A8-46DE370997D0";
shapes = (
{
closed = 1;
nodes = (
(50,-112,l),
(248,66,o),
(324,364,o),
(324,644,cs),
(324,932,o),
(246,1226,o),
(50,1400,c),
(-10,1400,l),
(182,1188,o),
(252,954,o),
(264,644,c),
(252,328,o),
(176,86,o),
(-10,-112,c)
);
}
);
width = 444;
},
{
hints = (
{
horizontal = 1;
origin = (0,7);
target = down;
type = TopGhost;
},
{
origin = (0,10);
target = (0,3);
type = Stem;
}
);
layerId = m003;
shapes = (
{
closed = 1;
nodes = (
(-106,-112,l),
(117,66,o),
(235,364,o),
(274,644,cs),
(314,932,o),
(278,1226,o),
(106,1400,c),
(46,1400,l),
(208,1188,o),
(246,954,o),
(214,644,c),
(158,328,o),
(48,86,o),
(-166,-112,c)
);
}
);
width = 444;
},
{
hints = (
{
horizontal = 1;
origin = (0,7);
target = down;
type = TopGhost;
},
{
origin = (0,0);
target = (0,3);
type = Stem;
}
);
layerId = m004;
shapes = (
{
closed = 1;
nodes = (
(134,-112,l),
(373,98,o),
(495,326,o),
(540,644,cs),
(572,872,o),
(502,1340,o),
(346,1400,c),
(46,1400,l),
(160,1338,o),
(273,882,o),
(240,644,cs),
(196,332,o),
(-13,40,o),
(-166,-112,c)
);
}
);
width = 710;
},
{
hints = (
{
horizontal = 1;
origin = (0,7);
target = down;
type = TopGhost;
},
{
origin = (0,10);
target = (0,3);
type = Stem;
}
);
layerId = "79A30733-E9D0-406C-A133-0F4AF5F1D98D";
shapes = (
{
closed = 1;
nodes = (
(-10,-112,l),
(219,79,o),
(339,349,o),
(380,644,cs),
(417,908,o),
(368,1272,o),
(202,1400,c),
(46,1400,l),
(189,1248,o),
(257,925,o),
(224,644,cs),
(173,330,o),
(24,68,o),
(-166,-112,c)
);
}
);
width = 550.4;
},
{
hints = (
{
horizontal = 1;
origin = (0,7);
target = down;
type = TopGhost;
},
{
origin = (0,10);
target = (0,3);
type = Stem;
}
);
layerId = "6E59A8CF-B173-4F95-974A-A2EBEECFA9BB";
shapes = (
{
closed = 1;
nodes = (
(146,-112,l),
(349,79,o),
(430,349,o),
(430,644,cs),
(430,908,o),
(329,1272,o),
(146,1400,c),
(-10,1400,l),
(154,1248,o),
(267,925,o),
(274,644,cs),
(267,330,o),
(154,68,o),
(-10,-112,c)
);
}
);
width = 550.4;
}
);
unicode = 41;
}
{
glyphname = asterisk;
kernLeft = asterisk;
kernRight = asterisk;
layers = (
{
hints = (
{
horizontal = 1;
origin = (0,8);
target = down;
type = TopGhost;
},
{
origin = (0,9);
target = (0,6);
type = Stem;
}
);
layerId = "10BC12B3-5274-42E3-B5BC-F74F362F0DF4";
shapes = (
{
closed = 1;
nodes = (
(322,946,l),
(408,826,l),
(570,944,l),
(482,1064,l),
(624,1108,l),
(562,1300,l),
(422,1254,l),
(422,1400,l),
(222,1400,l),
(222,1254,l),
(80,1300,l),
(20,1108,l),
(160,1064,l),
(72,944,l),
(234,826,l)
);
}
);
width = 644;
},
{
hints = (
{
horizontal = 1;
origin = (0,8);
target = down;
type = TopGhost;
},
{
origin = (0,9);
target = (0,6);
type = Stem;
}
);
layerId = "9AF1F7D9-E035-453E-B2A8-46DE370997D0";
shapes = (
{
closed = 1;
nodes = (
(300,1064,l),
(442,866,l),
(492,902,l),
(348,1098,l),
(580,1174,l),
(562,1230,l),
(330,1156,l),
(330,1400,l),
(270,1400,l),
(270,1156,l),
(38,1230,l),
(20,1174,l),
(250,1098,l),
(108,902,l),
(156,866,l)
);
}
);
width = 600;
},
{
hints = (
{
horizontal = 1;
origin = (0,8);
target = down;
type = TopGhost;
},
{
origin = (0,9);
target = (0,6);
type = Stem;
}
);
layerId = m003;
shapes = (
{
closed = 1;
nodes = (
(309,1064,l),
(423,866,l),
(478,902,l),
(362,1098,l),
(604,1174,l),
(594,1230,l),
(352,1156,l),
(386,1400,l),
(326,1400,l),
(292,1156,l),
(70,1230,l),
(44,1174,l),
(264,1098,l),
(94,902,l),
(137,866,l)
);
}
);
width = 600;
},
{
hints = (
{
horizontal = 1;
origin = (0,8);
target = down;
type = TopGhost;
},
{
origin = (0,9);
target = (0,6);
type = Stem;
}
);
layerId = m004;
shapes = (
{
closed = 1;
nodes = (
(314,946,l),
(384,826,l),
(562,944,l),
(491,1064,l),
(639,1108,l),
(604,1300,l),
(458,1254,l),
(478,1400,l),
(278,1400,l),
(258,1254,l),
(122,1300,l),
(35,1108,l),
(169,1064,l),
(64,944,l),
(210,826,l)
);
}
);
width = 644;
},
{
hints = (
{
horizontal = 1;
origin = (0,8);
target = down;
type = TopGhost;
},
{
origin = (0,9);
target = (0,6);
type = Stem;
}
);
layerId = "79A30733-E9D0-406C-A133-0F4AF5F1D98D";
shapes = (
{
closed = 1;
nodes = (
(311,1017,l),
(407,850,l),
(512,919,l),
(414,1084,l),
(618,1148,l),
(598,1258,l),
(394,1195,l),
(423,1400,l),
(307,1400,l),
(278,1195,l),
(91,1258,l),
(40,1148,l),
(226,1084,l),
(82,919,l),
(166,850,l)
);
}
);
width = 617.6;
},
{
hints = (
{
horizontal = 1;
origin = (0,8);
target = down;
type = TopGhost;
},
{
origin = (0,9);
target = (0,6);
type = Stem;
}
);
layerId = "6E59A8CF-B173-4F95-974A-A2EBEECFA9BB";
shapes = (
{
closed = 1;
nodes = (
(309,1017,l),
(428,850,l),
(523,919,l),
(402,1084,l),
(598,1148,l),
(562,1258,l),
(367,1195,l),
(367,1400,l),
(251,1400,l),
(251,1195,l),
(55,1258,l),
(20,1148,l),
(214,1084,l),
(94,919,l),
(187,850,l)
);
}
);
width = 617.6;
}
);
unicode = 42;
}
{
glyphname = plus;
kernLeft = plus;
kernRight = plus;
layers = (
{
hints = (
{
horizontal = 1;
origin = (0,9);
target = (0,8);
type = Stem;
},
{
origin = (0,11);
target = (0,0);
type = Stem;
}
);
layerId = "10BC12B3-5274-42E3-B5BC-F74F362F0DF4";
shapes = (
{
closed = 1;
nodes = (
(730,100,l),
(730,450,l),
(1080,450,l),
(1080,750,l),
(730,750,l),
(730,1100,l),
(430,1100,l),
(430,750,l),
(80,750,l),
(80,450,l),
(430,450,l),
(430,100,l)
);
}
);
width = 1160;
},
{
hints = (
{
horizontal = 1;
origin = (0,9);
target = (0,8);
type = Stem;
},
{
origin = (0,11);
target = (0,0);
type = Stem;
}
);
layerId = "9AF1F7D9-E035-453E-B2A8-46DE370997D0";
shapes = (
{
closed = 1;
nodes = (
(610,100,l),
(610,570,l),
(1080,570,l),
(1080,630,l),
(610,630,l),
(610,1100,l),
(550,1100,l),
(550,630,l),
(80,630,l),
(80,570,l),
(550,570,l),
(550,100,l)
);
}
);
width = 1160;
},
{
hints = (
{
horizontal = 1;
origin = (0,9);
target = (0,8);
type = Stem;
},
{
origin = (0,11);
target = (0,0);
type = Stem;
}
);
layerId = m003;
shapes = (
{
closed = 1;
nodes = (
(484,100,l),
(550,570,l),
(1020,570,l),
(1028,630,l),
(558,630,l),
(624,1100,l),
(564,1100,l),
(498,630,l),
(28,630,l),
(20,570,l),
(490,570,l),
(424,100,l)
);
}
);
width = 1160;
},
{
hints = (
{
horizontal = 1;
origin = (0,9);
target = (0,8);
type = Stem;
},
{
origin = (0,11);
target = (0,0);
type = Stem;
}
);
layerId = m004;
shapes = (
{
closed = 1;
nodes = (
(604,100,l),
(653,450,l),
(1003,450,l),
(1045,750,l),
(695,750,l),
(744,1100,l),
(444,1100,l),
(395,750,l),
(45,750,l),
(3,450,l),
(353,450,l),
(304,100,l)
);
}
);
width = 1160;
},
{
hints = (
{
horizontal = 1;
origin = (0,9);
target = (0,8);
type = Stem;
},
{
origin = (0,11);
target = (0,0);
type = Stem;
}
);
layerId = "79A30733-E9D0-406C-A133-0F4AF5F1D98D";
shapes = (
{
closed = 1;
nodes = (
(532,100,l),
(591,522,l),
(1013,522,l),
(1035,678,l),
(613,678,l),
(672,1100,l),
(516,1100,l),
(457,678,l),
(35,678,l),
(13,522,l),
(435,522,l),
(376,100,l)
);
}
);
width = 1160;
},
{
hints = (
{
horizontal = 1;
origin = (0,9);
target = (0,8);
type = Stem;
},
{
origin = (0,11);
target = (0,0);
type = Stem;
}
);
layerId = "6E59A8CF-B173-4F95-974A-A2EBEECFA9BB";
shapes = (
{
closed = 1;
nodes = (
(658,100,l),
(658,522,l),
(1080,522,l),
(1080,678,l),
(658,678,l),
(658,1100,l),
(502,1100,l),
(502,678,l),
(80,678,l),
(80,522,l),
(502,522,l),
(502,100,l)
);
}
);
width = 1160;
}
);
unicode = 43;
}
{
glyphname = comma;
kernLeft = period;
kernRight = period;
layers = (
{
hints = (
{
horizontal = 1;
origin = (0,3);
target = (0,2);
type = Stem;
},
{
origin = (0,3);
target = (0,1);
type = Stem;
}
);
layerId = "10BC12B3-5274-42E3-B5BC-F74F362F0DF4";
shapes = (
{
closed = 1;
nodes = (
(209,-112,l),
(371,226,l),
(71,226,l),
(9,-112,l)
);
}
);
width = 420;
},
{
hints = (
{
origin = (0,3);
target = (0,1);
type = Stem;
}
);
layerId = "9AF1F7D9-E035-453E-B2A8-46DE370997D0";
shapes = (
{
closed = 1;
nodes = (
(139,-112,l),
(221,226,l),
(161,226,l),
(99,-112,l)
);
}
);
width = 360;
},
{
hints = (
{
origin = (0,3);
target = (0,1);
type = Stem;
}
);
layerId = m003;
shapes = (
{
closed = 1;
nodes = (
(-17,-112,l),
(112,226,l),
(52,226,l),
(-57,-112,l)
);
}
);
width = 360;
},
{
hints = (
{
horizontal = 1;
origin = (0,3);
target = (0,2);
type = Stem;
},
{
origin = (0,3);
target = (0,1);
type = Stem;
}
);
layerId = m004;
shapes = (
{
closed = 1;
nodes = (
(53,-112,l),
(262,226,l),
(-38,226,l),
(-147,-112,l)
);
}
);
width = 420;
},
{
hints = (
{
origin = (0,3);
target = (0,1);
type = Stem;
}
);
layerId = "79A30733-E9D0-406C-A133-0F4AF5F1D98D";
shapes = (
{
closed = 1;
nodes = (
(11,-112,l),
(172,226,l),
(16,226,l),
(-93,-112,l)
);
}
);
width = 384;
},
{
hints = (
{
origin = (0,3);
target = (0,1);
type = Stem;
}
);
layerId = "6E59A8CF-B173-4F95-974A-A2EBEECFA9BB";
shapes = (
{
closed = 1;
nodes = (
(167,-112,l),
(281,226,l),
(125,226,l),
(63,-112,l)
);
}
);
width = 384;
}
);
unicode = 44;
}
{
glyphname = hyphen;
kernLeft = hyphen;
kernRight = hyphen;
layers = (
{
hints = (
{
horizontal = 1;
origin = (0,0);
target = (0,3);
type = Stem;
},
{
origin = (0,0);
target = (0,1);
type = Stem;
}
);
layerId = "10BC12B3-5274-42E3-B5BC-F74F362F0DF4";
shapes = (
{
closed = 1;
nodes = (
(50,450,l),
(690,450,l),
(690,750,l),
(50,750,l)
);
}
);
width = 740;
},
{
hints = (
{
horizontal = 1;
origin = (0,0);
target = (0,3);
type = Stem;
}
);
layerId = "9AF1F7D9-E035-453E-B2A8-46DE370997D0";
shapes = (
{
closed = 1;
nodes = (
(50,570,l),
(690,570,l),
(690,630,l),
(50,630,l)
);
}
);
width = 740;
},
{
hints = (
{
horizontal = 1;
origin = (0,0);
target = (0,3);
type = Stem;
}
);
layerId = m003;
shapes = (
{
closed = 1;
nodes = (
(-10,570,l),
(630,570,l),
(638,630,l),
(-2,630,l)
);
}
);
width = 740;
},
{
hints = (
{
horizontal = 1;
origin = (0,0);
target = (0,3);
type = Stem;
},
{
origin = (0,0);
target = (0,1);
type = Stem;
}
);
layerId = m004;
shapes = (
{
closed = 1;
nodes = (
(-27,450,l),
(613,450,l),
(655,750,l),
(15,750,l)
);
}
);
width = 740;
},
{
hints = (
{
horizontal = 1;
origin = (0,0);
target = (0,3);
type = Stem;
}
);
layerId = "79A30733-E9D0-406C-A133-0F4AF5F1D98D";
shapes = (
{
closed = 1;
nodes = (
(-17,522,l),
(623,522,l),
(645,678,l),
(5,678,l)
);
}
);
width = 740;
},
{
hints = (
{
horizontal = 1;
origin = (0,0);
target = (0,3);
type = Stem;
}
);
layerId = "6E59A8CF-B173-4F95-974A-A2EBEECFA9BB";
shapes = (
{
closed = 1;
nodes = (
(50,522,l),
(690,522,l),
(690,678,l),
(50,678,l)
);
}
);
width = 740;
}
);
unicode = 45;
}
{
glyphname = period;
kernLeft = period;
kernRight = period;
layers = (
{
hints = (
{
horizontal = 1;
origin = (0,11);
target = (0,5);
type = Stem;
},
{
origin = (0,8);
target = (0,2);
type = Stem;
}
);
layerId = "10BC12B3-5274-42E3-B5BC-F74F362F0DF4";
shapes = (
{
closed = 1;
nodes = (
(292,-26,o),
(360,40,o),
(360,124,cs),
(360,206,o),
(292,274,o),
(210,274,cs),
(126,274,o),
(60,206,o),
(60,124,cs),
(60,40,o),
(126,-26,o),
(210,-26,cs)
);
}
);
width = 420;
},
{
hints = (
{
horizontal = 1;
origin = (0,11);
target = (0,5);
type = Stem;
},
{
origin = (0,8);
target = (0,2);
type = Stem;
}
);
layerId = "9AF1F7D9-E035-453E-B2A8-46DE370997D0";
shapes = (
{
closed = 1;
nodes = (
(205,-26,o),
(225,-6,o),
(225,20,cs),
(225,44,o),
(205,64,o),
(179,64,cs),
(155,64,o),
(135,44,o),
(135,20,cs),
(135,-6,o),
(155,-26,o),
(179,-26,cs)
);
}
);
width = 360;
},
{
hints = (
{
horizontal = 1;
origin = (0,11);
target = (0,5);
type = Stem;
},
{
origin = (0,8);
target = (0,2);
type = Stem;
}
);
layerId = m003;
shapes = (
{
closed = 1;
nodes = (
(61,-26,o),
(84,-6,o),
(87,20,cs),
(91,44,o),
(73,64,o),
(47,64,cs),
(23,64,o),
(1,44,o),
(-3,20,cs),
(-6,-6,o),
(11,-26,o),
(35,-26,cs)
);
}
);
width = 360;
},
{
hints = (
{
horizontal = 1;
origin = (0,11);
target = (0,5);
type = Stem;
},
{
origin = (0,8);
target = (0,2);
type = Stem;
}
);
layerId = m004;
shapes = (
{
closed = 1;
nodes = (
(148,-26,o),
(225,40,o),
(237,124,cs),
(248,206,o),
(190,274,o),
(108,274,cs),
(24,274,o),
(-52,206,o),
(-63,124,cs),
(-75,40,o),
(-18,-26,o),
(66,-26,cs)
);
}
);
width = 420;
},
{
hints = (
{
horizontal = 1;
origin = (0,11);
target = (0,5);
type = Stem;
},
{
origin = (0,8);
target = (0,2);
type = Stem;
}
);
layerId = "79A30733-E9D0-406C-A133-0F4AF5F1D98D";
shapes = (
{
closed = 1;
nodes = (
(96,-26,o),
(140,12,o),
(147,62,cs),
(154,109,o),
(120,148,o),
(71,148,cs),
(23,148,o),
(-20,109,o),
(-27,62,cs),
(-34,12,o),
(-1,-26,o),
(47,-26,cs)
);
}
);
width = 384;
},
{
hints = (
{
horizontal = 1;
origin = (0,11);
target = (0,5);
type = Stem;
},
{
origin = (0,8);
target = (0,2);
type = Stem;
}
);
layerId = "6E59A8CF-B173-4F95-974A-A2EBEECFA9BB";
shapes = (
{
closed = 1;
nodes = (
(240,-26,o),
(279,12,o),
(279,62,cs),
(279,109,o),
(240,148,o),
(191,148,cs),
(143,148,o),
(105,109,o),
(105,62,cs),
(105,12,o),
(143,-26,o),
(191,-26,cs)
);
}
);
width = 384;
}
);
unicode = 46;
}
{
glyphname = slash;
kernLeft = slash;
kernRight = slash;
layers = (
{
hints = (
{
horizontal = 1;
origin = (0,0);
target = down;
type = TopGhost;
},
{
origin = (0,1);
target = (0,3);
type = Stem;
}
);
layerId = "10BC12B3-5274-42E3-B5BC-F74F362F0DF4";
shapes = (
{
closed = 1;
nodes = (
(396,1400,l),
(-10,-112,l),
(290,-112,l),
(696,1400,l)
);
}
);
width = 686;
},
{
hints = (
{
horizontal = 1;
origin = (0,0);
target = down;
type = TopGhost;
}
);
layerId = "9AF1F7D9-E035-453E-B2A8-46DE370997D0";
shapes = (
{
closed = 1;
nodes = (
(394,1400,l),
(-10,-112,l),
(50,-112,l),
(454,1400,l)
);
}
);
width = 444;
},
{
hints = (
{
horizontal = 1;
origin = (0,0);
target = down;
type = TopGhost;
}
);
layerId = m003;
shapes = (
{
closed = 1;
nodes = (
(450,1400,l),
(-166,-112,l),
(-106,-112,l),
(510,1400,l)
);
}
);
width = 444;
},
{
hints = (
{
horizontal = 1;
origin = (0,0);
target = down;
type = TopGhost;
},
{
origin = (0,1);
target = (0,3);
type = Stem;
}
);
layerId = m004;
shapes = (
{
closed = 1;
nodes = (
(452,1400,l),
(-166,-112,l),
(134,-112,l),
(752,1400,l)
);
}
);
width = 686;
},
{
hints = (
{
horizontal = 1;
origin = (0,0);
target = down;
type = TopGhost;
}
);
layerId = "79A30733-E9D0-406C-A133-0F4AF5F1D98D";
shapes = (
{
closed = 1;
nodes = (
(451,1400,l),
(-166,-112,l),
(-10,-112,l),
(607,1400,l)
);
}
);
width = 540.8;
},
{
hints = (
{
horizontal = 1;
origin = (0,0);
target = down;
type = TopGhost;
}
);
layerId = "6E59A8CF-B173-4F95-974A-A2EBEECFA9BB";
shapes = (
{
closed = 1;
nodes = (
(395,1400,l),
(-10,-112,l),
(146,-112,l),
(551,1400,l)
);
}
);
width = 540.8;
}
);
unicode = 47;
}
{
glyphname = zero;
kernLeft = zero;
kernRight = zero;
layers = (
{
hints = (
{
horizontal = 1;
origin = (0,11);
target = (1,11);
type = Stem;
},
{
horizontal = 1;
origin = (0,5);
target = (1,5);
type = Stem;
},
{
origin = (0,8);
target = (1,2);
type = Stem;
},
{
origin = (1,8);
target = (0,2);
type = Stem;
}
);
layerId = "10BC12B3-5274-42E3-B5BC-F74F362F0DF4";
shapes = (
{
closed = 1;
nodes = (
(901,-26,o),
(1129,300,o),
(1129,700,cs),
(1129,1100,o),
(901,1426,o),
(581,1426,cs),
(261,1426,o),
(31,1100,o),
(31,700,cs),
(31,300,o),
(261,-26,o),
(581,-26,cs)
);
},
{
closed = 1;
nodes = (
(397,274,o),
(311,484,o),
(311,700,cs),
(311,918,o),
(395,1126,o),
(581,1126,cs),
(759,1126,o),
(849,930,o),
(849,700,cs),
(849,482,o),
(767,274,o),
(581,274,cs)
);
}
);
width = 1160;
},
{
hints = (
{
horizontal = 1;
origin = (0,11);
target = (1,11);
type = Stem;
},
{
horizontal = 1;
origin = (0,5);
target = (1,5);
type = Stem;
},
{
origin = (0,8);
target = (1,2);
type = Stem;
},
{
origin = (1,8);
target = (0,2);
type = Stem;
}
);
layerId = "9AF1F7D9-E035-453E-B2A8-46DE370997D0";
shapes = (
{
closed = 1;
nodes = (
(921,-26,o),
(1109,300,o),
(1109,700,cs),
(1109,1102,o),
(921,1426,o),
(581,1426,cs),
(239,1426,o),
(51,1102,o),
(51,700,cs),
(51,300,o),
(239,-26,o),
(581,-26,cs)
);
},
{
closed = 1;
nodes = (
(277,34,o),
(111,332,o),
(111,700,cs),
(111,1058,o),
(267,1366,o),
(581,1366,cs),
(879,1366,o),
(1049,1082,o),
(1049,700,cs),
(1049,336,o),
(885,34,o),
(581,34,cs)
);
}
);
width = 1160;
},
{
hints = (
{
horizontal = 1;
origin = (0,11);
target = (1,11);
type = Stem;
},
{
horizontal = 1;
origin = (0,5);
target = (1,5);
type = Stem;
},
{
origin = (0,8);
target = (1,2);
type = Stem;
},
{
origin = (1,8);
target = (0,2);
type = Stem;
}
);
layerId = m003;
shapes = (
{
closed = 1;
nodes = (
(777,-26,o),
(1011,300,o),
(1067,700,cs),
(1123,1102,o),
(981,1426,o),
(641,1426,cs),
(299,1426,o),
(65,1102,o),
(9,700,cs),
(-47,300,o),
(95,-26,o),
(437,-26,cs)
);
},
{
closed = 1;
nodes = (
(141,34,o),
(17,332,o),
(69,700,cs),
(119,1058,o),
(318,1366,o),
(632,1366,cs),
(930,1366,o),
(1061,1082,o),
(1007,700,cs),
(956,336,o),
(749,34,o),
(445,34,cs)
);
}
);
width = 1160;
},
{
hints = (
{
horizontal = 1;
origin = (0,11);
target = (1,11);
type = Stem;
},
{
horizontal = 1;
origin = (0,5);
target = (1,5);
type = Stem;
},
{
origin = (0,8);
target = (1,2);
type = Stem;
},
{
origin = (1,8);
target = (0,2);
type = Stem;
}
);
layerId = m004;
shapes = (
{
closed = 1;
nodes = (
(757,-26,o),
(1031,300,o),
(1087,700,cs),
(1143,1100,o),
(961,1426,o),
(641,1426,cs),
(321,1426,o),
(45,1100,o),
(-11,700,cs),
(-67,300,o),
(117,-26,o),
(437,-26,cs)
);
},
{
closed = 1;
nodes = (
(295,274,o),
(238,484,o),
(269,700,cs),
(299,918,o),
(413,1126,o),
(599,1126,cs),
(777,1126,o),
(839,930,o),
(807,700,cs),
(776,482,o),
(665,274,o),
(479,274,cs)
);
}
);
width = 1160;
},
{
hints = (
{
horizontal = 1;
origin = (0,11);
target = (1,11);
type = Stem;
},
{
horizontal = 1;
origin = (0,5);
target = (1,5);
type = Stem;
},
{
origin = (0,8);
target = (1,2);
type = Stem;
},
{
origin = (1,8);
target = (0,2);
type = Stem;
}
);
layerId = "79A30733-E9D0-406C-A133-0F4AF5F1D98D";
shapes = (
{
closed = 1;
nodes = (
(769,-26,o),
(1019,300,o),
(1075,700,cs),
(1131,1101,o),
(973,1426,o),
(641,1426,cs),
(308,1426,o),
(57,1101,o),
(1,700,cs),
(-55,300,o),
(104,-26,o),
(437,-26,cs)
);
},
{
closed = 1;
nodes = (
(203,130,o),
(105,393,o),
(149,700,cs),
(191,1002,o),
(356,1270,o),
(619,1270,cs),
(869,1270,o),
(972,1021,o),
(927,700,cs),
(884,394,o),
(715,130,o),
(459,130,cs)
);
}
);
width = 1160;
},
{
hints = (
{
horizontal = 1;
origin = (0,11);
target = (1,11);
type = Stem;
},
{
horizontal = 1;
origin = (0,5);
target = (1,5);
type = Stem;
},
{
origin = (0,8);
target = (1,2);
type = Stem;
},
{
origin = (1,8);
target = (0,2);
type = Stem;
}
);
layerId = "6E59A8CF-B173-4F95-974A-A2EBEECFA9BB";
shapes = (
{
closed = 1;
nodes = (
(913,-26,o),
(1117,300,o),
(1117,700,cs),
(1117,1101,o),
(913,1426,o),
(581,1426,cs),
(248,1426,o),
(43,1101,o),
(43,700,cs),
(43,300,o),
(248,-26,o),
(581,-26,cs)
);
},
{
closed = 1;
nodes = (
(325,130,o),
(191,393,o),
(191,700,cs),
(191,1002,o),
(318,1270,o),
(581,1270,cs),
(831,1270,o),
(969,1021,o),
(969,700,cs),
(969,394,o),
(838,130,o),
(581,130,cs)
);
}
);
width = 1160;
}
);
unicode = 48;
}
{
glyphname = one;
kernLeft = one;
kernRight = one;
layers = (
{
hints = (
{
horizontal = 1;
origin = (0,5);
target = up;
type = BottomGhost;
},
{
horizontal = 1;
origin = (0,2);
target = (0,3);
type = Stem;
},
{
origin = (0,5);
target = (0,0);
type = Stem;
}
);
layerId = "10BC12B3-5274-42E3-B5BC-F74F362F0DF4";
shapes = (
{
closed = 1;
nodes = (
(745,0,l),
(745,1400,l),
(335,1400,l),
(255,1100,l),
(445,1100,l),
(445,0,l)
);
}
);
width = 1160;
},
{
hints = (
{
horizontal = 1;
origin = (0,5);
target = up;
type = BottomGhost;
},
{
horizontal = 1;
origin = (0,2);
target = (0,3);
type = Stem;
},
{
origin = (0,5);
target = (0,0);
type = Stem;
}
);
layerId = "9AF1F7D9-E035-453E-B2A8-46DE370997D0";
shapes = (
{
closed = 1;
nodes = (
(680,0,l),
(680,1400,l),
(500,1400,l),
(480,1340,l),
(620,1340,l),
(620,0,l)
);
}
);
width = 1160;
},
{
hints = (
{
horizontal = 1;
origin = (0,5);
target = up;
type = BottomGhost;
},
{
horizontal = 1;
origin = (0,2);
target = (0,3);
type = Stem;
},
{
origin = (0,5);
target = (0,0);
type = Stem;
}
);
layerId = m003;
shapes = (
{
closed = 1;
nodes = (
(539,0,l),
(736,1400,l),
(556,1400,l),
(528,1340,l),
(668,1340,l),
(479,0,l)
);
}
);
width = 1160;
},
{
hints = (
{
horizontal = 1;
origin = (0,5);
target = up;
type = BottomGhost;
},
{
horizontal = 1;
origin = (0,2);
target = (0,3);
type = Stem;
},
{
origin = (0,5);
target = (0,0);
type = Stem;
}
);
layerId = m004;
shapes = (
{
closed = 1;
nodes = (
(604,0,l),
(801,1400,l),
(391,1400,l),
(269,1100,l),
(459,1100,l),
(304,0,l)
);
}
);
width = 1160;
},
{
hints = (
{
horizontal = 1;
origin = (0,5);
target = up;
type = BottomGhost;
},
{
horizontal = 1;
origin = (0,2);
target = (0,3);
type = Stem;
},
{
origin = (0,5);
target = (0,0);
type = Stem;
}
);
layerId = "79A30733-E9D0-406C-A133-0F4AF5F1D98D";
shapes = (
{
closed = 1;
nodes = (
(565,0,l),
(762,1400,l),
(490,1400,l),
(424,1244,l),
(584,1244,l),
(409,0,l)
);
}
);
width = 1160;
},
{
hints = (
{
horizontal = 1;
origin = (0,5);
target = up;
type = BottomGhost;
},
{
horizontal = 1;
origin = (0,2);
target = (0,3);
type = Stem;
},
{
origin = (0,5);
target = (0,0);
type = Stem;
}
);
layerId = "6E59A8CF-B173-4F95-974A-A2EBEECFA9BB";
shapes = (
{
closed = 1;
nodes = (
(706,0,l),
(706,1400,l),
(434,1400,l),
(390,1244,l),
(550,1244,l),
(550,0,l)
);
}
);
width = 1160;
}
);
unicode = 49;
}
{
glyphname = two;
kernLeft = two;
kernRight = two;
layers = (
{
hints = (
{
horizontal = 1;
origin = (0,22);
target = (0,2);
type = Stem;
},
{
horizontal = 1;
origin = (0,8);
target = (0,15);
type = Stem;
},
{
origin = (0,11);
target = (0,12);
type = Stem;
},
{
origin = (0,18);
target = (0,0);
type = Stem;
}
);
layerId = "10BC12B3-5274-42E3-B5BC-F74F362F0DF4";
shapes = (
{
closed = 1;
nodes = (
(1066,0,l),
(1066,300,l),
(646,300,l),
(914,560,o),
(1066,718,o),
(1066,940,cs),
(1066,1210,o),
(848,1426,o),
(582,1426,cs),
(320,1426,o),
(96,1216,o),
(96,940,c),
(396,940,l),
(396,1042,o),
(480,1126,o),
(582,1126,cs),
(684,1126,o),
(766,1042,o),
(766,940,cs),
(766,772,o),
(280,384,o),
(94,268,c),
(94,0,l)
);
}
);
width = 1160;
},
{
hints = (
{
horizontal = 1;
origin = (0,22);
target = (0,2);
type = Stem;
},
{
horizontal = 1;
origin = (0,8);
target = (0,15);
type = Stem;
},
{
origin = (0,11);
target = (0,12);
type = Stem;
},
{
origin = (0,18);
target = (0,5);
type = Stem;
}
);
layerId = "9AF1F7D9-E035-453E-B2A8-46DE370997D0";
shapes = (
{
closed = 1;
nodes = (
(1004,0,l),
(1004,60,l),
(254,60,l),
(530,314,o),
(972,780,o),
(972,1026,cs),
(972,1246,o),
(794,1426,o),
(576,1426,cs),
(356,1426,o),
(178,1246,o),
(178,1026,c),
(238,1026,l),
(238,1212,o),
(390,1366,o),
(576,1366,cs),
(762,1366,o),
(912,1212,o),
(912,1026,cs),
(912,782,o),
(476,372,o),
(156,52,c),
(156,0,l)
);
}
);
width = 1160;
},
{
hints = (
{
horizontal = 1;
origin = (0,22);
target = (0,2);
type = Stem;
},
{
horizontal = 1;
origin = (0,8);
target = (0,15);
type = Stem;
},
{
origin = (0,11);
target = (0,12);
type = Stem;
},
{
origin = (0,18);
target = (0,5);
type = Stem;
}
);
layerId = m003;
shapes = (
{
closed = 1;
nodes = (
(863,0,l),
(872,60,l),
(122,60,l),
(434,314,o),
(941,780,o),
(976,1026,cs),
(1007,1246,o),
(854,1426,o),
(636,1426,cs),
(416,1426,o),
(213,1246,o),
(182,1026,c),
(242,1026,l),
(268,1212,o),
(441,1366,o),
(627,1366,cs),
(813,1366,o),
(942,1212,o),
(916,1026,cs),
(881,782,o),
(388,372,o),
(23,52,c),
(15,0,l)
);
}
);
width = 1160;
},
{
hints = (
{
horizontal = 1;
origin = (0,22);
target = (0,2);
type = Stem;
},
{
horizontal = 1;
origin = (0,8);
target = (0,15);
type = Stem;
},
{
origin = (0,11);
target = (0,12);
type = Stem;
},
{
origin = (0,18);
target = (0,0);
type = Stem;
}
);
layerId = m004;
shapes = (
{
closed = 1;
nodes = (
(925,0,l),
(968,300,l),
(548,300,l),
(852,560,o),
(1026,718,o),
(1058,940,cs),
(1096,1210,o),
(908,1426,o),
(642,1426,cs),
(380,1426,o),
(126,1216,o),
(88,940,c),
(388,940,l),
(402,1042,o),
(498,1126,o),
(600,1126,cs),
(702,1126,o),
(772,1042,o),
(758,940,cs),
(734,772,o),
(193,384,o),
(-9,268,c),
(-47,0,l)
);
}
);
width = 1160;
},
{
hints = (
{
horizontal = 1;
origin = (0,22);
target = (0,2);
type = Stem;
},
{
horizontal = 1;
origin = (0,8);
target = (0,15);
type = Stem;
},
{
origin = (0,11);
target = (0,12);
type = Stem;
},
{
origin = (0,18);
target = (0,5);
type = Stem;
}
);
layerId = "79A30733-E9D0-406C-A133-0F4AF5F1D98D";
shapes = (
{
closed = 1;
nodes = (
(888,0,l),
(910,156,l),
(292,156,l),
(601,412,o),
(975,755,o),
(1009,992,cs),
(1043,1232,o),
(876,1426,o),
(638,1426,cs),
(402,1426,o),
(178,1234,o),
(144,992,c),
(300,992,l),
(322,1144,o),
(464,1270,o),
(616,1270,cs),
(769,1270,o),
(874,1144,o),
(853,992,cs),
(822,778,o),
(310,377,o),
(10,138,c),
(-10,0,l)
);
}
);
width = 1160;
},
{
hints = (
{
horizontal = 1;
origin = (0,22);
target = (0,2);
type = Stem;
},
{
horizontal = 1;
origin = (0,8);
target = (0,15);
type = Stem;
},
{
origin = (0,11);
target = (0,12);
type = Stem;
},
{
origin = (0,18);
target = (0,5);
type = Stem;
}
);
layerId = "6E59A8CF-B173-4F95-974A-A2EBEECFA9BB";
shapes = (
{
closed = 1;
nodes = (
(1029,0,l),
(1029,156,l),
(411,156,l),
(684,412,o),
(1010,755,o),
(1010,992,cs),
(1010,1232,o),
(816,1426,o),
(578,1426,cs),
(342,1426,o),
(145,1234,o),
(145,992,c),
(301,992,l),
(301,1144,o),
(426,1270,o),
(578,1270,cs),
(731,1270,o),
(854,1144,o),
(854,992,cs),
(854,778,o),
(398,377,o),
(131,138,c),
(131,0,l)
);
}
);
width = 1160;
}
);
unicode = 50;
}
{
glyphname = three;
kernLeft = three;
kernRight = three;
layers = (
{
hints = (
{
horizontal = 1;
origin = (0,38);
target = (0,31);
type = Stem;
},
{
horizontal = 1;
origin = (0,25);
target = (0,24);
type = Stem;
},
{
horizontal = 1;
origin = (0,18);
target = (0,11);
type = Stem;
},
{
horizontal = 1;
origin = (0,14);
target = (0,11);
type = Stem;
},
{
horizontal = 1;
origin = (0,38);
target = (0,35);
type = Stem;
},
{
origin = (0,35);
target = (0,34);
type = Stem;
},
{
origin = (0,28);
target = (0,2);
type = Stem;
},
{
origin = (0,21);
target = (0,8);
type = Stem;
}
);
layerId = "10BC12B3-5274-42E3-B5BC-F74F362F0DF4";
shapes = (
{
closed = 1;
nodes = (
(834,-26,o),
(1042,182,o),
(1042,436,cs),
(1042,556,o),
(988,704,o),
(884,744,c),
(964,786,o),
(1004,902,o),
(1004,996,cs),
(1004,1236,o),
(804,1428,o),
(570,1428,cs),
(332,1428,o),
(118,1234,o),
(118,996,c),
(418,996,l),
(418,1068,o),
(500,1128,o),
(574,1128,cs),
(646,1128,o),
(704,1068,o),
(704,996,cs),
(704,896,o),
(614,846,o),
(468,846,c),
(468,618,l),
(634,618,o),
(742,558,o),
(742,436,cs),
(742,348,o),
(668,274,o),
(580,274,cs),
(492,274,o),
(418,348,o),
(418,436,c),
(118,436,l),
(118,180,o),
(328,-26,o),
(580,-26,cs)
);
}
);
width = 1160;
},
{
background = {
shapes = (
{
closed = 1;
nodes = (
(1012,708,o),
(926,746,c),
(1010,804,o),
(1046,902,o),
(1046,1000,c),
(1046,1248,o),
(846,1424,o),
(602,1424,c),
(356,1424,o),
(158,1246,o),
(158,1000,c),
(458,1000,l),
(458,1080,o),
(522,1144,o),
(602,1144,c),
(680,1144,o),
(746,1080,o),
(746,1000,c),
(746,936,o),
(672,830,o),
(494,830,c),
(494,648,l),
(722,648,o),
(782,530,o),
(782,446,c),
(782,352,o),
(704,274,o),
(608,274,c),
(514,274,o),
(436,352,o),
(436,446,c),
(136,446,l),
(136,184,o),
(348,-26,o),
(608,-26,c),
(868,-26,o),
(1082,186,o),
(1082,446,c),
(1082,560,o)
);
}
);
};
hints = (
{
horizontal = 1;
origin = (0,38);
target = (0,31);
type = Stem;
},
{
horizontal = 1;
origin = (0,25);
target = (0,24);
type = Stem;
},
{
horizontal = 1;
origin = (0,11);
target = (0,18);
type = Stem;
},
{
origin = (0,35);
target = (0,34);
type = Stem;
},
{
origin = (0,28);
target = (0,2);
type = Stem;
},
{
origin = (0,14);
target = (0,15);
type = Stem;
},
{
origin = (0,21);
target = (0,8);
type = Stem;
}
);
layerId = "9AF1F7D9-E035-453E-B2A8-46DE370997D0";
shapes = (
{
closed = 1;
nodes = (
(798,-26,o),
(996,152,o),
(996,370,cs),
(996,546,o),
(900,678,o),
(718,738,c),
(858,784,o),
(952,906,o),
(952,1066,cs),
(952,1264,o),
(770,1426,o),
(572,1426,cs),
(372,1426,o),
(190,1264,o),
(190,1066,c),
(250,1066,l),
(250,1230,o),
(406,1366,o),
(572,1366,cs),
(736,1366,o),
(892,1230,o),
(892,1066,cs),
(892,870,o),
(740,766,o),
(516,766,c),
(516,706,l),
(756,706,o),
(936,594,o),
(936,370,cs),
(936,184,o),
(764,34,o),
(580,34,cs),
(354,34,o),
(224,184,o),
(224,370,c),
(164,370,l),
(164,152,o),
(322,-26,o),
(580,-26,cs)
);
}
);
width = 1160;
},
{
background = {
shapes = (
{
closed = 1;
nodes = (
(1012,708,o),
(926,746,c),
(1010,804,o),
(1046,902,o),
(1046,1000,c),
(1046,1248,o),
(846,1424,o),
(602,1424,c),
(356,1424,o),
(158,1246,o),
(158,1000,c),
(458,1000,l),
(458,1080,o),
(522,1144,o),
(602,1144,c),
(680,1144,o),
(746,1080,o),
(746,1000,c),
(746,936,o),
(672,830,o),
(494,830,c),
(494,648,l),
(722,648,o),
(782,530,o),
(782,446,c),
(782,352,o),
(704,274,o),
(608,274,c),
(514,274,o),
(436,352,o),
(436,446,c),
(136,446,l),
(136,184,o),
(348,-26,o),
(608,-26,c),
(868,-26,o),
(1082,186,o),
(1082,446,c),
(1082,560,o)
);
}
);
};
hints = (
{
horizontal = 1;
origin = (0,38);
target = (0,31);
type = Stem;
},
{
horizontal = 1;
origin = (0,25);
target = (0,24);
type = Stem;
},
{
horizontal = 1;
origin = (0,11);
target = (0,18);
type = Stem;
},
{
origin = (0,35);
target = (0,34);
type = Stem;
},
{
origin = (0,28);
target = (0,2);
type = Stem;
},
{
origin = (0,14);
target = (0,15);
type = Stem;
},
{
origin = (0,21);
target = (0,8);
type = Stem;
}
);
layerId = m003;
shapes = (
{
closed = 1;
nodes = (
(654,-26,o),
(877,152,o),
(907,370,cs),
(932,546,o),
(855,678,o),
(681,738,c),
(828,784,o),
(939,906,o),
(961,1066,cs),
(989,1264,o),
(830,1426,o),
(632,1426,cs),
(432,1426,o),
(227,1264,o),
(199,1066,c),
(259,1066,l),
(282,1230,o),
(457,1366,o),
(623,1366,cs),
(787,1366,o),
(924,1230,o),
(901,1066,cs),
(874,870,o),
(707,766,o),
(483,766,c),
(475,706,l),
(715,706,o),
(879,594,o),
(847,370,cs),
(821,184,o),
(628,34,o),
(444,34,cs),
(218,34,o),
(109,184,o),
(135,370,c),
(75,370,l),
(45,152,o),
(178,-26,o),
(436,-26,cs)
);
}
);
width = 1160;
},
{
hints = (
{
horizontal = 1;
origin = (0,38);
target = (0,31);
type = Stem;
},
{
horizontal = 1;
origin = (0,25);
target = (0,24);
type = Stem;
},
{
horizontal = 1;
origin = (0,18);
target = (0,11);
type = Stem;
},
{
horizontal = 1;
origin = (0,14);
target = (0,11);
type = Stem;
},
{
horizontal = 1;
origin = (0,38);
target = (0,35);
type = Stem;
},
{
origin = (0,35);
target = (0,34);
type = Stem;
},
{
origin = (0,28);
target = (0,2);
type = Stem;
},
{
origin = (0,21);
target = (0,8);
type = Stem;
}
);
layerId = m004;
shapes = (
{
closed = 1;
nodes = (
(690,-26,o),
(927,182,o),
(963,436,cs),
(980,556,o),
(946,704,o),
(848,744,c),
(934,786,o),
(990,902,o),
(1003,996,cs),
(1037,1236,o),
(864,1428,o),
(630,1428,cs),
(392,1428,o),
(151,1234,o),
(117,996,c),
(417,996,l),
(428,1068,o),
(518,1128,o),
(592,1128,cs),
(664,1128,o),
(714,1068,o),
(703,996,cs),
(689,896,o),
(592,846,o),
(446,846,c),
(414,618,l),
(580,618,o),
(680,558,o),
(663,436,cs),
(650,348,o),
(566,274,o),
(478,274,cs),
(390,274,o),
(326,348,o),
(339,436,c),
(39,436,l),
(3,180,o),
(184,-26,o),
(436,-26,cs)
);
}
);
width = 1160;
},
{
hints = (
{
horizontal = 1;
origin = (0,38);
target = (0,31);
type = Stem;
},
{
horizontal = 1;
origin = (0,25);
target = (0,24);
type = Stem;
},
{
horizontal = 1;
origin = (0,11);
target = (0,18);
type = Stem;
},
{
origin = (0,35);
target = (0,34);
type = Stem;
},
{
origin = (0,28);
target = (0,2);
type = Stem;
},
{
origin = (0,14);
target = (0,15);
type = Stem;
},
{
origin = (0,21);
target = (0,8);
type = Stem;
}
);
layerId = "79A30733-E9D0-406C-A133-0F4AF5F1D98D";
shapes = (
{
closed = 1;
nodes = (
(668,-26,o),
(897,164,o),
(929,396,cs),
(951,550,o),
(891,688,o),
(748,740,c),
(870,785,o),
(959,904,o),
(978,1038,cs),
(1008,1253,o),
(844,1427,o),
(631,1427,cs),
(416,1427,o),
(197,1252,o),
(166,1038,c),
(322,1038,l),
(340,1165,o),
(481,1271,o),
(611,1271,cs),
(738,1271,o),
(840,1165,o),
(822,1038,cs),
(800,880,o),
(661,798,o),
(468,798,c),
(451,671,l),
(661,671,o),
(799,580,o),
(773,396,cs),
(753,250,o),
(603,130,o),
(458,130,cs),
(287,130,o),
(196,250,o),
(217,396,c),
(61,396,l),
(28,163,o),
(180,-26,o),
(436,-26,cs)
);
}
);
width = 1160;
},
{
hints = (
{
horizontal = 1;
origin = (0,38);
target = (0,31);
type = Stem;
},
{
horizontal = 1;
origin = (0,25);
target = (0,24);
type = Stem;
},
{
horizontal = 1;
origin = (0,11);
target = (0,18);
type = Stem;
},
{
origin = (0,35);
target = (0,34);
type = Stem;
},
{
origin = (0,28);
target = (0,2);
type = Stem;
},
{
origin = (0,14);
target = (0,15);
type = Stem;
},
{
origin = (0,21);
target = (0,8);
type = Stem;
}
);
layerId = "6E59A8CF-B173-4F95-974A-A2EBEECFA9BB";
shapes = (
{
closed = 1;
nodes = (
(812,-26,o),
(1014,164,o),
(1014,396,cs),
(1014,550,o),
(935,688,o),
(784,740,c),
(900,785,o),
(973,904,o),
(973,1038,cs),
(973,1253,o),
(784,1427,o),
(571,1427,cs),
(356,1427,o),
(161,1252,o),
(161,1038,c),
(317,1038,l),
(317,1165,o),
(444,1271,o),
(573,1271,cs),
(700,1271,o),
(817,1165,o),
(817,1038,cs),
(817,880,o),
(690,798,o),
(497,798,c),
(497,671,l),
(707,671,o),
(858,580,o),
(858,396,cs),
(858,250,o),
(726,130,o),
(580,130,cs),
(409,130,o),
(302,250,o),
(302,396,c),
(146,396,l),
(146,163,o),
(324,-26,o),
(580,-26,cs)
);
}
);
width = 1160;
}
);
unicode = 51;
}
{
glyphname = four;
kernLeft = four;
kernRight = four;
layers = (
{
hints = (
{
horizontal = 1;
origin = (0,10);
target = up;
type = BottomGhost;
},
{
horizontal = 1;
origin = (0,8);
target = (0,7);
type = Stem;
},
{
horizontal = 1;
origin = (0,6);
target = down;
type = TopGhost;
},
{
origin = (0,10);
target = (0,0);
type = Stem;
},
{
origin = (0,10);
target = (0,2);
type = Stem;
}
);
layerId = "10BC12B3-5274-42E3-B5BC-F74F362F0DF4";
shapes = (
{
closed = 1;
nodes = (
(975,0,l),
(975,310,l),
(1077,310,l),
(1077,610,l),
(975,610,l),
(975,1400,l),
(607,1400,l),
(83,610,l),
(83,310,l),
(675,310,l),
(675,0,l)
);
},
{
closed = 1;
nodes = (
(675,996,l),
(675,610,l),
(429,610,l)
);
}
);
width = 1160;
},
{
hints = (
{
horizontal = 1;
origin = (0,10);
target = up;
type = BottomGhost;
},
{
horizontal = 1;
origin = (0,8);
target = (1,1);
type = Stem;
},
{
horizontal = 1;
origin = (0,6);
target = down;
type = TopGhost;
},
{
horizontal = 1;
place = (434,62);
type = Stem;
},
{
horizontal = 1;
origin = (0,6);
target = (1,0);
type = Stem;
},
{
origin = (0,10);
target = (0,0);
type = Stem;
},
{
place = (688,62);
type = Stem;
}
);
layerId = "9AF1F7D9-E035-453E-B2A8-46DE370997D0";
shapes = (
{
closed = 1;
nodes = (
(830,0,l),
(830,434,l),
(1000,434,l),
(1000,494,l),
(830,494,l),
(830,1400,l),
(750,1400,l),
(160,498,l),
(160,434,l),
(770,434,l),
(770,0,l)
);
},
{
closed = 1;
nodes = (
(766,1302,l),
(770,494,l),
(236,498,l)
);
}
);
width = 1160;
},
{
hints = (
{
horizontal = 1;
origin = (0,10);
target = up;
type = BottomGhost;
},
{
horizontal = 1;
origin = (0,8);
target = (1,1);
type = Stem;
},
{
horizontal = 1;
origin = (0,6);
target = down;
type = TopGhost;
},
{
horizontal = 1;
place = (293,-79);
type = Stem;
},
{
horizontal = 1;
origin = (0,6);
target = (1,0);
type = Stem;
},
{
origin = (0,10);
target = (0,0);
type = Stem;
},
{
place = (547,-79);
type = Stem;
}
);
layerId = m003;
shapes = (
{
closed = 1;
nodes = (
(689,0,l),
(750,434,l),
(920,434,l),
(929,494,l),
(759,494,l),
(886,1400,l),
(806,1400,l),
(89,498,l),
(80,434,l),
(690,434,l),
(629,0,l)
);
},
{
closed = 1;
nodes = (
(808,1302,l),
(699,494,l),
(165,498,l)
);
}
);
width = 1160;
},
{
hints = (
{
horizontal = 1;
origin = (0,10);
target = up;
type = BottomGhost;
},
{
horizontal = 1;
origin = (0,8);
target = (0,7);
type = Stem;
},
{
horizontal = 1;
origin = (0,6);
target = down;
type = TopGhost;
},
{
origin = (0,10);
target = (0,0);
type = Stem;
},
{
origin = (0,10);
target = (0,2);
type = Stem;
}
);
layerId = m004;
shapes = (
{
closed = 1;
nodes = (
(834,0,l),
(878,310,l),
(980,310,l),
(1022,610,l),
(920,610,l),
(1031,1400,l),
(663,1400,l),
(28,610,l),
(-14,310,l),
(578,310,l),
(534,0,l)
);
},
{
closed = 1;
nodes = (
(674,996,l),
(620,610,l),
(374,610,l)
);
}
);
width = 1160;
},
{
hints = (
{
horizontal = 1;
origin = (0,10);
target = up;
type = BottomGhost;
},
{
horizontal = 1;
origin = (0,8);
target = (1,1);
type = Stem;
},
{
horizontal = 1;
origin = (0,6);
target = down;
type = TopGhost;
},
{
horizontal = 1;
place = (474,156);
type = Stem;
},
{
horizontal = 1;
origin = (0,6);
target = (1,0);
type = Stem;
},
{
origin = (0,10);
target = (0,0);
type = Stem;
},
{
place = (377,36);
type = Stem;
}
);
layerId = "79A30733-E9D0-406C-A133-0F4AF5F1D98D";
shapes = (
{
closed = 1;
nodes = (
(747,0,l),
(801,384,l),
(944,384,l),
(966,540,l),
(823,540,l),
(944,1400,l),
(749,1400,l),
(65,543,l),
(42,384,l),
(645,384,l),
(591,0,l)
);
},
{
closed = 1;
nodes = (
(754,1180,l),
(667,540,l),
(249,543,l)
);
}
);
width = 1160;
},
{
hints = (
{
horizontal = 1;
origin = (0,10);
target = up;
type = BottomGhost;
},
{
horizontal = 1;
origin = (0,8);
target = (1,1);
type = Stem;
},
{
horizontal = 1;
origin = (0,6);
target = down;
type = TopGhost;
},
{
horizontal = 1;
place = (530,157);
type = Stem;
},
{
horizontal = 1;
origin = (0,6);
target = (1,0);
type = Stem;
},
{
origin = (0,10);
target = (0,0);
type = Stem;
},
{
place = (462,36);
type = Stem;
}
);
layerId = "6E59A8CF-B173-4F95-974A-A2EBEECFA9BB";
shapes = (
{
closed = 1;
nodes = (
(888,0,l),
(888,384,l),
(1031,384,l),
(1031,540,l),
(888,540,l),
(888,1400,l),
(693,1400,l),
(129,543,l),
(129,384,l),
(732,384,l),
(732,0,l)
);
},
{
closed = 1;
nodes = (
(730,1180,l),
(732,540,l),
(313,543,l)
);
}
);
width = 1160;
}
);
unicode = 52;
}
{
glyphname = five;
kernLeft = five;
kernRight = five;
layers = (
{
hints = (
{
horizontal = 1;
origin = (0,25);
target = (0,18);
type = Stem;
},
{
horizontal = 1;
place = (660,299);
type = Stem;
},
{
horizontal = 1;
origin = (0,10);
target = (0,7);
type = Stem;
},
{
origin = (0,22);
target = (0,21);
type = Stem;
},
{
origin = (0,15);
target = (0,2);
type = Stem;
}
);
layerId = "10BC12B3-5274-42E3-B5BC-F74F362F0DF4";
shapes = (
{
closed = 1;
nodes = (
(853,-26,o),
(1071,196,o),
(1071,464,cs),
(1071,732,o),
(871,946,o),
(587,958,cs),
(523,960,l),
(553,1100,l),
(1015,1100,l),
(1015,1400,l),
(309,1400,l),
(153,660,l),
(523,660,ls),
(723,660,o),
(771,570,o),
(771,464,cs),
(771,358,o),
(685,274,o),
(581,274,cs),
(475,274,o),
(389,358,o),
(389,464,c),
(89,464,l),
(89,200,o),
(303,-26,o),
(581,-26,cs)
);
}
);
width = 1160;
},
{
hints = (
{
horizontal = 1;
origin = (0,25);
target = (0,18);
type = Stem;
},
{
horizontal = 1;
origin = (0,11);
target = (0,6);
type = Stem;
},
{
horizontal = 1;
origin = (0,10);
target = (0,7);
type = Stem;
},
{
origin = (0,22);
target = (0,21);
type = Stem;
},
{
origin = (0,15);
target = (0,2);
type = Stem;
}
);
layerId = "9AF1F7D9-E035-453E-B2A8-46DE370997D0";
shapes = (
{
closed = 1;
nodes = (
(822,-26,o),
(1022,172,o),
(1022,416,cs),
(1022,682,o),
(826,858,o),
(540,858,cs),
(328,858,l),
(422,1340,l),
(1004,1340,l),
(1004,1400,l),
(374,1400,l),
(254,798,l),
(580,798,ls),
(790,798,o),
(962,626,o),
(962,416,cs),
(962,206,o),
(790,34,o),
(580,34,cs),
(368,34,o),
(198,206,o),
(198,416,c),
(138,416,l),
(138,172,o),
(334,-26,o),
(580,-26,cs)
);
}
);
width = 1160;
},
{
hints = (
{
horizontal = 1;
origin = (0,25);
target = (0,18);
type = Stem;
},
{
horizontal = 1;
origin = (0,11);
target = (0,6);
type = Stem;
},
{
horizontal = 1;
origin = (0,10);
target = (0,7);
type = Stem;
},
{
origin = (0,22);
target = (0,21);
type = Stem;
},
{
origin = (0,15);
target = (0,2);
type = Stem;
}
);
layerId = m003;
shapes = (
{
closed = 1;
nodes = (
(678,-26,o),
(906,172,o),
(940,416,cs),
(977,682,o),
(806,858,o),
(520,858,cs),
(308,858,l),
(470,1340,l),
(1052,1340,l),
(1060,1400,l),
(430,1400,l),
(226,798,l),
(552,798,ls),
(762,798,o),
(909,626,o),
(880,416,cs),
(850,206,o),
(654,34,o),
(444,34,cs),
(232,34,o),
(86,206,o),
(116,416,c),
(56,416,l),
(22,172,o),
(190,-26,o),
(436,-26,cs)
);
}
);
width = 1160;
},
{
hints = (
{
horizontal = 1;
origin = (0,25);
target = (0,18);
type = Stem;
},
{
horizontal = 1;
place = (519,158);
type = Stem;
},
{
horizontal = 1;
origin = (0,10);
target = (0,7);
type = Stem;
},
{
origin = (0,22);
target = (0,21);
type = Stem;
},
{
origin = (0,15);
target = (0,2);
type = Stem;
}
);
layerId = m004;
shapes = (
{
closed = 1;
nodes = (
(709,-26,o),
(958,196,o),
(996,464,cs),
(1033,732,o),
(863,946,o),
(581,958,cs),
(517,960,l),
(567,1100,l),
(1029,1100,l),
(1071,1400,l),
(365,1400,l),
(105,660,l),
(475,660,ls),
(675,660,o),
(711,570,o),
(696,464,cs),
(681,358,o),
(583,274,o),
(479,274,cs),
(373,274,o),
(299,358,o),
(314,464,c),
(14,464,l),
(-23,200,o),
(159,-26,o),
(437,-26,cs)
);
}
);
width = 1160;
},
{
hints = (
{
horizontal = 1;
origin = (0,25);
target = (0,18);
type = Stem;
},
{
horizontal = 1;
origin = (0,11);
target = (0,6);
type = Stem;
},
{
horizontal = 1;
origin = (0,10);
target = (0,7);
type = Stem;
},
{
origin = (0,22);
target = (0,21);
type = Stem;
},
{
origin = (0,15);
target = (0,2);
type = Stem;
}
);
layerId = "79A30733-E9D0-406C-A133-0F4AF5F1D98D";
shapes = (
{
closed = 1;
nodes = (
(690,-26,o),
(927,182,o),
(962,435,cs),
(999,702,o),
(829,893,o),
(544,898,cs),
(392,899,l),
(509,1244,l),
(1043,1244,l),
(1064,1400,l),
(404,1400,l),
(178,743,l),
(521,743,ls),
(727,743,o),
(830,604,o),
(806,435,cs),
(782,267,o),
(626,130,o),
(458,130,cs),
(288,130,o),
(171,267,o),
(195,435,c),
(39,435,l),
(4,183,o),
(178,-26,o),
(436,-26,cs)
);
}
);
width = 1160;
},
{
hints = (
{
horizontal = 1;
origin = (0,25);
target = (0,18);
type = Stem;
},
{
horizontal = 1;
origin = (0,11);
target = (0,6);
type = Stem;
},
{
horizontal = 1;
origin = (0,10);
target = (0,7);
type = Stem;
},
{
origin = (0,22);
target = (0,21);
type = Stem;
},
{
origin = (0,15);
target = (0,2);
type = Stem;
}
);
layerId = "6E59A8CF-B173-4F95-974A-A2EBEECFA9BB";
shapes = (
{
closed = 1;
nodes = (
(834,-26,o),
(1042,182,o),
(1042,435,cs),
(1042,702,o),
(844,893,o),
(559,898,cs),
(406,899,l),
(474,1244,l),
(1008,1244,l),
(1008,1400,l),
(348,1400,l),
(214,743,l),
(557,743,ls),
(763,743,o),
(886,604,o),
(886,435,cs),
(886,267,o),
(748,130,o),
(580,130,cs),
(411,130,o),
(274,267,o),
(274,435,c),
(118,435,l),
(118,183,o),
(322,-26,o),
(580,-26,cs)
);
}
);
width = 1160;
}
);
unicode = 53;
}
{
glyphname = six;
kernLeft = six;
kernRight = six;
layers = (
{
hints = (
{
horizontal = 1;
origin = (0,14);
target = (1,11);
type = Stem;
},
{
horizontal = 1;
origin = (0,7);
target = down;
type = TopGhost;
},
{
origin = (0,11);
target = (1,2);
type = Stem;
},
{
origin = (1,8);
target = (0,2);
type = Stem;
}
);
layerId = "10BC12B3-5274-42E3-B5BC-F74F362F0DF4";
shapes = (
{
closed = 1;
nodes = (
(856,-26,o),
(1080,200,o),
(1080,474,cs),
(1080,730,o),
(890,942,o),
(636,972,c),
(884,1400,l),
(536,1400,l),
(146,724,ls),
(100,646,o),
(80,560,o),
(80,474,cs),
(80,198,o),
(306,-26,o),
(578,-26,cs)
);
},
{
closed = 1;
nodes = (
(476,274,o),
(380,358,o),
(380,472,cs),
(380,576,o),
(460,674,o),
(580,674,cs),
(694,674,o),
(780,582,o),
(780,472,cs),
(780,372,o),
(694,274,o),
(578,274,cs)
);
}
);
width = 1160;
},
{
hints = (
{
horizontal = 1;
origin = (0,14);
target = (1,11);
type = Stem;
},
{
horizontal = 1;
place = (864,61);
type = Stem;
},
{
horizontal = 1;
origin = (0,7);
target = down;
type = TopGhost;
},
{
origin = (0,11);
target = (1,2);
type = Stem;
},
{
origin = (1,8);
target = (0,2);
type = Stem;
}
);
layerId = "9AF1F7D9-E035-453E-B2A8-46DE370997D0";
shapes = (
{
closed = 1;
nodes = (
(841,-26,o),
(1055,188,o),
(1055,450,cs),
(1055,820,o),
(649,1044,o),
(337,858,c),
(649,1400,l),
(579,1400,l),
(179,704,l),
(131,610,o),
(105,560,o),
(105,450,cs),
(105,188,o),
(319,-26,o),
(579,-26,cs)
);
},
{
closed = 1;
nodes = (
(357,34,o),
(165,216,o),
(165,452,cs),
(165,672,o),
(345,864,o),
(581,864,cs),
(809,864,o),
(995,680,o),
(995,452,cs),
(995,232,o),
(821,34,o),
(579,34,cs)
);
}
);
width = 1160;
},
{
hints = (
{
horizontal = 1;
origin = (0,14);
target = (1,11);
type = Stem;
},
{
horizontal = 1;
place = (723,-80);
type = Stem;
},
{
horizontal = 1;
origin = (0,7);
target = down;
type = TopGhost;
},
{
origin = (0,11);
target = (1,2);
type = Stem;
},
{
origin = (1,8);
target = (0,2);
type = Stem;
}
);
layerId = m003;
shapes = (
{
closed = 1;
nodes = (
(697,-26,o),
(941,188,o),
(978,450,cs),
(1030,820,o),
(655,1044,o),
(317,858,c),
(705,1400,l),
(635,1400,l),
(137,704,l),
(76,610,o),
(43,560,o),
(28,450,cs),
(-9,188,o),
(175,-26,o),
(435,-26,cs)
);
},
{
closed = 1;
nodes = (
(221,34,o),
(55,216,o),
(88,452,cs),
(119,672,o),
(326,864,o),
(562,864,cs),
(790,864,o),
(950,680,o),
(918,452,cs),
(887,232,o),
(685,34,o),
(443,34,cs)
);
}
);
width = 1160;
},
{
hints = (
{
horizontal = 1;
origin = (0,14);
target = (1,11);
type = Stem;
},
{
horizontal = 1;
origin = (0,7);
target = down;
type = TopGhost;
},
{
origin = (0,11);
target = (1,2);
type = Stem;
},
{
origin = (1,8);
target = (0,2);
type = Stem;
}
);
layerId = m004;
shapes = (
{
closed = 1;
nodes = (
(712,-26,o),
(968,200,o),
(1006,474,cs),
(1042,730,o),
(882,942,o),
(632,972,c),
(940,1400,l),
(592,1400,l),
(107,724,ls),
(50,646,o),
(18,560,o),
(6,474,cs),
(-33,198,o),
(162,-26,o),
(434,-26,cs)
);
},
{
closed = 1;
nodes = (
(374,274,o),
(290,358,o),
(306,472,cs),
(320,576,o),
(414,674,o),
(534,674,cs),
(648,674,o),
(721,582,o),
(706,472,cs),
(692,372,o),
(592,274,o),
(476,274,cs)
);
}
);
width = 1160;
},
{
hints = (
{
horizontal = 1;
origin = (0,14);
target = (1,11);
type = Stem;
},
{
horizontal = 1;
place = (423,72);
type = Stem;
},
{
horizontal = 1;
origin = (0,7);
target = down;
type = TopGhost;
},
{
origin = (0,11);
target = (1,2);
type = Stem;
},
{
origin = (1,8);
target = (0,2);
type = Stem;
}
);
layerId = "79A30733-E9D0-406C-A133-0F4AF5F1D98D";
shapes = (
{
closed = 1;
nodes = (
(703,-26,o),
(952,193,o),
(989,460,cs),
(1035,784,o),
(746,1003,o),
(443,904,c),
(799,1400,l),
(618,1400,l),
(125,712,ls),
(66,624,o),
(33,560,o),
(19,460,cs),
(-19,192,o),
(170,-26,o),
(435,-26,cs)
);
},
{
closed = 1;
nodes = (
(282,130,o),
(149,273,o),
(175,460,cs),
(199,634,o),
(361,788,o),
(551,788,cs),
(733,788,o),
(858,641,o),
(833,460,cs),
(809,288,o),
(648,130,o),
(456,130,cs)
);
}
);
width = 1160;
},
{
hints = (
{
horizontal = 1;
origin = (0,14);
target = (1,11);
type = Stem;
},
{
horizontal = 1;
place = (508,157);
type = Stem;
},
{
horizontal = 1;
origin = (0,7);
target = down;
type = TopGhost;
},
{
origin = (0,11);
target = (1,2);
type = Stem;
},
{
origin = (1,8);
target = (0,2);
type = Stem;
}
);
layerId = "6E59A8CF-B173-4F95-974A-A2EBEECFA9BB";
shapes = (
{
closed = 1;
nodes = (
(847,-26,o),
(1065,193,o),
(1065,460,cs),
(1065,784,o),
(745,1003,o),
(457,904,c),
(743,1400,l),
(562,1400,l),
(166,712,ls),
(119,624,o),
(95,560,o),
(95,460,cs),
(95,192,o),
(314,-26,o),
(579,-26,cs)
);
},
{
closed = 1;
nodes = (
(405,130,o),
(251,273,o),
(251,460,cs),
(251,634,o),
(391,788,o),
(581,788,cs),
(763,788,o),
(909,641,o),
(909,460,cs),
(909,288,o),
(770,130,o),
(579,130,cs)
);
}
);
width = 1160;
}
);
unicode = 54;
}
{
glyphname = seven;
kernLeft = seven;
kernRight = seven;
layers = (
{
hints = (
{
horizontal = 1;
origin = (0,6);
target = up;
type = BottomGhost;
},
{
horizontal = 1;
origin = (0,3);
target = (0,4);
type = Stem;
}
);
layerId = "10BC12B3-5274-42E3-B5BC-F74F362F0DF4";
shapes = (
{
closed = 1;
nodes = (
(462,0,l),
(1098,1100,l),
(1098,1400,l),
(62,1400,l),
(62,1100,l),
(750,1100,l),
(116,0,l)
);
}
);
width = 1160;
},
{
hints = (
{
horizontal = 1;
origin = (0,6);
target = up;
type = BottomGhost;
},
{
horizontal = 1;
origin = (0,3);
target = (0,4);
type = Stem;
}
);
layerId = "9AF1F7D9-E035-453E-B2A8-46DE370997D0";
shapes = (
{
closed = 1;
nodes = (
(289,0,l),
(1063,1340,l),
(1063,1400,l),
(97,1400,l),
(97,1340,l),
(993,1340,l),
(221,0,l)
);
}
);
width = 1160;
},
{
hints = (
{
horizontal = 1;
origin = (0,6);
target = up;
type = BottomGhost;
},
{
horizontal = 1;
origin = (0,3);
target = (0,4);
type = Stem;
}
);
layerId = m003;
shapes = (
{
closed = 1;
nodes = (
(148,0,l),
(1111,1340,l),
(1119,1400,l),
(153,1400,l),
(145,1340,l),
(1041,1340,l),
(80,0,l)
);
}
);
width = 1160;
},
{
hints = (
{
horizontal = 1;
origin = (0,6);
target = up;
type = BottomGhost;
},
{
horizontal = 1;
origin = (0,3);
target = (0,4);
type = Stem;
}
);
layerId = m004;
shapes = (
{
closed = 1;
nodes = (
(321,0,l),
(1112,1100,l),
(1154,1400,l),
(118,1400,l),
(76,1100,l),
(764,1100,l),
(-25,0,l)
);
}
);
width = 1160;
},
{
hints = (
{
horizontal = 1;
origin = (0,6);
target = up;
type = BottomGhost;
},
{
horizontal = 1;
origin = (0,3);
target = (0,4);
type = Stem;
}
);
layerId = "79A30733-E9D0-406C-A133-0F4AF5F1D98D";
shapes = (
{
closed = 1;
nodes = (
(217,0,l),
(1111,1244,l),
(1133,1400,l),
(139,1400,l),
(117,1244,l),
(930,1244,l),
(38,0,l)
);
}
);
width = 1160;
},
{
hints = (
{
horizontal = 1;
origin = (0,6);
target = up;
type = BottomGhost;
},
{
horizontal = 1;
origin = (0,3);
target = (0,4);
type = Stem;
}
);
layerId = "6E59A8CF-B173-4F95-974A-A2EBEECFA9BB";
shapes = (
{
closed = 1;
nodes = (
(358,0,l),
(1077,1244,l),
(1077,1400,l),
(83,1400,l),
(83,1244,l),
(896,1244,l),
(179,0,l)
);
}
);
width = 1160;
}
);
unicode = 55;
}
{
glyphname = eight;
kernLeft = eight;
kernRight = eight;
layers = (
{
hints = (
{
horizontal = 1;
origin = (0,23);
target = (1,11);
type = Stem;
},
{
horizontal = 1;
origin = (1,5);
target = (2,11);
type = Stem;
},
{
horizontal = 1;
origin = (0,11);
target = (2,5);
type = Stem;
},
{
origin = (0,20);
target = (1,2);
type = Stem;
},
{
origin = (1,8);
target = (0,2);
type = Stem;
},
{
origin = (0,14);
target = (2,2);
type = Stem;
},
{
origin = (2,8);
target = (0,8);
type = Stem;
}
);
layerId = "10BC12B3-5274-42E3-B5BC-F74F362F0DF4";
shapes = (
{
closed = 1;
nodes = (
(843,-26,o),
(1055,176,o),
(1055,426,cs),
(1055,542,o),
(1009,652,o),
(925,736,c),
(987,810,o),
(1025,902,o),
(1025,1002,cs),
(1025,1236,o),
(825,1426,o),
(579,1426,cs),
(333,1426,o),
(133,1236,o),
(133,1002,cs),
(133,902,o),
(171,810,o),
(233,736,c),
(151,652,o),
(105,542,o),
(105,426,cs),
(105,174,o),
(315,-26,o),
(579,-26,cs)
);
},
{
closed = 1;
nodes = (
(491,274,o),
(419,342,o),
(419,426,cs),
(419,510,o),
(491,578,o),
(579,578,cs),
(667,578,o),
(739,510,o),
(739,426,cs),
(739,342,o),
(667,274,o),
(579,274,cs)
);
},
{
closed = 1;
nodes = (
(507,878,o),
(449,934,o),
(449,1002,cs),
(449,1070,o),
(507,1126,o),
(579,1126,cs),
(651,1126,o),
(709,1070,o),
(709,1002,cs),
(709,934,o),
(651,878,o),
(579,878,cs)
);
}
);
width = 1160;
},
{
hints = (
{
horizontal = 1;
origin = (0,23);
target = (1,11);
type = Stem;
},
{
horizontal = 1;
origin = (1,5);
target = (2,11);
type = Stem;
},
{
horizontal = 1;
origin = (0,11);
target = (2,5);
type = Stem;
},
{
origin = (0,20);
target = (1,2);
type = Stem;
},
{
origin = (1,8);
target = (0,2);
type = Stem;
},
{
origin = (0,14);
target = (2,2);
type = Stem;
},
{
origin = (2,8);
target = (0,8);
type = Stem;
}
);
layerId = "9AF1F7D9-E035-453E-B2A8-46DE370997D0";
shapes = (
{
closed = 1;
nodes = (
(818,-26,o),
(1012,152,o),
(1012,370,cs),
(1012,536,o),
(900,678,o),
(742,738,c),
(876,794,o),
(974,920,o),
(974,1066,cs),
(974,1264,o),
(796,1426,o),
(580,1426,cs),
(364,1426,o),
(186,1264,o),
(186,1066,cs),
(186,920,o),
(284,794,o),
(418,738,c),
(262,678,o),
(148,536,o),
(148,370,cs),
(148,152,o),
(342,-26,o),
(580,-26,cs)
);
},
{
closed = 1;
nodes = (
(380,34,o),
(214,184,o),
(214,370,cs),
(214,556,o),
(380,706,o),
(580,706,cs),
(784,706,o),
(946,556,o),
(946,370,cs),
(946,184,o),
(784,34,o),
(580,34,cs)
);
},
{
closed = 1;
nodes = (
(398,766,o),
(252,900,o),
(252,1066,cs),
(252,1232,o),
(398,1366,o),
(580,1366,cs),
(762,1366,o),
(908,1232,o),
(908,1066,cs),
(908,900,o),
(762,766,o),
(580,766,cs)
);
}
);
width = 1160;
},
{
hints = (
{
horizontal = 1;
origin = (0,23);
target = (1,11);
type = Stem;
},
{
horizontal = 1;
origin = (1,5);
target = (2,11);
type = Stem;
},
{
horizontal = 1;
origin = (0,11);
target = (2,5);
type = Stem;
},
{
origin = (0,20);
target = (1,2);
type = Stem;
},
{
origin = (1,8);
target = (0,2);
type = Stem;
},
{
origin = (0,14);
target = (2,2);
type = Stem;
},
{
origin = (2,8);
target = (0,8);
type = Stem;
}
);
layerId = m003;
shapes = (
{
closed = 1;
nodes = (
(674,-26,o),
(893,152,o),
(923,370,cs),
(947,536,o),
(855,678,o),
(705,738,c),
(847,794,o),
(963,920,o),
(983,1066,cs),
(1011,1264,o),
(856,1426,o),
(640,1426,cs),
(424,1426,o),
(223,1264,o),
(195,1066,cs),
(175,920,o),
(255,794,o),
(381,738,c),
(217,678,o),
(83,536,o),
(59,370,cs),
(29,152,o),
(198,-26,o),
(436,-26,cs)
);
},
{
closed = 1;
nodes = (
(244,34,o),
(99,184,o),
(125,370,cs),
(152,556,o),
(339,706,o),
(539,706,cs),
(743,706,o),
(884,556,o),
(857,370,cs),
(831,184,o),
(648,34,o),
(444,34,cs)
);
},
{
closed = 1;
nodes = (
(365,766,o),
(238,900,o),
(261,1066,cs),
(285,1232,o),
(449,1366,o),
(631,1366,cs),
(813,1366,o),
(941,1232,o),
(917,1066,cs),
(894,900,o),
(729,766,o),
(547,766,cs)
);
}
);
width = 1160;
},
{
hints = (
{
horizontal = 1;
origin = (0,23);
target = (1,11);
type = Stem;
},
{
horizontal = 1;
origin = (1,5);
target = (2,11);
type = Stem;
},
{
horizontal = 1;
origin = (0,11);
target = (2,5);
type = Stem;
},
{
origin = (0,20);
target = (1,2);
type = Stem;
},
{
origin = (1,8);
target = (0,2);
type = Stem;
},
{
origin = (0,14);
target = (2,2);
type = Stem;
},
{
origin = (2,8);
target = (0,8);
type = Stem;
}
);
layerId = m004;
shapes = (
{
closed = 1;
nodes = (
(699,-26,o),
(939,176,o),
(974,426,cs),
(991,542,o),
(960,652,o),
(888,736,c),
(960,810,o),
(1011,902,o),
(1025,1002,cs),
(1058,1236,o),
(885,1426,o),
(639,1426,cs),
(393,1426,o),
(166,1236,o),
(133,1002,cs),
(119,902,o),
(144,810,o),
(196,736,c),
(102,652,o),
(41,542,o),
(24,426,cs),
(-11,174,o),
(171,-26,o),
(435,-26,cs)
);
},
{
closed = 1;
nodes = (
(389,274,o),
(327,342,o),
(338,426,cs),
(350,510,o),
(432,578,o),
(520,578,cs),
(608,578,o),
(670,510,o),
(658,426,cs),
(647,342,o),
(565,274,o),
(477,274,cs)
);
},
{
closed = 1;
nodes = (
(490,878,o),
(440,934,o),
(449,1002,cs),
(459,1070,o),
(525,1126,o),
(597,1126,cs),
(669,1126,o),
(719,1070,o),
(709,1002,cs),
(700,934,o),
(634,878,o),
(562,878,cs)
);
}
);
width = 1160;
},
{
hints = (
{
horizontal = 1;
origin = (0,23);
target = (1,11);
type = Stem;
},
{
horizontal = 1;
origin = (1,5);
target = (2,11);
type = Stem;
},
{
horizontal = 1;
origin = (0,11);
target = (2,5);
type = Stem;
},
{
origin = (0,20);
target = (1,2);
type = Stem;
},
{
origin = (1,8);
target = (0,2);
type = Stem;
},
{
origin = (0,14);
target = (2,2);
type = Stem;
},
{
origin = (2,8);
target = (0,8);
type = Stem;
}
);
layerId = "79A30733-E9D0-406C-A133-0F4AF5F1D98D";
shapes = (
{
closed = 1;
nodes = (
(684,-26,o),
(911,162,o),
(943,392,cs),
(965,538,o),
(897,668,o),
(778,737,c),
(892,800,o),
(982,913,o),
(1000,1040,cs),
(1030,1253,o),
(868,1426,o),
(640,1426,cs),
(412,1426,o),
(200,1253,o),
(170,1040,cs),
(153,913,o),
(211,800,o),
(307,737,c),
(171,668,o),
(66,538,o),
(45,392,cs),
(13,161,o),
(187,-26,o),
(436,-26,cs)
);
},
{
closed = 1;
nodes = (
(302,130,o),
(190,247,o),
(210,392,cs),
(231,538,o),
(376,655,o),
(531,655,cs),
(689,655,o),
(798,538,o),
(777,392,cs),
(757,247,o),
(615,130,o),
(457,130,cs)
);
},
{
closed = 1;
nodes = (
(415,811,o),
(319,914,o),
(336,1040,cs),
(355,1167,o),
(479,1270,o),
(617,1270,cs),
(755,1270,o),
(852,1167,o),
(834,1040,cs),
(816,914,o),
(691,811,o),
(553,811,cs)
);
}
);
width = 1160;
},
{
hints = (
{
horizontal = 1;
origin = (0,23);
target = (1,11);
type = Stem;
},
{
horizontal = 1;
origin = (1,5);
target = (2,11);
type = Stem;
},
{
horizontal = 1;
origin = (0,11);
target = (2,5);
type = Stem;
},
{
origin = (0,20);
target = (1,2);
type = Stem;
},
{
origin = (1,8);
target = (0,2);
type = Stem;
},
{
origin = (0,14);
target = (2,2);
type = Stem;
},
{
origin = (2,8);
target = (0,8);
type = Stem;
}
);
layerId = "6E59A8CF-B173-4F95-974A-A2EBEECFA9BB";
shapes = (
{
closed = 1;
nodes = (
(828,-26,o),
(1029,162,o),
(1029,392,cs),
(1029,538,o),
(944,668,o),
(815,737,c),
(920,800,o),
(994,913,o),
(994,1040,cs),
(994,1253,o),
(808,1426,o),
(580,1426,cs),
(352,1426,o),
(165,1253,o),
(165,1040,cs),
(165,913,o),
(239,800,o),
(344,737,c),
(218,668,o),
(131,538,o),
(131,392,cs),
(131,161,o),
(331,-26,o),
(580,-26,cs)
);
},
{
closed = 1;
nodes = (
(424,130,o),
(296,247,o),
(296,392,cs),
(296,538,o),
(424,655,o),
(580,655,cs),
(737,655,o),
(863,538,o),
(863,392,cs),
(863,247,o),
(737,130,o),
(580,130,cs)
);
},
{
closed = 1;
nodes = (
(442,811,o),
(331,914,o),
(331,1040,cs),
(331,1167,o),
(442,1270,o),
(580,1270,cs),
(718,1270,o),
(828,1167,o),
(828,1040,cs),
(828,914,o),
(718,811,o),
(580,811,cs)
);
}
);
width = 1160;
}
);
unicode = 56;
}
{
glyphname = nine;
kernLeft = nine;
kernRight = nine;
layers = (
{
hints = (
{
horizontal = 1;
origin = (0,14);
target = up;
type = BottomGhost;
},
{
horizontal = 1;
origin = (0,7);
target = (1,5);
type = Stem;
},
{
origin = (0,10);
target = (1,2);
type = Stem;
},
{
origin = (1,8);
target = (0,4);
type = Stem;
}
);
layerId = "10BC12B3-5274-42E3-B5BC-F74F362F0DF4";
shapes = (
{
closed = 1;
nodes = (
(624,0,l),
(1014,676,ls),
(1060,754,o),
(1080,840,o),
(1080,926,cs),
(1080,1202,o),
(854,1426,o),
(582,1426,cs),
(304,1426,o),
(80,1200,o),
(80,926,cs),
(80,670,o),
(270,458,o),
(524,428,c),
(276,0,l)
);
},
{
closed = 1;
nodes = (
(466,726,o),
(380,818,o),
(380,928,cs),
(380,1028,o),
(466,1126,o),
(582,1126,cs),
(684,1126,o),
(780,1042,o),
(780,928,cs),
(780,824,o),
(700,726,o),
(580,726,cs)
);
}
);
width = 1160;
},
{
hints = (
{
horizontal = 1;
origin = (0,14);
target = up;
type = BottomGhost;
},
{
horizontal = 1;
place = (525,57);
type = Stem;
},
{
horizontal = 1;
origin = (0,7);
target = (1,5);
type = Stem;
},
{
origin = (0,10);
target = (1,2);
type = Stem;
},
{
origin = (1,8);
target = (0,4);
type = Stem;
}
);
layerId = "9AF1F7D9-E035-453E-B2A8-46DE370997D0";
shapes = (
{
closed = 1;
nodes = (
(538,0,l),
(958,734,l),
(1004,824,o),
(1030,870,o),
(1030,974,cs),
(1030,1222,o),
(826,1426,o),
(580,1426,cs),
(332,1426,o),
(130,1222,o),
(130,974,cs),
(130,624,o),
(514,412,o),
(810,588,c),
(470,0,l)
);
},
{
closed = 1;
nodes = (
(362,582,o),
(186,756,o),
(186,972,cs),
(186,1182,o),
(350,1368,o),
(580,1368,cs),
(790,1368,o),
(972,1196,o),
(972,972,cs),
(972,764,o),
(802,582,o),
(578,582,cs)
);
}
);
width = 1160;
},
{
hints = (
{
horizontal = 1;
origin = (0,14);
target = up;
type = BottomGhost;
},
{
horizontal = 1;
place = (384,-84);
type = Stem;
},
{
horizontal = 1;
origin = (0,7);
target = (1,5);
type = Stem;
},
{
origin = (0,10);
target = (1,2);
type = Stem;
},
{
origin = (1,8);
target = (0,4);
type = Stem;
}
);
layerId = m003;
shapes = (
{
closed = 1;
nodes = (
(397,0,l),
(921,734,l),
(979,824,o),
(1012,870,o),
(1026,974,cs),
(1061,1222,o),
(886,1426,o),
(640,1426,cs),
(392,1426,o),
(161,1222,o),
(126,974,cs),
(77,624,o),
(431,412,o),
(752,588,c),
(329,0,l)
);
},
{
closed = 1;
nodes = (
(303,582,o),
(152,756,o),
(182,972,cs),
(212,1182,o),
(402,1368,o),
(632,1368,cs),
(842,1368,o),
(1000,1196,o),
(968,972,cs),
(939,764,o),
(743,582,o),
(519,582,cs)
);
}
);
width = 1160;
},
{
hints = (
{
horizontal = 1;
origin = (0,14);
target = up;
type = BottomGhost;
},
{
horizontal = 1;
origin = (0,7);
target = (1,5);
type = Stem;
},
{
origin = (0,10);
target = (1,2);
type = Stem;
},
{
origin = (1,8);
target = (0,4);
type = Stem;
}
);
layerId = m004;
shapes = (
{
closed = 1;
nodes = (
(483,0,l),
(968,676,ls),
(1025,754,o),
(1058,840,o),
(1070,926,cs),
(1108,1202,o),
(914,1426,o),
(642,1426,cs),
(364,1426,o),
(108,1200,o),
(70,926,cs),
(34,670,o),
(194,458,o),
(444,428,c),
(135,0,l)
);
},
{
closed = 1;
nodes = (
(427,726,o),
(354,818,o),
(370,928,cs),
(384,1028,o),
(484,1126,o),
(600,1126,cs),
(702,1126,o),
(786,1042,o),
(770,928,cs),
(755,824,o),
(661,726,o),
(541,726,cs)
);
}
);
width = 1160;
},
{
hints = (
{
horizontal = 1;
origin = (0,14);
target = up;
type = BottomGhost;
},
{
horizontal = 1;
place = (258,70);
type = Stem;
},
{
horizontal = 1;
origin = (0,7);
target = (1,5);
type = Stem;
},
{
origin = (0,10);
target = (1,2);
type = Stem;
},
{
origin = (1,8);
target = (0,4);
type = Stem;
}
);
layerId = "79A30733-E9D0-406C-A133-0F4AF5F1D98D";
shapes = (
{
closed = 1;
nodes = (
(431,0,l),
(940,711,ls),
(997,796,o),
(1030,858,o),
(1044,955,cs),
(1080,1214,o),
(897,1426,o),
(641,1426,cs),
(381,1426,o),
(140,1213,o),
(104,955,cs),
(60,642,o),
(336,430,o),
(629,524,c),
(251,0,l)
);
},
{
closed = 1;
nodes = (
(353,640,o),
(233,781,o),
(257,954,cs),
(281,1120,o),
(435,1271,o),
(619,1271,cs),
(786,1271,o),
(914,1134,o),
(889,954,cs),
(865,788,o),
(710,640,o),
(528,640,cs)
);
}
);
width = 1160;
},
{
hints = (
{
horizontal = 1;
origin = (0,14);
target = up;
type = BottomGhost;
},
{
horizontal = 1;
place = (347,154);
type = Stem;
},
{
horizontal = 1;
origin = (0,7);
target = (1,5);
type = Stem;
},
{
origin = (0,10);
target = (1,2);
type = Stem;
},
{
origin = (1,8);
target = (0,4);
type = Stem;
}
);
layerId = "6E59A8CF-B173-4F95-974A-A2EBEECFA9BB";
shapes = (
{
closed = 1;
nodes = (
(572,0,l),
(980,711,ls),
(1026,796,o),
(1050,858,o),
(1050,955,cs),
(1050,1214,o),
(837,1426,o),
(581,1426,cs),
(321,1426,o),
(110,1213,o),
(110,955,cs),
(110,642,o),
(416,430,o),
(696,524,c),
(392,0,l)
);
},
{
closed = 1;
nodes = (
(404,640,o),
(264,781,o),
(264,954,cs),
(264,1120,o),
(396,1271,o),
(581,1271,cs),
(748,1271,o),
(895,1134,o),
(895,954,cs),
(895,788,o),
(761,640,o),
(579,640,cs)
);
}
);
width = 1160;
}
);
unicode = 57;
}
{
glyphname = colon;
kernLeft = colon;
kernRight = colon;
layers = (
{
hints = (
{
horizontal = 1;
origin = (1,11);
target = (1,5);
type = Stem;
},
{
horizontal = 1;
origin = (0,5);
target = (0,11);
type = Stem;
},
{
origin = (1,8);
target = (1,2);
type = Stem;
}
);
layerId = "10BC12B3-5274-42E3-B5BC-F74F362F0DF4";
shapes = (
{
closed = 1;
nodes = (
(292,700,o),
(360,766,o),
(360,850,cs),
(360,932,o),
(292,1000,o),
(210,1000,cs),
(126,1000,o),
(60,932,o),
(60,850,cs),
(60,766,o),
(126,700,o),
(210,700,cs)
);
},
{
closed = 1;
nodes = (
(292,-26,o),
(360,40,o),
(360,124,cs),
(360,206,o),
(292,274,o),
(210,274,cs),
(126,274,o),
(60,206,o),
(60,124,cs),
(60,40,o),
(126,-26,o),
(210,-26,cs)
);
}
);
width = 420;
},
{
hints = (
{
horizontal = 1;
origin = (1,11);
target = (1,5);
type = Stem;
},
{
horizontal = 1;
origin = (0,5);
target = (0,11);
type = Stem;
},
{
origin = (1,8);
target = (1,2);
type = Stem;
}
);
layerId = "9AF1F7D9-E035-453E-B2A8-46DE370997D0";
shapes = (
{
closed = 1;
nodes = (
(205,910,o),
(225,930,o),
(225,956,cs),
(225,980,o),
(205,1000,o),
(179,1000,cs),
(155,1000,o),
(135,980,o),
(135,956,cs),
(135,930,o),
(155,910,o),
(179,910,cs)
);
},
{
closed = 1;
nodes = (
(205,-26,o),
(225,-6,o),
(225,20,cs),
(225,44,o),
(205,64,o),
(179,64,cs),
(155,64,o),
(135,44,o),
(135,20,cs),
(135,-6,o),
(155,-26,o),
(179,-26,cs)
);
}
);
width = 360;
},
{
hints = (
{
horizontal = 1;
origin = (1,11);
target = (1,5);
type = Stem;
},
{
horizontal = 1;
origin = (0,5);
target = (0,11);
type = Stem;
},
{
origin = (1,8);
target = (1,2);
type = Stem;
}
);
layerId = m003;
shapes = (
{
closed = 1;
nodes = (
(192,910,o),
(215,930,o),
(219,956,cs),
(222,980,o),
(205,1000,o),
(179,1000,cs),
(155,1000,o),
(132,980,o),
(129,956,cs),
(125,930,o),
(142,910,o),
(166,910,cs)
);
},
{
closed = 1;
nodes = (
(61,-26,o),
(84,-6,o),
(87,20,cs),
(91,44,o),
(73,64,o),
(47,64,cs),
(23,64,o),
(1,44,o),
(-3,20,cs),
(-6,-6,o),
(11,-26,o),
(35,-26,cs)
);
}
);
width = 360;
},
{
hints = (
{
horizontal = 1;
origin = (1,11);
target = (1,5);
type = Stem;
},
{
horizontal = 1;
origin = (0,5);
target = (0,11);
type = Stem;
},
{
origin = (1,8);
target = (1,2);
type = Stem;
}
);
layerId = m004;
shapes = (
{
closed = 1;
nodes = (
(250,700,o),
(327,766,o),
(339,850,cs),
(350,932,o),
(292,1000,o),
(210,1000,cs),
(126,1000,o),
(50,932,o),
(39,850,cs),
(27,766,o),
(84,700,o),
(168,700,cs)
);
},
{
closed = 1;
nodes = (
(148,-26,o),
(225,40,o),
(237,124,cs),
(248,206,o),
(190,274,o),
(108,274,cs),
(24,274,o),
(-52,206,o),
(-63,124,cs),
(-75,40,o),
(-18,-26,o),
(66,-26,cs)
);
}
);
width = 420;
},
{
hints = (
{
horizontal = 1;
origin = (1,11);
target = (1,5);
type = Stem;
},
{
horizontal = 1;
origin = (0,5);
target = (0,11);
type = Stem;
},
{
origin = (1,8);
target = (1,2);
type = Stem;
}
);
layerId = "79A30733-E9D0-406C-A133-0F4AF5F1D98D";
shapes = (
{
closed = 1;
nodes = (
(215,826,o),
(260,864,o),
(267,914,cs),
(273,961,o),
(240,1000,o),
(191,1000,cs),
(143,1000,o),
(99,961,o),
(93,914,cs),
(86,864,o),
(119,826,o),
(167,826,cs)
);
},
{
closed = 1;
nodes = (
(96,-26,o),
(140,12,o),
(147,62,cs),
(154,109,o),
(120,148,o),
(71,148,cs),
(23,148,o),
(-20,109,o),
(-27,62,cs),
(-34,12,o),
(-1,-26,o),
(47,-26,cs)
);
}
);
width = 384;
},
{
hints = (
{
horizontal = 1;
origin = (1,11);
target = (1,5);
type = Stem;
},
{
horizontal = 1;
origin = (0,5);
target = (0,11);
type = Stem;
},
{
origin = (1,8);
target = (1,2);
type = Stem;
}
);
layerId = "6E59A8CF-B173-4F95-974A-A2EBEECFA9BB";
shapes = (
{
closed = 1;
nodes = (
(240,826,o),
(279,864,o),
(279,914,cs),
(279,961,o),
(240,1000,o),
(191,1000,cs),
(143,1000,o),
(105,961,o),
(105,914,cs),
(105,864,o),
(143,826,o),
(191,826,cs)
);
},
{
closed = 1;
nodes = (
(240,-26,o),
(279,12,o),
(279,62,cs),
(279,109,o),
(240,148,o),
(191,148,cs),
(143,148,o),
(105,109,o),
(105,62,cs),
(105,12,o),
(143,-26,o),
(191,-26,cs)
);
}
);
width = 384;
}
);
unicode = 58;
}
{
glyphname = semicolon;
kernLeft = colon;
kernRight = colon;
layers = (
{
hints = (
{
horizontal = 1;
origin = (0,3);
target = (0,2);
type = Stem;
},
{
horizontal = 1;
origin = (1,5);
target = (1,11);
type = Stem;
},
{
origin = (0,2);
target = (0,1);
type = Stem;
}
);
layerId = "10BC12B3-5274-42E3-B5BC-F74F362F0DF4";
shapes = (
{
closed = 1;
nodes = (
(229,-112,l),
(391,226,l),
(91,226,l),
(29,-112,l)
);
},
{
closed = 1;
nodes = (
(323,700,o),
(391,766,o),
(391,850,cs),
(391,932,o),
(323,1000,o),
(241,1000,cs),
(157,1000,o),
(91,932,o),
(91,850,cs),
(91,766,o),
(157,700,o),
(241,700,cs)
);
}
);
width = 420;
},
{
hints = (
{
horizontal = 1;
origin = (1,5);
target = (1,11);
type = Stem;
},
{
origin = (1,8);
target = (1,2);
type = Stem;
}
);
layerId = "9AF1F7D9-E035-453E-B2A8-46DE370997D0";
shapes = (
{
closed = 1;
nodes = (
(153,-112,l),
(235,226,l),
(175,226,l),
(113,-112,l)
);
},
{
closed = 1;
nodes = (
(227,910,o),
(247,930,o),
(247,954,cs),
(247,980,o),
(227,1000,o),
(203,1000,cs),
(177,1000,o),
(157,980,o),
(157,954,cs),
(157,930,o),
(177,910,o),
(203,910,cs)
);
}
);
width = 360;
},
{
hints = (
{
horizontal = 1;
origin = (1,5);
target = (1,11);
type = Stem;
},
{
origin = (1,8);
target = (1,2);
type = Stem;
}
);
layerId = m003;
shapes = (
{
closed = 1;
nodes = (
(-3,-112,l),
(126,226,l),
(66,226,l),
(-43,-112,l)
);
},
{
closed = 1;
nodes = (
(214,910,o),
(237,930,o),
(241,954,cs),
(244,980,o),
(227,1000,o),
(203,1000,cs),
(177,1000,o),
(154,980,o),
(151,954,cs),
(147,930,o),
(164,910,o),
(190,910,cs)
);
}
);
width = 360;
},
{
hints = (
{
horizontal = 1;
origin = (0,3);
target = (0,2);
type = Stem;
},
{
horizontal = 1;
origin = (1,5);
target = (1,11);
type = Stem;
},
{
origin = (0,2);
target = (0,1);
type = Stem;
}
);
layerId = m004;
shapes = (
{
closed = 1;
nodes = (
(73,-112,l),
(282,226,l),
(-18,226,l),
(-127,-112,l)
);
},
{
closed = 1;
nodes = (
(281,700,o),
(358,766,o),
(370,850,cs),
(381,932,o),
(323,1000,o),
(241,1000,cs),
(157,1000,o),
(81,932,o),
(70,850,cs),
(58,766,o),
(115,700,o),
(199,700,cs)
);
}
);
width = 420;
},
{
hints = (
{
horizontal = 1;
origin = (1,5);
target = (1,11);
type = Stem;
},
{
origin = (1,8);
target = (1,2);
type = Stem;
}
);
layerId = "79A30733-E9D0-406C-A133-0F4AF5F1D98D";
shapes = (
{
closed = 1;
nodes = (
(27,-112,l),
(188,226,l),
(32,226,l),
(-77,-112,l)
);
},
{
closed = 1;
nodes = (
(241,826,o),
(285,864,o),
(293,912,cs),
(299,961,o),
(265,1000,o),
(218,1000,cs),
(169,1000,o),
(125,961,o),
(119,912,cs),
(111,864,o),
(144,826,o),
(194,826,cs)
);
}
);
width = 384;
},
{
hints = (
{
horizontal = 1;
origin = (1,5);
target = (1,11);
type = Stem;
},
{
origin = (1,8);
target = (1,2);
type = Stem;
}
);
layerId = "6E59A8CF-B173-4F95-974A-A2EBEECFA9BB";
shapes = (
{
closed = 1;
nodes = (
(183,-112,l),
(297,226,l),
(141,226,l),
(79,-112,l)
);
},
{
closed = 1;
nodes = (
(265,826,o),
(305,864,o),
(305,912,cs),
(305,961,o),
(265,1000,o),
(218,1000,cs),
(169,1000,o),
(131,961,o),
(131,912,cs),
(131,864,o),
(169,826,o),
(218,826,cs)
);
}
);
width = 384;
}
);
unicode = 59;
}
{
glyphname = less;
kernLeft = less;
kernRight = less;
layers = (
{
layerId = "10BC12B3-5274-42E3-B5BC-F74F362F0DF4";
shapes = (
{
closed = 1;
nodes = (
(1080,376,l),
(294,600,l),
(1080,824,l),
(1080,1136,l),
(80,850,l),
(80,348,l),
(1080,64,l)
);
}
);
width = 1160;
},
{
hints = (
{
origin = (0,5);
target = (0,1);
type = Stem;
}
);
layerId = "9AF1F7D9-E035-453E-B2A8-46DE370997D0";
shapes = (
{
closed = 1;
nodes = (
(1080,330,l),
(134,600,l),
(1080,868,l),
(1080,932,l),
(80,646,l),
(80,552,l),
(1080,268,l)
);
}
);
width = 1160;
},
{
hints = (
{
origin = (0,5);
target = (0,1);
type = Stem;
}
);
layerId = m003;
shapes = (
{
closed = 1;
nodes = (
(986,330,l),
(78,600,l),
(1061,868,l),
(1070,932,l),
(30,646,l),
(17,552,l),
(977,268,l)
);
}
);
width = 1160;
},
{
layerId = m004;
shapes = (
{
closed = 1;
nodes = (
(992,376,l),
(238,600,l),
(1055,824,l),
(1099,1136,l),
(59,850,l),
(-12,348,l),
(948,64,l)
);
}
);
width = 1160;
},
{
hints = (
{
origin = (0,5);
target = (0,1);
type = Stem;
}
);
layerId = "79A30733-E9D0-406C-A133-0F4AF5F1D98D";
shapes = (
{
closed = 1;
nodes = (
(988,348,l),
(142,600,l),
(1059,850,l),
(1082,1014,l),
(42,728,l),
(5,470,l),
(965,186,l)
);
}
);
width = 1160;
},
{
hints = (
{
origin = (0,5);
target = (0,1);
type = Stem;
}
);
layerId = "6E59A8CF-B173-4F95-974A-A2EBEECFA9BB";
shapes = (
{
closed = 1;
nodes = (
(1080,348,l),
(198,600,l),
(1080,850,l),
(1080,1014,l),
(80,728,l),
(80,470,l),
(1080,186,l)
);
}
);
width = 1160;
}
);
unicode = 60;
}
{
glyphname = equal;
kernLeft = equal;
kernRight = equal;
layers = (
{
hints = (
{
horizontal = 1;
origin = (0,3);
target = (0,2);
type = Stem;
},
{
horizontal = 1;
origin = (1,3);
target = (1,2);
type = Stem;
}
);
layerId = "10BC12B3-5274-42E3-B5BC-F74F362F0DF4";
shapes = (
{
closed = 1;
nodes = (
(1080,228,l),
(1080,528,l),
(80,528,l),
(80,228,l)
);
},
{
closed = 1;
nodes = (
(1080,672,l),
(1080,972,l),
(80,972,l),
(80,672,l)
);
}
);
width = 1160;
},
{
hints = (
{
horizontal = 1;
origin = (0,3);
target = (0,2);
type = Stem;
},
{
horizontal = 1;
origin = (1,3);
target = (1,2);
type = Stem;
}
);
layerId = "9AF1F7D9-E035-453E-B2A8-46DE370997D0";
shapes = (
{
closed = 1;
nodes = (
(1080,378,l),
(1080,438,l),
(80,438,l),
(80,378,l)
);
},
{
closed = 1;
nodes = (
(1080,762,l),
(1080,822,l),
(80,822,l),
(80,762,l)
);
}
);
width = 1160;
},
{
hints = (
{
horizontal = 1;
origin = (0,3);
target = (0,2);
type = Stem;
},
{
horizontal = 1;
origin = (1,3);
target = (1,2);
type = Stem;
}
);
layerId = m003;
shapes = (
{
closed = 1;
nodes = (
(993,378,l),
(1001,438,l),
(1,438,l),
(-7,378,l)
);
},
{
closed = 1;
nodes = (
(1047,762,l),
(1055,822,l),
(55,822,l),
(47,762,l)
);
}
);
width = 1160;
},
{
hints = (
{
horizontal = 1;
origin = (0,3);
target = (0,2);
type = Stem;
},
{
horizontal = 1;
origin = (1,3);
target = (1,2);
type = Stem;
}
);
layerId = m004;
shapes = (
{
closed = 1;
nodes = (
(972,228,l),
(1014,528,l),
(14,528,l),
(-28,228,l)
);
},
{
closed = 1;
nodes = (
(1034,672,l),
(1076,972,l),
(76,972,l),
(34,672,l)
);
}
);
width = 1160;
},
{
hints = (
{
horizontal = 1;
origin = (0,3);
target = (0,2);
type = Stem;
},
{
horizontal = 1;
origin = (1,3);
target = (1,2);
type = Stem;
}
);
layerId = "79A30733-E9D0-406C-A133-0F4AF5F1D98D";
shapes = (
{
closed = 1;
nodes = (
(985,318,l),
(1006,474,l),
(6,474,l),
(-15,318,l)
);
},
{
closed = 1;
nodes = (
(1042,726,l),
(1063,882,l),
(63,882,l),
(42,726,l)
);
}
);
width = 1160;
},
{
hints = (
{
horizontal = 1;
origin = (0,3);
target = (0,2);
type = Stem;
},
{
horizontal = 1;
origin = (1,3);
target = (1,2);
type = Stem;
}
);
layerId = "6E59A8CF-B173-4F95-974A-A2EBEECFA9BB";
shapes = (
{
closed = 1;
nodes = (
(1080,318,l),
(1080,474,l),
(80,474,l),
(80,318,l)
);
},
{
closed = 1;
nodes = (
(1080,726,l),
(1080,882,l),
(80,882,l),
(80,726,l)
);
}
);
width = 1160;
}
);
unicode = 61;
}
{
glyphname = greater;
kernLeft = greater;
kernRight = greater;
layers = (
{
layerId = "10BC12B3-5274-42E3-B5BC-F74F362F0DF4";
shapes = (
{
closed = 1;
nodes = (
(1080,348,l),
(1080,850,l),
(80,1124,l),
(80,812,l),
(866,600,l),
(80,388,l),
(80,76,l)
);
}
);
width = 1160;
},
{
hints = (
{
origin = (0,4);
target = (0,0);
type = Stem;
}
);
layerId = "9AF1F7D9-E035-453E-B2A8-46DE370997D0";
shapes = (
{
closed = 1;
nodes = (
(1080,552,l),
(1080,646,l),
(80,932,l),
(80,868,l),
(1026,600,l),
(80,330,l),
(80,268,l)
);
}
);
width = 1160;
},
{
hints = (
{
origin = (0,4);
target = (0,0);
type = Stem;
}
);
layerId = m003;
shapes = (
{
closed = 1;
nodes = (
(1017,552,l),
(1030,646,l),
(70,932,l),
(61,868,l),
(970,600,l),
(-14,330,l),
(-23,268,l)
);
}
);
width = 1160;
},
{
layerId = m004;
shapes = (
{
closed = 1;
nodes = (
(988,348,l),
(1059,850,l),
(97,1124,l),
(54,812,l),
(810,600,l),
(-6,388,l),
(-50,76,l)
);
}
);
width = 1160;
},
{
hints = (
{
origin = (0,4);
target = (0,0);
type = Stem;
}
);
layerId = "79A30733-E9D0-406C-A133-0F4AF5F1D98D";
shapes = (
{
closed = 1;
nodes = (
(1005,470,l),
(1042,728,l),
(81,1009,l),
(58,846,l),
(906,600,l),
(-11,353,l),
(-34,191,l)
);
}
);
width = 1160;
},
{
hints = (
{
origin = (0,4);
target = (0,0);
type = Stem;
}
);
layerId = "6E59A8CF-B173-4F95-974A-A2EBEECFA9BB";
shapes = (
{
closed = 1;
nodes = (
(1080,470,l),
(1080,728,l),
(80,1009,l),
(80,846,l),
(962,600,l),
(80,353,l),
(80,191,l)
);
}
);
width = 1160;
}
);
unicode = 62;
}
{
glyphname = question;
kernLeft = question;
kernRight = question;
layers = (
{
hints = (
{
horizontal = 1;
origin = (1,11);
target = (1,5);
type = Stem;
},
{
horizontal = 1;
origin = (0,9);
target = (0,16);
type = Stem;
},
{
origin = (0,12);
target = (0,13);
type = Stem;
},
{
origin = (0,25);
target = (0,0);
type = Stem;
},
{
origin = (0,19);
target = (0,6);
type = Stem;
},
{
origin = (1,8);
target = (1,2);
type = Stem;
}
);
layerId = "10BC12B3-5274-42E3-B5BC-F74F362F0DF4";
shapes = (
{
closed = 1;
nodes = (
(676,400,l),
(676,451,o),
(702,495,o),
(746,518,cs),
(900,600,o),
(994,764,o),
(994,946,cs),
(994,1210,o),
(778,1426,o),
(512,1426,cs),
(246,1426,o),
(30,1210,o),
(30,946,c),
(330,946,l),
(330,1046,o),
(412,1126,o),
(512,1126,cs),
(612,1126,o),
(694,1046,o),
(694,946,cs),
(694,874,o),
(660,812,o),
(604,782,cs),
(462,705,o),
(376,561,o),
(376,400,c)
);
},
{
closed = 1;
nodes = (
(624,-26,o),
(690,40,o),
(690,126,cs),
(690,208,o),
(624,274,o),
(542,274,cs),
(458,274,o),
(392,208,o),
(392,126,cs),
(392,40,o),
(458,-26,o),
(542,-26,cs)
);
}
);
width = 1024;
},
{
hints = (
{
horizontal = 1;
origin = (1,11);
target = (1,5);
type = Stem;
},
{
horizontal = 1;
origin = (0,16);
target = (0,9);
type = Stem;
},
{
origin = (0,12);
target = (0,13);
type = Stem;
},
{
origin = (0,25);
target = (0,0);
type = Stem;
},
{
origin = (0,19);
target = (0,6);
type = Stem;
},
{
origin = (1,8);
target = (1,2);
type = Stem;
}
);
layerId = "9AF1F7D9-E035-453E-B2A8-46DE370997D0";
shapes = (
{
closed = 1;
nodes = (
(434,522,l),
(434,617,o),
(484,701,o),
(568,746,cs),
(682,808,o),
(752,930,o),
(752,1066,cs),
(752,1266,o),
(590,1428,o),
(390,1428,cs),
(192,1428,o),
(30,1266,o),
(30,1066,c),
(90,1066,l),
(90,1234,o),
(224,1368,o),
(390,1368,cs),
(556,1368,o),
(692,1234,o),
(692,1066,cs),
(692,952,o),
(634,850,o),
(540,800,cs),
(436,743,o),
(374,639,o),
(374,522,c)
);
},
{
closed = 1;
nodes = (
(416,-26,o),
(436,-4,o),
(436,20,cs),
(436,44,o),
(416,64,o),
(390,64,cs),
(366,64,o),
(346,44,o),
(346,20,cs),
(346,-4,o),
(366,-26,o),
(390,-26,cs)
);
}
);
width = 782;
},
{
hints = (
{
horizontal = 1;
origin = (1,11);
target = (1,5);
type = Stem;
},
{
horizontal = 1;
origin = (0,16);
target = (0,9);
type = Stem;
},
{
origin = (0,12);
target = (0,13);
type = Stem;
},
{
origin = (0,25);
target = (0,0);
type = Stem;
},
{
origin = (0,19);
target = (0,6);
type = Stem;
},
{
origin = (1,8);
target = (1,2);
type = Stem;
}
);
layerId = m003;
shapes = (
{
closed = 1;
nodes = (
(367,522,l),
(380,617,o),
(442,701,o),
(532,746,cs),
(655,808,o),
(742,930,o),
(761,1066,cs),
(789,1266,o),
(650,1428,o),
(450,1428,cs),
(252,1428,o),
(67,1266,o),
(39,1066,c),
(99,1066,l),
(123,1234,o),
(276,1368,o),
(442,1368,cs),
(608,1368,o),
(725,1234,o),
(701,1066,cs),
(685,952,o),
(613,850,o),
(512,800,cs),
(400,743,o),
(323,639,o),
(307,522,c)
);
},
{
closed = 1;
nodes = (
(272,-26,o),
(295,-4,o),
(298,20,cs),
(302,44,o),
(284,64,o),
(258,64,cs),
(234,64,o),
(212,44,o),
(208,20,cs),
(205,-4,o),
(222,-26,o),
(246,-26,cs)
);
}
);
width = 782;
},
{
hints = (
{
horizontal = 1;
origin = (1,11);
target = (1,5);
type = Stem;
},
{
horizontal = 1;
origin = (0,9);
target = (0,16);
type = Stem;
},
{
origin = (0,12);
target = (0,13);
type = Stem;
},
{
origin = (0,25);
target = (0,0);
type = Stem;
},
{
origin = (0,19);
target = (0,6);
type = Stem;
},
{
origin = (1,8);
target = (1,2);
type = Stem;
}
);
layerId = m004;
shapes = (
{
closed = 1;
nodes = (
(592,400,l),
(599,451,o),
(631,495,o),
(678,518,cs),
(844,600,o),
(961,764,o),
(986,946,cs),
(1024,1210,o),
(838,1426,o),
(572,1426,cs),
(306,1426,o),
(60,1210,o),
(22,946,c),
(322,946,l),
(336,1046,o),
(430,1126,o),
(530,1126,cs),
(630,1126,o),
(700,1046,o),
(686,946,cs),
(676,874,o),
(634,812,o),
(573,782,cs),
(421,705,o),
(314,561,o),
(292,400,c)
);
},
{
closed = 1;
nodes = (
(480,-26,o),
(555,40,o),
(567,126,cs),
(579,208,o),
(522,274,o),
(440,274,cs),
(356,274,o),
(281,208,o),
(269,126,cs),
(257,40,o),
(314,-26,o),
(398,-26,cs)
);
}
);
width = 1024;
},
{
hints = (
{
horizontal = 1;
origin = (1,11);
target = (1,5);
type = Stem;
},
{
horizontal = 1;
origin = (0,16);
target = (0,9);
type = Stem;
},
{
origin = (0,12);
target = (0,13);
type = Stem;
},
{
origin = (0,25);
target = (0,0);
type = Stem;
},
{
origin = (0,19);
target = (0,6);
type = Stem;
},
{
origin = (1,8);
target = (1,2);
type = Stem;
}
);
layerId = "79A30733-E9D0-406C-A133-0F4AF5F1D98D";
shapes = (
{
closed = 1;
nodes = (
(457,473,l),
(468,551,o),
(518,619,o),
(590,655,cs),
(731,725,o),
(830,864,o),
(851,1018,cs),
(883,1244,o),
(725,1427,o),
(499,1427,cs),
(274,1427,o),
(64,1244,o),
(32,1018,c),
(188,1018,l),
(208,1159,o),
(338,1271,o),
(477,1271,cs),
(617,1271,o),
(715,1159,o),
(695,1018,cs),
(681,921,o),
(621,835,o),
(536,793,cs),
(408,728,o),
(319,608,o),
(301,473,c)
);
},
{
closed = 1;
nodes = (
(355,-26,o),
(399,14,o),
(406,62,cs),
(413,110,o),
(379,148,o),
(331,148,cs),
(283,148,o),
(240,110,o),
(232,62,cs),
(226,14,o),
(259,-26,o),
(307,-26,cs)
);
}
);
width = 878.8;
},
{
hints = (
{
horizontal = 1;
origin = (1,11);
target = (1,5);
type = Stem;
},
{
horizontal = 1;
origin = (0,16);
target = (0,9);
type = Stem;
},
{
origin = (0,12);
target = (0,13);
type = Stem;
},
{
origin = (0,25);
target = (0,0);
type = Stem;
},
{
origin = (0,19);
target = (0,6);
type = Stem;
},
{
origin = (1,8);
target = (1,2);
type = Stem;
}
);
layerId = "6E59A8CF-B173-4F95-974A-A2EBEECFA9BB";
shapes = (
{
closed = 1;
nodes = (
(531,473,l),
(531,551,o),
(571,619,o),
(639,655,cs),
(769,725,o),
(849,864,o),
(849,1018,cs),
(849,1244,o),
(665,1427,o),
(439,1427,cs),
(214,1427,o),
(30,1244,o),
(30,1018,c),
(186,1018,l),
(186,1159,o),
(299,1271,o),
(439,1271,cs),
(578,1271,o),
(693,1159,o),
(693,1018,cs),
(693,921,o),
(644,835,o),
(566,793,cs),
(446,728,o),
(375,608,o),
(375,473,c)
);
},
{
closed = 1;
nodes = (
(499,-26,o),
(538,14,o),
(538,62,cs),
(538,110,o),
(499,148,o),
(451,148,cs),
(403,148,o),
(364,110,o),
(364,62,cs),
(364,14,o),
(403,-26,o),
(451,-26,cs)
);
}
);
width = 878.8;
}
);
unicode = 63;
}
{
glyphname = at;
kernLeft = at;
kernRight = at;
layers = (
{
hints = (
{
horizontal = 1;
origin = (0,45);
target = (0,0);
type = Stem;
},
{
horizontal = 1;
origin = (0,27);
target = (1,11);
type = Stem;
},
{
horizontal = 1;
origin = (1,5);
target = (0,21);
type = Stem;
},
{
horizontal = 1;
origin = (0,39);
target = (0,6);
type = Stem;
},
{
horizontal = 1;
origin = (0,33);
target = (0,12);
type = Stem;
},
{
origin = (0,42);
target = (0,3);
type = Stem;
},
{
origin = (0,24);
target = (1,2);
type = Stem;
},
{
origin = (1,8);
target = (0,15);
type = Stem;
},
{
origin = (0,9);
target = (0,36);
type = Stem;
}
);
layerId = "10BC12B3-5274-42E3-B5BC-F74F362F0DF4";
shapes = (
{
closed = 1;
nodes = (
(895,14,l),
(581,14,o),
(330,237,o),
(330,550,cs),
(330,864,o),
(585,1116,o),
(895,1116,cs),
(1203,1116,o),
(1460,865,o),
(1460,550,cs),
(1460,473,o),
(1432,308,o),
(1356,308,cs),
(1317,308,o),
(1299,331,o),
(1299,374,cs),
(1299,877,l),
(1079,927,l),
(1079,909,l),
(1033,934,o),
(939,948,o),
(877,948,cs),
(658,948,o),
(480,770,o),
(480,550,cs),
(480,331,o),
(658,152,o),
(877,152,cs),
(949,152,o),
(1012,171,o),
(1063,205,c),
(1090,99,o),
(1249,8,o),
(1376,8,cs),
(1623,8,o),
(1760,275,o),
(1760,550,cs),
(1760,1025,o),
(1376,1416,o),
(895,1416,cs),
(417,1416,o),
(30,1029,o),
(30,550,cs),
(30,71,o),
(416,-286,o),
(895,-286,c)
);
},
{
closed = 1;
nodes = (
(805,371,o),
(724,452,o),
(724,550,cs),
(724,650,o),
(805,729,o),
(903,729,cs),
(1001,729,o),
(1082,650,o),
(1082,550,cs),
(1082,452,o),
(1001,371,o),
(903,371,cs)
);
}
);
width = 1790;
},
{
hints = (
{
horizontal = 1;
origin = (0,45);
target = (0,0);
type = Stem;
},
{
horizontal = 1;
origin = (0,27);
target = (1,11);
type = Stem;
},
{
horizontal = 1;
origin = (1,5);
target = (0,21);
type = Stem;
},
{
horizontal = 1;
origin = (0,6);
target = (0,39);
type = Stem;
},
{
horizontal = 1;
origin = (0,33);
target = (0,12);
type = Stem;
},
{
origin = (0,42);
target = (0,3);
type = Stem;
},
{
origin = (0,24);
target = (1,2);
type = Stem;
},
{
origin = (0,30);
target = (0,15);
type = Stem;
},
{
origin = (0,9);
target = (0,36);
type = Stem;
},
{
origin = (1,8);
target = (0,15);
type = Stem;
}
);
layerId = "9AF1F7D9-E035-453E-B2A8-46DE370997D0";
shapes = (
{
closed = 1;
nodes = (
(796,-76,l),
(418,-76,o),
(110,173,o),
(110,551,cs),
(110,931,o),
(420,1236,o),
(796,1236,cs),
(1174,1236,o),
(1481,929,o),
(1481,551,cs),
(1481,373,o),
(1417,189,o),
(1276,189,cs),
(1201,189,o),
(1120,250,o),
(1120,325,cs),
(1120,928,l),
(1060,928,l),
(1060,767,l),
(1003,876,o),
(899,948,o),
(759,948,cs),
(540,948,o),
(362,770,o),
(362,551,cs),
(362,331,o),
(540,153,o),
(759,153,cs),
(899,153,o),
(1003,225,o),
(1060,334,c),
(1060,215,o),
(1166,129,o),
(1276,129,cs),
(1443,129,o),
(1541,361,o),
(1541,551,cs),
(1541,960,o),
(1212,1296,o),
(796,1296,cs),
(384,1296,o),
(50,962,o),
(50,551,cs),
(50,141,o),
(385,-136,o),
(796,-136,c)
);
},
{
closed = 1;
nodes = (
(577,213,o),
(422,360,o),
(422,551,cs),
(422,738,o),
(571,888,o),
(759,888,cs),
(962,888,o),
(1053,732,o),
(1053,569,cs),
(1053,395,o),
(947,213,o),
(759,213,cs)
);
}
);
width = 1591;
},
{
hints = (
{
horizontal = 1;
origin = (0,45);
target = (0,0);
type = Stem;
},
{
horizontal = 1;
origin = (0,27);
target = (1,11);
type = Stem;
},
{
horizontal = 1;
origin = (1,5);
target = (0,21);
type = Stem;
},
{
horizontal = 1;
origin = (0,6);
target = (0,39);
type = Stem;
},
{
horizontal = 1;
origin = (0,33);
target = (0,12);
type = Stem;
},
{
origin = (0,42);
target = (0,3);
type = Stem;
},
{
origin = (0,24);
target = (1,2);
type = Stem;
},
{
origin = (0,30);
target = (0,15);
type = Stem;
},
{
origin = (0,9);
target = (0,36);
type = Stem;
},
{
origin = (1,8);
target = (0,15);
type = Stem;
}
);
layerId = m003;
shapes = (
{
closed = 1;
nodes = (
(645,-76,l),
(267,-76,o),
(-6,173,o),
(47,551,cs),
(100,931,o),
(453,1236,o),
(829,1236,cs),
(1207,1236,o),
(1471,929,o),
(1418,551,cs),
(1393,373,o),
(1303,189,o),
(1162,189,cs),
(1087,189,o),
(1015,250,o),
(1025,325,cs),
(1110,928,l),
(1050,928,l),
(1027,767,l),
(986,876,o),
(892,948,o),
(752,948,cs),
(533,948,o),
(330,770,o),
(299,551,cs),
(268,331,o),
(421,153,o),
(640,153,cs),
(780,153,o),
(894,225,o),
(966,334,c),
(950,215,o),
(1044,129,o),
(1154,129,cs),
(1321,129,o),
(1451,361,o),
(1478,551,cs),
(1535,960,o),
(1254,1296,o),
(838,1296,cs),
(426,1296,o),
(45,962,o),
(-13,551,cs),
(-71,141,o),
(225,-136,o),
(636,-136,c)
);
},
{
closed = 1;
nodes = (
(466,213,o),
(332,360,o),
(359,551,cs),
(385,738,o),
(555,888,o),
(743,888,cs),
(946,888,o),
(1015,732,o),
(992,569,cs),
(968,395,o),
(836,213,o),
(648,213,cs)
);
}
);
width = 1591;
},
{
hints = (
{
horizontal = 1;
origin = (0,45);
target = (0,0);
type = Stem;
},
{
horizontal = 1;
origin = (0,27);
target = (1,11);
type = Stem;
},
{
horizontal = 1;
origin = (1,5);
target = (0,21);
type = Stem;
},
{
horizontal = 1;
origin = (0,39);
target = (0,6);
type = Stem;
},
{
horizontal = 1;
origin = (0,33);
target = (0,12);
type = Stem;
},
{
origin = (0,42);
target = (0,3);
type = Stem;
},
{
origin = (0,24);
target = (1,2);
type = Stem;
},
{
origin = (1,8);
target = (0,15);
type = Stem;
},
{
origin = (0,9);
target = (0,36);
type = Stem;
}
);
layerId = m004;
shapes = (
{
closed = 1;
nodes = (
(756,14,l),
(442,14,o),
(223,237,o),
(267,550,cs),
(311,864,o),
(601,1116,o),
(911,1116,cs),
(1219,1116,o),
(1441,865,o),
(1397,550,cs),
(1386,473,o),
(1335,308,o),
(1259,308,cs),
(1220,308,o),
(1205,331,o),
(1211,374,cs),
(1282,877,l),
(1069,927,l),
(1066,909,l),
(1024,934,o),
(932,948,o),
(870,948,cs),
(651,948,o),
(448,770,o),
(417,550,cs),
(386,331,o),
(539,152,o),
(758,152,cs),
(830,152,o),
(895,171,o),
(951,205,c),
(963,99,o),
(1110,8,o),
(1237,8,cs),
(1484,8,o),
(1658,275,o),
(1697,550,cs),
(1764,1025,o),
(1434,1416,o),
(953,1416,cs),
(475,1416,o),
(34,1029,o),
(-33,550,cs),
(-101,71,o),
(235,-286,o),
(714,-286,c)
);
},
{
closed = 1;
nodes = (
(717,371,o),
(647,452,o),
(661,550,cs),
(675,650,o),
(767,729,o),
(865,729,cs),
(963,729,o),
(1033,650,o),
(1019,550,cs),
(1005,452,o),
(913,371,o),
(815,371,cs)
);
}
);
width = 1790;
},
{
hints = (
{
horizontal = 1;
origin = (0,45);
target = (0,0);
type = Stem;
},
{
horizontal = 1;
origin = (0,27);
target = (1,11);
type = Stem;
},
{
horizontal = 1;
origin = (1,5);
target = (0,21);
type = Stem;
},
{
horizontal = 1;
origin = (0,6);
target = (0,39);
type = Stem;
},
{
horizontal = 1;
origin = (0,33);
target = (0,12);
type = Stem;
},
{
origin = (0,42);
target = (0,3);
type = Stem;
},
{
origin = (0,24);
target = (1,2);
type = Stem;
},
{
origin = (0,30);
target = (0,15);
type = Stem;
},
{
origin = (0,9);
target = (0,36);
type = Stem;
},
{
origin = (1,8);
target = (0,15);
type = Stem;
}
);
layerId = "79A30733-E9D0-406C-A133-0F4AF5F1D98D";
shapes = (
{
closed = 1;
nodes = (
(689,-40,l),
(337,-40,o),
(86,199,o),
(135,551,cs),
(184,904,o),
(512,1188,o),
(862,1188,cs),
(1212,1188,o),
(1459,903,o),
(1410,551,cs),
(1390,413,o),
(1316,237,o),
(1201,237,cs),
(1140,237,o),
(1091,282,o),
(1099,345,cs),
(1179,908,l),
(1058,928,l),
(1043,824,l),
(1001,899,o),
(908,948,o),
(799,948,cs),
(580,948,o),
(377,770,o),
(346,551,cs),
(315,331,o),
(468,153,o),
(687,153,cs),
(800,153,o),
(894,203,o),
(960,282,c),
(955,169,o),
(1070,81,o),
(1187,81,cs),
(1386,81,o),
(1534,327,o),
(1566,551,cs),
(1627,986,o),
(1326,1344,o),
(884,1344,cs),
(446,1344,o),
(41,989,o),
(-21,551,cs),
(-83,113,o),
(229,-196,o),
(667,-196,c)
);
},
{
closed = 1;
nodes = (
(566,276,o),
(458,397,o),
(480,551,cs),
(501,703,o),
(640,824,o),
(792,824,cs),
(953,824,o),
(1022,699,o),
(1003,561,cs),
(983,418,o),
(867,276,o),
(715,276,cs)
);
}
);
width = 1670.6;
},
{
hints = (
{
horizontal = 1;
origin = (0,45);
target = (0,0);
type = Stem;
},
{
horizontal = 1;
origin = (0,27);
target = (1,11);
type = Stem;
},
{
horizontal = 1;
origin = (1,5);
target = (0,21);
type = Stem;
},
{
horizontal = 1;
origin = (0,6);
target = (0,39);
type = Stem;
},
{
horizontal = 1;
origin = (0,33);
target = (0,12);
type = Stem;
},
{
origin = (0,42);
target = (0,3);
type = Stem;
},
{
origin = (0,24);
target = (1,2);
type = Stem;
},
{
origin = (0,30);
target = (0,15);
type = Stem;
},
{
origin = (0,9);
target = (0,36);
type = Stem;
},
{
origin = (1,8);
target = (0,15);
type = Stem;
}
);
layerId = "6E59A8CF-B173-4F95-974A-A2EBEECFA9BB";
shapes = (
{
closed = 1;
nodes = (
(836,-40,l),
(483,-40,o),
(198,199,o),
(198,551,cs),
(198,904,o),
(486,1188,o),
(836,1188,cs),
(1186,1188,o),
(1473,903,o),
(1473,551,cs),
(1473,413,o),
(1423,237,o),
(1308,237,cs),
(1247,237,o),
(1192,282,o),
(1192,345,cs),
(1192,908,l),
(1068,928,l),
(1068,824,l),
(1015,899,o),
(915,948,o),
(806,948,cs),
(587,948,o),
(409,770,o),
(409,551,cs),
(409,331,o),
(587,153,o),
(806,153,cs),
(919,153,o),
(1007,203,o),
(1061,282,c),
(1072,169,o),
(1199,81,o),
(1316,81,cs),
(1515,81,o),
(1629,327,o),
(1629,551,cs),
(1629,986,o),
(1278,1344,o),
(836,1344,cs),
(397,1344,o),
(42,989,o),
(42,551,cs),
(42,113,o),
(397,-196,o),
(836,-196,c)
);
},
{
closed = 1;
nodes = (
(668,276,o),
(543,397,o),
(543,551,cs),
(543,703,o),
(665,824,o),
(817,824,cs),
(978,824,o),
(1065,699,o),
(1065,561,cs),
(1065,418,o),
(969,276,o),
(817,276,cs)
);
}
);
width = 1670.6;
}
);
metricLeft = O;
metricRight = O;
unicode = 64;
}
{
glyphname = A;
kernLeft = A;
kernRight = A;
layers = (
{
anchors = (
{
name = bottom;
pos = (667,0);
},
{
name = ogonek;
pos = (1344,0);
},
{
name = top;
pos = (667,1400);
}
);
hints = (
{
horizontal = 1;
origin = (0,0);
target = up;
type = BottomGhost;
},
{
horizontal = 1;
origin = (0,2);
target = (1,2);
type = Stem;
},
{
horizontal = 1;
origin = (0,7);
target = down;
type = TopGhost;
}
);
layerId = "10BC12B3-5274-42E3-B5BC-F74F362F0DF4";
shapes = (
{
closed = 1;
nodes = (
(-10,0,l),
(308,0,l),
(388,220,l),
(946,220,l),
(1026,0,l),
(1344,0,l),
(836,1400,l),
(498,1400,l)
);
},
{
closed = 1;
nodes = (
(666,984,l),
(836,520,l),
(498,520,l)
);
}
);
width = 1334;
},
{
anchors = (
{
name = bottom;
pos = (576,0);
},
{
name = ogonek;
pos = (1132,0);
},
{
name = top;
pos = (576,1400);
}
);
hints = (
{
horizontal = 1;
origin = (0,0);
target = up;
type = BottomGhost;
},
{
horizontal = 1;
origin = (0,2);
target = (1,2);
type = Stem;
},
{
horizontal = 1;
origin = (0,7);
target = (1,0);
type = Stem;
}
);
layerId = "9AF1F7D9-E035-453E-B2A8-46DE370997D0";
shapes = (
{
closed = 1;
nodes = (
(20,0,l),
(84,0,l),
(208,340,l),
(944,340,l),
(1068,0,l),
(1132,0,l),
(622,1400,l),
(530,1400,l)
);
},
{
closed = 1;
nodes = (
(576,1350,l),
(922,400,l),
(230,400,l)
);
}
);
width = 1152;
},
{
anchors = (
{
name = bottom;
pos = (435,0);
},
{
name = ogonek;
pos = (991,0);
},
{
name = top;
pos = (632,1400);
}
);
hints = (
{
horizontal = 1;
origin = (0,0);
target = up;
type = BottomGhost;
},
{
horizontal = 1;
origin = (0,2);
target = (1,2);
type = Stem;
},
{
horizontal = 1;
origin = (0,7);
target = (1,0);
type = Stem;
}
);
layerId = m003;
shapes = (
{
closed = 1;
nodes = (
(-121,0,l),
(-57,0,l),
(115,340,l),
(851,340,l),
(927,0,l),
(991,0,l),
(678,1400,l),
(586,1400,l)
);
},
{
closed = 1;
nodes = (
(625,1350,l),
(838,400,l),
(146,400,l)
);
}
);
width = 1152;
},
{
anchors = (
{
name = bottom;
pos = (526,0);
},
{
name = ogonek;
pos = (1203,0);
},
{
name = top;
pos = (723,1400);
}
);
hints = (
{
horizontal = 1;
origin = (0,0);
target = up;
type = BottomGhost;
},
{
horizontal = 1;
origin = (0,2);
target = (1,2);
type = Stem;
},
{
horizontal = 1;
origin = (0,7);
target = down;
type = TopGhost;
}
);
layerId = m004;
shapes = (
{
closed = 1;
nodes = (
(-151,0,l),
(167,0,l),
(278,220,l),
(836,220,l),
(885,0,l),
(1203,0,l),
(892,1400,l),
(554,1400,l)
);
},
{
closed = 1;
nodes = (
(664,984,l),
(769,520,l),
(431,520,l)
);
}
);
width = 1334;
},
{
anchors = (
{
name = bottom;
pos = (471,0);
},
{
name = ogonek;
pos = (1076,0);
},
{
name = top;
pos = (668,1400);
}
);
hints = (
{
horizontal = 1;
origin = (0,0);
target = up;
type = BottomGhost;
},
{
horizontal = 1;
origin = (0,2);
target = (1,2);
type = Stem;
},
{
horizontal = 1;
origin = (0,7);
target = (1,0);
type = Stem;
}
);
layerId = "79A30733-E9D0-406C-A133-0F4AF5F1D98D";
shapes = (
{
closed = 1;
nodes = (
(-133,0,l),
(33,0,l),
(180,292,l),
(845,292,l),
(910,0,l),
(1076,0,l),
(764,1400,l),
(573,1400,l)
);
},
{
closed = 1;
nodes = (
(641,1204,l),
(810,448,l),
(260,448,l)
);
}
);
width = 1224.8;
},
{
anchors = (
{
name = bottom;
pos = (612,0);
},
{
name = ogonek;
pos = (1217,0);
},
{
name = top;
pos = (612,1400);
}
);
hints = (
{
horizontal = 1;
origin = (0,0);
target = up;
type = BottomGhost;
},
{
horizontal = 1;
origin = (0,2);
target = (1,2);
type = Stem;
},
{
horizontal = 1;
origin = (0,7);
target = (1,0);
type = Stem;
}
);
layerId = "6E59A8CF-B173-4F95-974A-A2EBEECFA9BB";
shapes = (
{
closed = 1;
nodes = (
(8,0,l),
(174,0,l),
(280,292,l),
(945,292,l),
(1051,0,l),
(1217,0,l),
(708,1400,l),
(517,1400,l)
);
},
{
closed = 1;
nodes = (
(612,1204,l),
(888,448,l),
(337,448,l)
);
}
);
width = 1224.8;
}
);
unicode = 65;
}
{
glyphname = B;
kernLeft = H;
kernRight = B;
layers = (
{
anchors = (
{
name = bottom;
pos = (573,0);
},
{
name = center;
pos = (573,700);
},
{
name = top;
pos = (573,1400);
}
);
hints = (
{
horizontal = 1;
place = (0,254);
type = Stem;
},
{
horizontal = 1;
place = (625,250);
type = Stem;
},
{
horizontal = 1;
place = (1400,256);
type = Stem;
},
{
place = (120,300);
type = Stem;
},
{
place = (760,300);
type = Stem;
},
{
place = (860,266);
type = Stem;
}
);
layerId = "10BC12B3-5274-42E3-B5BC-F74F362F0DF4";
shapes = (
{
closed = 1;
nodes = (
(696,0,ls),
(917,0,o),
(1096,179,o),
(1096,400,cs),
(1096,574,o),
(985,723,o),
(829,777,c),
(934,833,o),
(1006,943,o),
(1006,1070,cs),
(1006,1252,o),
(858,1400,o),
(676,1400,cs),
(90,1400,l),
(90,0,l)
);
},
{
closed = 1;
nodes = (
(389,625,l),
(645,625,ls),
(747,625,o),
(830,542,o),
(830,436,cs),
(830,333,o),
(747,250,o),
(645,250,cs),
(389,250,l)
);
},
{
closed = 1;
nodes = (
(389,1150,l),
(596,1150,ls),
(670,1150,o),
(730,1090,o),
(730,1010,cs),
(730,935,o),
(670,875,o),
(596,875,cs),
(389,875,l)
);
}
);
width = 1126;
},
{
anchors = (
{
name = bottom;
pos = (515,0);
},
{
name = center;
pos = (515,700);
},
{
name = top;
pos = (515,1400);
}
);
hints = (
{
horizontal = 1;
place = (0,60);
type = Stem;
},
{
horizontal = 1;
place = (740,60);
type = Stem;
},
{
horizontal = 1;
place = (1340,60);
type = Stem;
},
{
place = (120,60);
type = Stem;
},
{
place = (930,60);
type = Stem;
},
{
place = (852,60);
type = Stem;
}
);
layerId = "9AF1F7D9-E035-453E-B2A8-46DE370997D0";
shapes = (
{
closed = 1;
nodes = (
(570,0,ls),
(791,0,o),
(970,179,o),
(970,400,cs),
(970,572,o),
(862,718,o),
(710,775,c),
(818,829,o),
(892,941,o),
(892,1070,cs),
(892,1252,o),
(744,1400,o),
(562,1400,cs),
(100,1400,l),
(100,0,l)
);
},
{
closed = 1;
nodes = (
(160,740,l),
(570,740,ls),
(753,740,o),
(910,594,o),
(910,400,cs),
(910,205,o),
(752,60,o),
(570,60,cs),
(160,60,l)
);
},
{
closed = 1;
nodes = (
(160,1340,l),
(562,1340,ls),
(712,1340,o),
(832,1219,o),
(832,1070,cs),
(832,918,o),
(709,800,o),
(562,800,cs),
(160,800,l)
);
}
);
width = 1030;
},
{
anchors = (
{
name = bottom;
pos = (374,0);
},
{
name = center;
pos = (473,700);
},
{
name = top;
pos = (571,1400);
}
);
hints = (
{
horizontal = 1;
place = (-141,-81);
type = Stem;
},
{
horizontal = 1;
place = (599,-81);
type = Stem;
},
{
horizontal = 1;
place = (1199,-81);
type = Stem;
},
{
place = (-21,-81);
type = Stem;
},
{
place = (789,-81);
type = Stem;
},
{
place = (711,-81);
type = Stem;
}
);
layerId = m003;
shapes = (
{
closed = 1;
nodes = (
(429,0,ls),
(650,0,o),
(855,179,o),
(886,400,cs),
(910,572,o),
(822,718,o),
(678,775,c),
(794,829,o),
(884,941,o),
(902,1070,cs),
(927,1252,o),
(800,1400,o),
(618,1400,cs),
(156,1400,l),
(-41,0,l)
);
},
{
closed = 1;
nodes = (
(123,740,l),
(533,740,ls),
(716,740,o),
(853,594,o),
(826,400,cs),
(798,205,o),
(620,60,o),
(438,60,cs),
(28,60,l)
);
},
{
closed = 1;
nodes = (
(208,1340,l),
(610,1340,ls),
(760,1340,o),
(863,1219,o),
(842,1070,cs),
(820,918,o),
(681,800,o),
(534,800,cs),
(132,800,l)
);
}
);
width = 1030;
},
{
anchors = (
{
name = bottom;
pos = (432,0);
},
{
name = center;
pos = (531,700);
},
{
name = top;
pos = (629,1400);
}
);
hints = (
{
horizontal = 1;
place = (-141,113);
type = Stem;
},
{
horizontal = 1;
place = (484,109);
type = Stem;
},
{
horizontal = 1;
place = (1259,115);
type = Stem;
},
{
place = (-21,159);
type = Stem;
},
{
place = (619,159);
type = Stem;
},
{
place = (719,125);
type = Stem;
}
);
layerId = m004;
shapes = (
{
closed = 1;
nodes = (
(555,0,ls),
(776,0,o),
(981,179,o),
(1012,400,cs),
(1036,574,o),
(946,723,o),
(798,777,c),
(911,833,o),
(998,943,o),
(1016,1070,cs),
(1041,1252,o),
(914,1400,o),
(732,1400,cs),
(146,1400,l),
(-51,0,l)
);
},
{
closed = 1;
nodes = (
(336,625,l),
(592,625,ls),
(694,625,o),
(766,542,o),
(751,436,cs),
(736,333,o),
(642,250,o),
(540,250,cs),
(284,250,l)
);
},
{
closed = 1;
nodes = (
(410,1150,l),
(617,1150,ls),
(691,1150,o),
(743,1090,o),
(731,1010,cs),
(721,935,o),
(652,875,o),
(578,875,cs),
(371,875,l)
);
}
);
width = 1126;
},
{
anchors = (
{
name = bottom;
pos = (397,0);
},
{
name = center;
pos = (496,700);
},
{
name = top;
pos = (594,1400);
}
);
hints = (
{
horizontal = 1;
place = (-141,-3);
type = Stem;
},
{
horizontal = 1;
place = (553,-4.1);
type = Stem;
},
{
horizontal = 1;
place = (1223,-3);
type = Stem;
},
{
place = (-21,15);
type = Stem;
},
{
place = (761,1);
type = Stem;
},
{
place = (674,15);
type = Stem;
}
);
layerId = "79A30733-E9D0-406C-A133-0F4AF5F1D98D";
shapes = (
{
closed = 1;
nodes = (
(479,0,ls),
(700,0,o),
(905,179,o),
(936,400,cs),
(960,573,o),
(872,720,o),
(726,776,c),
(841,831,o),
(930,942,o),
(948,1070,cs),
(973,1252,o),
(846,1400,o),
(664,1400,cs),
(152,1400,l),
(-45,0,l)
);
},
{
closed = 1;
nodes = (
(208,694,l),
(557,694,ls),
(707,694,o),
(818,573,o),
(796,414,cs),
(773,256,o),
(629,136,o),
(479,136,cs),
(130,136,l)
);
},
{
closed = 1;
nodes = (
(289,1264,l),
(613,1264,ls),
(732,1264,o),
(815,1167,o),
(798,1046,cs),
(780,925,o),
(669,830,o),
(552,830,cs),
(228,830,l)
);
}
);
width = 1068.4;
},
{
anchors = (
{
name = bottom;
pos = (538,0);
},
{
name = center;
pos = (538,700);
},
{
name = top;
pos = (538,1400);
}
);
hints = (
{
horizontal = 1;
place = (0,138);
type = Stem;
},
{
horizontal = 1;
place = (694,136);
type = Stem;
},
{
horizontal = 1;
place = (1364,138);
type = Stem;
},
{
place = (120,156);
type = Stem;
},
{
place = (902,142);
type = Stem;
},
{
place = (815,156);
type = Stem;
}
);
layerId = "6E59A8CF-B173-4F95-974A-A2EBEECFA9BB";
shapes = (
{
closed = 1;
nodes = (
(620,0,ls),
(841,0,o),
(1020,179,o),
(1020,400,cs),
(1020,573,o),
(911,720,o),
(758,776,c),
(864,831,o),
(938,942,o),
(938,1070,cs),
(938,1252,o),
(790,1400,o),
(608,1400,cs),
(96,1400,l),
(96,0,l)
);
},
{
closed = 1;
nodes = (
(252,694,l),
(600,694,ls),
(751,694,o),
(878,573,o),
(878,414,cs),
(878,256,o),
(750,136,o),
(600,136,cs),
(252,136,l)
);
},
{
closed = 1;
nodes = (
(252,1264,l),
(576,1264,ls),
(695,1264,o),
(791,1167,o),
(791,1046,cs),
(791,925,o),
(693,830,o),
(576,830,cs),
(252,830,l)
);
}
);
width = 1068.4;
}
);
metricLeft = H;
unicode = 66;
}
{
glyphname = C;
kernLeft = O;
kernRight = C;
layers = (
{
anchors = (
{
name = bottom;
pos = (718,0);
},
{
name = top;
pos = (718,1400);
}
);
hints = (
{
horizontal = 1;
origin = (0,25);
target = (0,6);
type = Stem;
},
{
horizontal = 1;
origin = (0,19);
target = (0,12);
type = Stem;
},
{
origin = (0,22);
target = (0,9);
type = Stem;
}
);
layerId = "10BC12B3-5274-42E3-B5BC-F74F362F0DF4";
shapes = (
{
closed = 1;
nodes = (
(944,-26,o),
(1142,88,o),
(1268,262,c),
(1000,408,l),
(930,326,o),
(830,274,o),
(718,274,cs),
(504,274,o),
(330,466,o),
(330,700,cs),
(330,936,o),
(504,1126,o),
(718,1126,cs),
(830,1126,o),
(930,1074,o),
(1000,994,c),
(1268,1138,l),
(1142,1312,o),
(944,1426,o),
(718,1426,cs),
(338,1426,o),
(30,1102,o),
(30,700,cs),
(30,300,o),
(338,-26,o),
(718,-26,cs)
);
}
);
width = 1298;
},
{
anchors = (
{
name = bottom;
pos = (738,0);
},
{
name = top;
pos = (738,1400);
}
);
hints = (
{
horizontal = 1;
origin = (0,25);
target = (0,6);
type = Stem;
},
{
horizontal = 1;
origin = (0,19);
target = (0,12);
type = Stem;
},
{
origin = (0,22);
target = (0,9);
type = Stem;
}
);
layerId = "9AF1F7D9-E035-453E-B2A8-46DE370997D0";
shapes = (
{
closed = 1;
nodes = (
(964,-26,o),
(1162,86,o),
(1288,262,c),
(1236,290,l),
(1126,138,o),
(942,34,o),
(738,34,cs),
(392,34,o),
(110,332,o),
(110,700,cs),
(110,1058,o),
(386,1366,o),
(738,1366,cs),
(932,1366,o),
(1122,1266,o),
(1236,1108,c),
(1288,1136,l),
(1162,1312,o),
(964,1426,o),
(738,1426,cs),
(358,1426,o),
(50,1100,o),
(50,700,cs),
(50,298,o),
(358,-26,o),
(738,-26,cs)
);
}
);
width = 1338;
},
{
anchors = (
{
name = bottom;
pos = (597,0);
},
{
name = top;
pos = (794,1400);
}
);
hints = (
{
horizontal = 1;
origin = (0,25);
target = (0,6);
type = Stem;
},
{
horizontal = 1;
origin = (0,19);
target = (0,12);
type = Stem;
},
{
origin = (0,22);
target = (0,9);
type = Stem;
}
);
layerId = m003;
shapes = (
{
closed = 1;
nodes = (
(820,-26,o),
(1034,86,o),
(1184,262,c),
(1136,290,l),
(1005,138,o),
(806,34,o),
(602,34,cs),
(256,34,o),
(16,332,o),
(68,700,cs),
(118,1058,o),
(437,1366,o),
(789,1366,cs),
(983,1366,o),
(1159,1266,o),
(1251,1108,c),
(1307,1136,l),
(1206,1312,o),
(1024,1426,o),
(798,1426,cs),
(418,1426,o),
(64,1100,o),
(8,700,cs),
(-49,298,o),
(214,-26,o),
(594,-26,cs)
);
}
);
width = 1338;
},
{
anchors = (
{
name = bottom;
pos = (577,0);
},
{
name = top;
pos = (774,1400);
}
);
hints = (
{
horizontal = 1;
origin = (0,25);
target = (0,6);
type = Stem;
},
{
horizontal = 1;
origin = (0,19);
target = (0,12);
type = Stem;
},
{
origin = (0,22);
target = (0,9);
type = Stem;
}
);
layerId = m004;
shapes = (
{
closed = 1;
nodes = (
(800,-26,o),
(1014,88,o),
(1164,262,c),
(917,408,l),
(835,326,o),
(728,274,o),
(616,274,cs),
(402,274,o),
(255,466,o),
(288,700,cs),
(321,936,o),
(522,1126,o),
(736,1126,cs),
(848,1126,o),
(940,1074,o),
(999,994,c),
(1287,1138,l),
(1186,1312,o),
(1004,1426,o),
(778,1426,cs),
(398,1426,o),
(44,1102,o),
(-12,700,cs),
(-68,300,o),
(194,-26,o),
(574,-26,cs)
);
}
);
width = 1297;
},
{
anchors = (
{
name = bottom;
pos = (589,0);
},
{
name = top;
pos = (786,1400);
}
);
hints = (
{
horizontal = 1;
origin = (0,25);
target = (0,6);
type = Stem;
},
{
horizontal = 1;
origin = (0,19);
target = (0,12);
type = Stem;
},
{
origin = (0,22);
target = (0,9);
type = Stem;
}
);
layerId = "79A30733-E9D0-406C-A133-0F4AF5F1D98D";
shapes = (
{
closed = 1;
nodes = (
(812,-26,o),
(1026,87,o),
(1176,262,c),
(1048,337,l),
(937,213,o),
(775,130,o),
(608,130,cs),
(314,130,o),
(112,386,o),
(156,700,cs),
(199,1009,o),
(471,1270,o),
(768,1270,cs),
(929,1270,o),
(1071,1189,o),
(1150,1062,c),
(1299,1137,l),
(1198,1312,o),
(1016,1426,o),
(790,1426,cs),
(410,1426,o),
(56,1101,o),
(0,700,cs),
(-57,299,o),
(206,-26,o),
(586,-26,cs)
);
}
);
width = 1321;
},
{
anchors = (
{
name = bottom;
pos = (730,0);
},
{
name = top;
pos = (730,1400);
}
);
hints = (
{
horizontal = 1;
origin = (0,25);
target = (0,6);
type = Stem;
},
{
horizontal = 1;
origin = (0,19);
target = (0,12);
type = Stem;
},
{
origin = (0,22);
target = (0,9);
type = Stem;
}
);
layerId = "6E59A8CF-B173-4F95-974A-A2EBEECFA9BB";
shapes = (
{
closed = 1;
nodes = (
(956,-26,o),
(1154,87,o),
(1280,262,c),
(1142,337,l),
(1048,213,o),
(897,130,o),
(730,130,cs),
(437,130,o),
(198,386,o),
(198,700,cs),
(198,1009,o),
(433,1270,o),
(730,1270,cs),
(891,1270,o),
(1045,1189,o),
(1142,1062,c),
(1280,1137,l),
(1154,1312,o),
(956,1426,o),
(730,1426,cs),
(350,1426,o),
(42,1101,o),
(42,700,cs),
(42,299,o),
(350,-26,o),
(730,-26,cs)
);
}
);
width = 1322;
}
);
metricLeft = O;
metricRight = "=O";
unicode = 67;
}
{
glyphname = D;
kernLeft = H;
kernRight = O;
layers = (
{
anchors = (
{
name = bottom;
pos = (622,0);
},
{
name = center;
pos = (642,700);
},
{
name = hbar;
pos = (304,750);
},
{
name = top;
pos = (622,1400);
}
);
hints = (
{
horizontal = 1;
origin = (0,8);
target = (1,8);
type = Stem;
},
{
horizontal = 1;
origin = (0,7);
target = (1,0);
type = Stem;
},
{
origin = (0,8);
target = (1,8);
type = Stem;
},
{
origin = (1,4);
target = (0,3);
type = Stem;
}
);
layerId = "10BC12B3-5274-42E3-B5BC-F74F362F0DF4";
shapes = (
{
closed = 1;
nodes = (
(554,0,ls),
(940,0,o),
(1254,314,o),
(1254,700,cs),
(1254,1086,o),
(940,1400,o),
(554,1400,cs),
(90,1400,l),
(90,0,l)
);
},
{
closed = 1;
nodes = (
(390,1100,l),
(554,1100,ls),
(772,1100,o),
(954,920,o),
(954,700,cs),
(954,478,o),
(770,300,o),
(554,300,cs),
(390,300,l)
);
}
);
width = 1284;
},
{
anchors = (
{
name = bottom;
pos = (652,0);
},
{
name = center;
pos = (651,700);
},
{
name = hbar;
pos = (284,750);
},
{
name = top;
pos = (632,1400);
}
);
hints = (
{
horizontal = 1;
origin = (0,8);
target = (1,8);
type = Stem;
},
{
horizontal = 1;
origin = (0,7);
target = (1,0);
type = Stem;
},
{
origin = (0,8);
target = (1,8);
type = Stem;
},
{
origin = (1,4);
target = (0,3);
type = Stem;
}
);
layerId = "9AF1F7D9-E035-453E-B2A8-46DE370997D0";
shapes = (
{
closed = 1;
nodes = (
(562,0,ls),
(950,0,o),
(1262,314,o),
(1262,700,cs),
(1262,1086,o),
(950,1400,o),
(562,1400,cs),
(100,1400,l),
(100,0,l)
);
},
{
closed = 1;
nodes = (
(160,1340,l),
(562,1340,ls),
(916,1340,o),
(1202,1054,o),
(1202,700,cs),
(1202,346,o),
(918,60,o),
(562,60,cs),
(160,60,l)
);
}
);
width = 1312;
},
{
anchors = (
{
name = bottom;
pos = (511,0);
},
{
name = center;
pos = (609,700);
},
{
name = hbar;
pos = (249,750);
},
{
name = top;
pos = (688,1400);
}
);
hints = (
{
horizontal = 1;
origin = (0,8);
target = (1,8);
type = Stem;
},
{
horizontal = 1;
origin = (0,7);
target = (1,0);
type = Stem;
},
{
origin = (0,8);
target = (1,8);
type = Stem;
},
{
origin = (1,4);
target = (0,3);
type = Stem;
}
);
layerId = m003;
shapes = (
{
closed = 1;
nodes = (
(421,0,ls),
(809,0,o),
(1166,314,o),
(1220,700,cs),
(1274,1086,o),
(1006,1400,o),
(618,1400,cs),
(156,1400,l),
(-41,0,l)
);
},
{
closed = 1;
nodes = (
(208,1340,l),
(610,1340,ls),
(964,1340,o),
(1210,1054,o),
(1160,700,cs),
(1110,346,o),
(786,60,o),
(430,60,cs),
(28,60,l)
);
}
);
width = 1312;
},
{
anchors = (
{
name = bottom;
pos = (481,0);
},
{
name = center;
pos = (600,700);
},
{
name = hbar;
pos = (269,750);
},
{
name = top;
pos = (678,1400);
}
);
hints = (
{
horizontal = 1;
origin = (0,8);
target = (1,8);
type = Stem;
},
{
horizontal = 1;
origin = (0,7);
target = (1,0);
type = Stem;
},
{
origin = (0,8);
target = (1,8);
type = Stem;
},
{
origin = (1,4);
target = (0,3);
type = Stem;
}
);
layerId = m004;
shapes = (
{
closed = 1;
nodes = (
(413,0,ls),
(799,0,o),
(1158,314,o),
(1212,700,cs),
(1266,1086,o),
(996,1400,o),
(610,1400,cs),
(146,1400,l),
(-51,0,l)
);
},
{
closed = 1;
nodes = (
(404,1100,l),
(568,1100,ls),
(786,1100,o),
(943,920,o),
(912,700,cs),
(881,478,o),
(672,300,o),
(456,300,cs),
(292,300,l)
);
}
);
width = 1284;
},
{
anchors = (
{
name = bottom;
pos = (499,0);
},
{
name = center;
pos = (605,700);
},
{
name = hbar;
pos = (257,750);
},
{
name = top;
pos = (684,1400);
}
);
hints = (
{
horizontal = 1;
origin = (0,8);
target = (1,8);
type = Stem;
},
{
horizontal = 1;
origin = (0,7);
target = (1,0);
type = Stem;
},
{
origin = (0,8);
target = (1,8);
type = Stem;
},
{
origin = (1,4);
target = (0,3);
type = Stem;
}
);
layerId = "79A30733-E9D0-406C-A133-0F4AF5F1D98D";
shapes = (
{
closed = 1;
nodes = (
(418,0,ls),
(805,0,o),
(1163,314,o),
(1217,700,cs),
(1271,1086,o),
(1002,1400,o),
(615,1400,cs),
(152,1400,l),
(-45,0,l)
);
},
{
closed = 1;
nodes = (
(286,1244,l),
(593,1244,ls),
(893,1244,o),
(1103,1000,o),
(1061,700,cs),
(1018,399,o),
(740,156,o),
(440,156,cs),
(134,156,l)
);
}
);
width = 1300.8;
},
{
anchors = (
{
name = bottom;
pos = (640,0);
},
{
name = center;
pos = (647,700);
},
{
name = hbar;
pos = (292,750);
},
{
name = top;
pos = (628,1400);
}
);
hints = (
{
horizontal = 1;
origin = (0,8);
target = (1,8);
type = Stem;
},
{
horizontal = 1;
origin = (0,7);
target = (1,0);
type = Stem;
},
{
origin = (0,8);
target = (1,8);
type = Stem;
},
{
origin = (1,4);
target = (0,3);
type = Stem;
}
);
layerId = "6E59A8CF-B173-4F95-974A-A2EBEECFA9BB";
shapes = (
{
closed = 1;
nodes = (
(559,0,ls),
(946,0,o),
(1259,314,o),
(1259,700,cs),
(1259,1086,o),
(946,1400,o),
(559,1400,cs),
(96,1400,l),
(96,0,l)
);
},
{
closed = 1;
nodes = (
(252,1244,l),
(559,1244,ls),
(858,1244,o),
(1103,1000,o),
(1103,700,cs),
(1103,399,o),
(859,156,o),
(559,156,cs),
(252,156,l)
);
}
);
width = 1300.8;
}
);
metricLeft = H;
metricRight = O;
unicode = 68;
}
{
glyphname = E;
kernLeft = H;
kernRight = E;
layers = (
{
anchors = (
{
name = bottom;
pos = (526,0);
},
{
name = ogonek;
pos = (880,0);
},
{
name = top;
pos = (526,1400);
},
{
name = topleft;
pos = (-10,1400);
}
);
hints = (
{
horizontal = 1;
origin = (0,11);
target = (0,2);
type = Stem;
},
{
horizontal = 1;
origin = (0,3);
target = (0,6);
type = Stem;
},
{
horizontal = 1;
origin = (0,10);
target = (0,7);
type = Stem;
},
{
origin = (0,11);
target = (0,2);
type = Stem;
}
);
layerId = "10BC12B3-5274-42E3-B5BC-F74F362F0DF4";
shapes = (
{
closed = 1;
nodes = (
(972,0,l),
(972,300,l),
(390,300,l),
(390,600,l),
(831,600,l),
(831,900,l),
(390,900,l),
(390,1100,l),
(972,1100,l),
(972,1400,l),
(90,1400,l),
(90,0,l)
);
}
);
width = 1012;
},
{
anchors = (
{
name = bottom;
pos = (506,0);
},
{
name = ogonek;
pos = (803,0);
},
{
name = top;
pos = (506,1400);
},
{
name = topleft;
pos = (0,1400);
}
);
hints = (
{
horizontal = 1;
origin = (0,11);
target = (0,2);
type = Stem;
},
{
horizontal = 1;
origin = (0,3);
target = (0,6);
type = Stem;
},
{
horizontal = 1;
origin = (0,10);
target = (0,7);
type = Stem;
},
{
origin = (0,11);
target = (0,2);
type = Stem;
}
);
layerId = "9AF1F7D9-E035-453E-B2A8-46DE370997D0";
shapes = (
{
closed = 1;
nodes = (
(932,0,l),
(932,60,l),
(160,60,l),
(160,720,l),
(816,720,l),
(816,780,l),
(160,780,l),
(160,1340,l),
(932,1340,l),
(932,1400,l),
(100,1400,l),
(100,0,l)
);
}
);
width = 982;
},
{
anchors = (
{
name = bottom;
pos = (365,0);
},
{
name = ogonek;
pos = (662,0);
},
{
name = top;
pos = (562,1400);
},
{
name = topleft;
pos = (56,1400);
}
);
hints = (
{
horizontal = 1;
origin = (0,11);
target = (0,2);
type = Stem;
},
{
horizontal = 1;
origin = (0,3);
target = (0,6);
type = Stem;
},
{
horizontal = 1;
origin = (0,10);
target = (0,7);
type = Stem;
},
{
origin = (0,11);
target = (0,2);
type = Stem;
}
);
layerId = m003;
shapes = (
{
closed = 1;
nodes = (
(791,0,l),
(800,60,l),
(28,60,l),
(121,720,l),
(777,720,l),
(785,780,l),
(129,780,l),
(208,1340,l),
(980,1340,l),
(988,1400,l),
(156,1400,l),
(-41,0,l)
);
}
);
width = 982;
},
{
anchors = (
{
name = bottom;
pos = (385,0);
},
{
name = ogonek;
pos = (739,0);
},
{
name = top;
pos = (582,1400);
},
{
name = topleft;
pos = (46,1400);
}
);
hints = (
{
horizontal = 1;
origin = (0,11);
target = (0,2);
type = Stem;
},
{
horizontal = 1;
origin = (0,3);
target = (0,6);
type = Stem;
},
{
horizontal = 1;
origin = (0,10);
target = (0,7);
type = Stem;
},
{
origin = (0,11);
target = (0,2);
type = Stem;
}
);
layerId = m004;
shapes = (
{
closed = 1;
nodes = (
(831,0,l),
(874,300,l),
(292,300,l),
(334,600,l),
(775,600,l),
(817,900,l),
(376,900,l),
(404,1100,l),
(986,1100,l),
(1028,1400,l),
(146,1400,l),
(-51,0,l)
);
}
);
width = 1012;
},
{
anchors = (
{
name = bottom;
pos = (373,0);
},
{
name = ogonek;
pos = (693,0);
},
{
name = top;
pos = (570,1400);
},
{
name = topleft;
pos = (52,1400);
}
);
hints = (
{
horizontal = 1;
origin = (0,11);
target = (0,2);
type = Stem;
},
{
horizontal = 1;
origin = (0,3);
target = (0,6);
type = Stem;
},
{
horizontal = 1;
origin = (0,10);
target = (0,7);
type = Stem;
},
{
origin = (0,11);
target = (0,2);
type = Stem;
}
);
layerId = "79A30733-E9D0-406C-A133-0F4AF5F1D98D";
shapes = (
{
closed = 1;
nodes = (
(807,0,l),
(830,156,l),
(134,156,l),
(206,672,l),
(776,672,l),
(798,828,l),
(228,828,l),
(286,1244,l),
(982,1244,l),
(1004,1400,l),
(152,1400,l),
(-45,0,l)
);
}
);
width = 994;
},
{
anchors = (
{
name = bottom;
pos = (514,0);
},
{
name = ogonek;
pos = (834,0);
},
{
name = top;
pos = (514,1400);
},
{
name = topleft;
pos = (-4,1400);
}
);
hints = (
{
horizontal = 1;
origin = (0,11);
target = (0,2);
type = Stem;
},
{
horizontal = 1;
origin = (0,3);
target = (0,6);
type = Stem;
},
{
horizontal = 1;
origin = (0,10);
target = (0,7);
type = Stem;
},
{
origin = (0,11);
target = (0,2);
type = Stem;
}
);
layerId = "6E59A8CF-B173-4F95-974A-A2EBEECFA9BB";
shapes = (
{
closed = 1;
nodes = (
(948,0,l),
(948,156,l),
(252,156,l),
(252,672,l),
(822,672,l),
(822,828,l),
(252,828,l),
(252,1244,l),
(948,1244,l),
(948,1400,l),
(96,1400,l),
(96,0,l)
);
}
);
width = 994;
}
);
metricLeft = H;
unicode = 69;
}
{
glyphname = F;
kernLeft = H;
kernRight = F;
layers = (
{
anchors = (
{
name = bottom;
pos = (456,0);
},
{
name = top;
pos = (456,1400);
}
);
hints = (
{
horizontal = 1;
origin = (0,9);
target = up;
type = BottomGhost;
},
{
horizontal = 1;
origin = (0,1);
target = (0,4);
type = Stem;
},
{
horizontal = 1;
origin = (0,8);
target = (0,5);
type = Stem;
},
{
origin = (0,9);
target = (0,0);
type = Stem;
}
);
layerId = "10BC12B3-5274-42E3-B5BC-F74F362F0DF4";
shapes = (
{
closed = 1;
nodes = (
(390,0,l),
(390,600,l),
(831,600,l),
(831,900,l),
(390,900,l),
(390,1100,l),
(952,1100,l),
(952,1400,l),
(90,1400,l),
(90,0,l)
);
}
);
width = 972;
},
{
anchors = (
{
name = bottom;
pos = (456,0);
},
{
name = top;
pos = (456,1400);
}
);
hints = (
{
horizontal = 1;
origin = (0,9);
target = up;
type = BottomGhost;
},
{
horizontal = 1;
origin = (0,1);
target = (0,4);
type = Stem;
},
{
horizontal = 1;
origin = (0,8);
target = (0,5);
type = Stem;
},
{
origin = (0,9);
target = (0,0);
type = Stem;
}
);
layerId = "9AF1F7D9-E035-453E-B2A8-46DE370997D0";
shapes = (
{
closed = 1;
nodes = (
(160,0,l),
(160,720,l),
(816,720,l),
(816,780,l),
(160,780,l),
(160,1340,l),
(912,1340,l),
(912,1400,l),
(100,1400,l),
(100,0,l)
);
}
);
width = 932;
},
{
anchors = (
{
name = bottom;
pos = (315,0);
},
{
name = top;
pos = (512,1400);
}
);
hints = (
{
horizontal = 1;
origin = (0,9);
target = up;
type = BottomGhost;
},
{
horizontal = 1;
origin = (0,1);
target = (0,4);
type = Stem;
},
{
horizontal = 1;
origin = (0,8);
target = (0,5);
type = Stem;
},
{
origin = (0,9);
target = (0,0);
type = Stem;
}
);
layerId = m003;
shapes = (
{
closed = 1;
nodes = (
(19,0,l),
(121,720,l),
(777,720,l),
(785,780,l),
(129,780,l),
(208,1340,l),
(960,1340,l),
(968,1400,l),
(156,1400,l),
(-41,0,l)
);
}
);
width = 932;
},
{
anchors = (
{
name = bottom;
pos = (315,0);
},
{
name = top;
pos = (512,1400);
}
);
hints = (
{
horizontal = 1;
origin = (0,9);
target = up;
type = BottomGhost;
},
{
horizontal = 1;
origin = (0,1);
target = (0,4);
type = Stem;
},
{
horizontal = 1;
origin = (0,8);
target = (0,5);
type = Stem;
},
{
origin = (0,9);
target = (0,0);
type = Stem;
}
);
layerId = m004;
shapes = (
{
closed = 1;
nodes = (
(249,0,l),
(334,600,l),
(775,600,l),
(817,900,l),
(376,900,l),
(404,1100,l),
(966,1100,l),
(1008,1400,l),
(146,1400,l),
(-51,0,l)
);
}
);
width = 972;
},
{
anchors = (
{
name = bottom;
pos = (315,0);
},
{
name = top;
pos = (512,1400);
}
);
hints = (
{
horizontal = 1;
origin = (0,9);
target = up;
type = BottomGhost;
},
{
horizontal = 1;
origin = (0,1);
target = (0,4);
type = Stem;
},
{
horizontal = 1;
origin = (0,8);
target = (0,5);
type = Stem;
},
{
origin = (0,9);
target = (0,0);
type = Stem;
}
);
layerId = "79A30733-E9D0-406C-A133-0F4AF5F1D98D";
shapes = (
{
closed = 1;
nodes = (
(111,0,l),
(206,672,l),
(776,672,l),
(798,828,l),
(228,828,l),
(286,1244,l),
(962,1244,l),
(984,1400,l),
(152,1400,l),
(-45,0,l)
);
}
);
width = 948;
},
{
anchors = (
{
name = bottom;
pos = (456,0);
},
{
name = top;
pos = (456,1400);
}
);
hints = (
{
horizontal = 1;
origin = (0,9);
target = up;
type = BottomGhost;
},
{
horizontal = 1;
origin = (0,1);
target = (0,4);
type = Stem;
},
{
horizontal = 1;
origin = (0,8);
target = (0,5);
type = Stem;
},
{
origin = (0,9);
target = (0,0);
type = Stem;
}
);
layerId = "6E59A8CF-B173-4F95-974A-A2EBEECFA9BB";
shapes = (
{
closed = 1;
nodes = (
(252,0,l),
(252,672,l),
(822,672,l),
(822,828,l),
(252,828,l),
(252,1244,l),
(928,1244,l),
(928,1400,l),
(96,1400,l),
(96,0,l)
);
}
);
width = 948;
}
);
metricLeft = H;
unicode = 70;
}
{
glyphname = G;
kernLeft = O;
kernRight = O;
layers = (
{
anchors = (
{
name = bottom;
pos = (719,0);
},
{
name = top;
pos = (719,1400);
}
);
hints = (
{
horizontal = 1;
origin = (0,27);
target = (0,8);
type = Stem;
},
{
horizontal = 1;
origin = (0,4);
target = (0,3);
type = Stem;
},
{
horizontal = 1;
origin = (0,21);
target = (0,14);
type = Stem;
},
{
origin = (0,24);
target = (0,11);
type = Stem;
}
);
layerId = "10BC12B3-5274-42E3-B5BC-F74F362F0DF4";
shapes = (
{
closed = 1;
nodes = (
(1114,-26,o),
(1426,322,o),
(1406,740,c),
(814,740,l),
(814,480,l),
(1052,480,l),
(970,338,o),
(844,274,o),
(722,274,cs),
(506,274,o),
(330,460,o),
(330,696,cs),
(330,952,o),
(520,1126,o),
(720,1126,cs),
(818,1126,o),
(918,1084,o),
(1000,992,c),
(1268,1136,l),
(1116,1338,o),
(918,1424,o),
(724,1424,cs),
(368,1424,o),
(30,1130,o),
(30,702,cs),
(30,304,o),
(326,-26,o),
(718,-26,cs)
);
}
);
width = 1437;
},
{
anchors = (
{
name = bottom;
pos = (738,0);
},
{
name = top;
pos = (740,1400);
}
);
hints = (
{
horizontal = 1;
origin = (0,27);
target = (0,8);
type = Stem;
},
{
horizontal = 1;
origin = (0,4);
target = (0,3);
type = Stem;
},
{
horizontal = 1;
origin = (0,21);
target = (0,14);
type = Stem;
},
{
origin = (0,24);
target = (0,11);
type = Stem;
}
);
layerId = "9AF1F7D9-E035-453E-B2A8-46DE370997D0";
shapes = (
{
closed = 1;
nodes = (
(1100,-26,o),
(1402,272,o),
(1426,642,c),
(886,642,l),
(886,582,l),
(1358,582,l),
(1312,282,o),
(1054,34,o),
(740,34,cs),
(392,34,o),
(110,336,o),
(110,700,cs),
(110,1058,o),
(388,1366,o),
(740,1366,cs),
(930,1366,o),
(1116,1272,o),
(1236,1108,c),
(1290,1138,l),
(1164,1312,o),
(964,1426,o),
(740,1426,cs),
(358,1426,o),
(50,1100,o),
(50,700,cs),
(50,300,o),
(358,-26,o),
(740,-26,cs)
);
}
);
width = 1476;
},
{
anchors = (
{
name = bottom;
pos = (597,0);
},
{
name = top;
pos = (796,1400);
}
);
hints = (
{
horizontal = 1;
origin = (0,27);
target = (0,8);
type = Stem;
},
{
horizontal = 1;
origin = (0,4);
target = (0,3);
type = Stem;
},
{
horizontal = 1;
origin = (0,21);
target = (0,14);
type = Stem;
},
{
origin = (0,24);
target = (0,11);
type = Stem;
}
);
layerId = m003;
shapes = (
{
closed = 1;
nodes = (
(956,-26,o),
(1300,272,o),
(1376,642,c),
(836,642,l),
(827,582,l),
(1299,582,l),
(1211,282,o),
(918,34,o),
(604,34,cs),
(256,34,o),
(17,336,o),
(68,700,cs),
(118,1058,o),
(439,1366,o),
(791,1366,cs),
(981,1366,o),
(1154,1272,o),
(1251,1108,c),
(1309,1138,l),
(1208,1312,o),
(1024,1426,o),
(800,1426,cs),
(418,1426,o),
(64,1100,o),
(8,700,cs),
(-48,300,o),
(214,-26,o),
(596,-26,cs)
);
}
);
width = 1476;
},
{
anchors = (
{
name = bottom;
pos = (578,0);
},
{
name = top;
pos = (775,1400);
}
);
hints = (
{
horizontal = 1;
origin = (0,27);
target = (0,8);
type = Stem;
},
{
horizontal = 1;
origin = (0,4);
target = (0,3);
type = Stem;
},
{
horizontal = 1;
origin = (0,21);
target = (0,14);
type = Stem;
},
{
origin = (0,24);
target = (0,11);
type = Stem;
}
);
layerId = m004;
shapes = (
{
closed = 1;
nodes = (
(970,-26,o),
(1331,322,o),
(1369,740,c),
(777,740,l),
(741,480,l),
(979,480,l),
(877,338,o),
(742,274,o),
(620,274,cs),
(404,274,o),
(254,460,o),
(287,696,cs),
(323,952,o),
(538,1126,o),
(738,1126,cs),
(836,1126,o),
(930,1084,o),
(999,992,c),
(1287,1136,l),
(1164,1338,o),
(978,1424,o),
(784,1424,cs),
(428,1424,o),
(48,1130,o),
(-12,702,cs),
(-68,304,o),
(182,-26,o),
(574,-26,cs)
);
}
);
width = 1436;
},
{
anchors = (
{
name = bottom;
pos = (589,0);
},
{
name = top;
pos = (788,1400);
}
);
hints = (
{
horizontal = 1;
origin = (0,27);
target = (0,8);
type = Stem;
},
{
horizontal = 1;
origin = (0,4);
target = (0,3);
type = Stem;
},
{
horizontal = 1;
origin = (0,21);
target = (0,14);
type = Stem;
},
{
origin = (0,24);
target = (0,11);
type = Stem;
}
);
layerId = "79A30733-E9D0-406C-A133-0F4AF5F1D98D";
shapes = (
{
closed = 1;
nodes = (
(962,-26,o),
(1312,292,o),
(1373,681,c),
(812,681,l),
(793,541,l),
(1171,541,l),
(1077,304,o),
(848,130,o),
(610,130,cs),
(315,130,o),
(112,386,o),
(156,698,cs),
(200,1016,o),
(479,1270,o),
(770,1270,cs),
(923,1270,o),
(1064,1197,o),
(1150,1062,c),
(1300,1137,l),
(1190,1322,o),
(1006,1425,o),
(794,1425,cs),
(422,1425,o),
(58,1112,o),
(0,701,cs),
(-56,302,o),
(201,-26,o),
(587,-26,cs)
);
}
);
width = 1460;
},
{
anchors = (
{
name = bottom;
pos = (730,0);
},
{
name = top;
pos = (732,1400);
}
);
hints = (
{
horizontal = 1;
origin = (0,27);
target = (0,8);
type = Stem;
},
{
horizontal = 1;
origin = (0,4);
target = (0,3);
type = Stem;
},
{
horizontal = 1;
origin = (0,21);
target = (0,14);
type = Stem;
},
{
origin = (0,24);
target = (0,11);
type = Stem;
}
);
layerId = "6E59A8CF-B173-4F95-974A-A2EBEECFA9BB";
shapes = (
{
closed = 1;
nodes = (
(1106,-26,o),
(1412,292,o),
(1418,681,c),
(857,681,l),
(857,541,l),
(1236,541,l),
(1175,304,o),
(970,130,o),
(733,130,cs),
(438,130,o),
(198,386,o),
(198,698,cs),
(198,1016,o),
(441,1270,o),
(732,1270,cs),
(885,1270,o),
(1037,1197,o),
(1142,1062,c),
(1281,1137,l),
(1145,1322,o),
(946,1425,o),
(734,1425,cs),
(362,1425,o),
(42,1112,o),
(42,701,cs),
(42,302,o),
(345,-26,o),
(731,-26,cs)
);
}
);
width = 1460.4;
}
);
metricLeft = O;
metricRight = O;
unicode = 71;
}
{
glyphname = H;
kernLeft = H;
kernRight = H;
layers = (
{
anchors = (
{
name = bottom;
pos = (638,0);
},
{
name = center;
pos = (638,700);
},
{
name = hbar;
pos = (638,1160);
},
{
name = top;
pos = (638,1400);
},
{
name = topleft;
pos = (-10,1400);
}
);
hints = (
{
horizontal = 1;
origin = (0,4);
target = up;
type = BottomGhost;
},
{
horizontal = 1;
origin = (0,6);
target = (0,1);
type = Stem;
},
{
horizontal = 1;
origin = (0,3);
target = down;
type = TopGhost;
},
{
origin = (0,4);
target = (0,5);
type = Stem;
},
{
origin = (0,8);
target = (0,9);
type = Stem;
}
);
layerId = "10BC12B3-5274-42E3-B5BC-F74F362F0DF4";
shapes = (
{
closed = 1;
nodes = (
(886,900,l),
(390,900,l),
(390,1400,l),
(90,1400,l),
(90,0,l),
(390,0,l),
(390,600,l),
(886,600,l),
(886,0,l),
(1186,0,l),
(1186,1400,l),
(886,1400,l)
);
}
);
width = 1276;
},
{
anchors = (
{
name = bottom;
pos = (587,0);
},
{
name = center;
pos = (587,700);
},
{
name = hbar;
pos = (587,1200);
},
{
name = top;
pos = (587,1400);
},
{
name = topleft;
pos = (0,1400);
}
);
hints = (
{
horizontal = 1;
origin = (0,4);
target = up;
type = BottomGhost;
},
{
horizontal = 1;
origin = (0,6);
target = (0,1);
type = Stem;
},
{
horizontal = 1;
origin = (0,3);
target = down;
type = TopGhost;
},
{
origin = (0,4);
target = (0,5);
type = Stem;
},
{
origin = (0,8);
target = (0,9);
type = Stem;
}
);
layerId = "9AF1F7D9-E035-453E-B2A8-46DE370997D0";
shapes = (
{
closed = 1;
nodes = (
(1014,780,l),
(160,780,l),
(160,1400,l),
(100,1400,l),
(100,0,l),
(160,0,l),
(160,720,l),
(1014,720,l),
(1014,0,l),
(1074,0,l),
(1074,1400,l),
(1014,1400,l)
);
}
);
width = 1174;
},
{
anchors = (
{
name = bottom;
pos = (446,0);
},
{
name = center;
pos = (545,700);
},
{
name = hbar;
pos = (615,1200);
},
{
name = top;
pos = (643,1400);
},
{
name = topleft;
pos = (56,1400);
}
);
hints = (
{
horizontal = 1;
origin = (0,4);
target = up;
type = BottomGhost;
},
{
horizontal = 1;
origin = (0,6);
target = (0,1);
type = Stem;
},
{
horizontal = 1;
origin = (0,3);
target = down;
type = TopGhost;
},
{
origin = (0,4);
target = (0,5);
type = Stem;
},
{
origin = (0,8);
target = (0,9);
type = Stem;
}
);
layerId = m003;
shapes = (
{
closed = 1;
nodes = (
(983,780,l),
(129,780,l),
(216,1400,l),
(156,1400,l),
(-41,0,l),
(19,0,l),
(121,720,l),
(975,720,l),
(873,0,l),
(933,0,l),
(1130,1400,l),
(1070,1400,l)
);
}
);
width = 1174;
},
{
anchors = (
{
name = bottom;
pos = (497,0);
},
{
name = center;
pos = (596,700);
},
{
name = hbar;
pos = (660,1160);
},
{
name = top;
pos = (694,1400);
},
{
name = topleft;
pos = (46,1400);
}
);
hints = (
{
horizontal = 1;
origin = (0,4);
target = up;
type = BottomGhost;
},
{
horizontal = 1;
origin = (0,6);
target = (0,1);
type = Stem;
},
{
horizontal = 1;
origin = (0,3);
target = down;
type = TopGhost;
},
{
origin = (0,4);
target = (0,5);
type = Stem;
},
{
origin = (0,8);
target = (0,9);
type = Stem;
}
);
layerId = m004;
shapes = (
{
closed = 1;
nodes = (
(872,900,l),
(376,900,l),
(446,1400,l),
(146,1400,l),
(-51,0,l),
(249,0,l),
(334,600,l),
(830,600,l),
(745,0,l),
(1045,0,l),
(1242,1400,l),
(942,1400,l)
);
}
);
width = 1276;
},
{
anchors = (
{
name = bottom;
pos = (466,0);
},
{
name = center;
pos = (565,700);
},
{
name = hbar;
pos = (633,1184);
},
{
name = top;
pos = (663,1400);
},
{
name = topleft;
pos = (52,1400);
}
);
hints = (
{
horizontal = 1;
origin = (0,4);
target = up;
type = BottomGhost;
},
{
horizontal = 1;
origin = (0,6);
target = (0,1);
type = Stem;
},
{
horizontal = 1;
origin = (0,3);
target = down;
type = TopGhost;
},
{
origin = (0,4);
target = (0,5);
type = Stem;
},
{
origin = (0,8);
target = (0,9);
type = Stem;
}
);
layerId = "79A30733-E9D0-406C-A133-0F4AF5F1D98D";
shapes = (
{
closed = 1;
nodes = (
(939,828,l),
(228,828,l),
(308,1400,l),
(152,1400,l),
(-45,0,l),
(111,0,l),
(206,672,l),
(917,672,l),
(822,0,l),
(978,0,l),
(1175,1400,l),
(1019,1400,l)
);
}
);
width = 1214.8;
},
{
anchors = (
{
name = bottom;
pos = (607,0);
},
{
name = center;
pos = (607,700);
},
{
name = hbar;
pos = (607,1184);
},
{
name = top;
pos = (607,1400);
},
{
name = topleft;
pos = (-4,1400);
}
);
hints = (
{
horizontal = 1;
origin = (0,4);
target = up;
type = BottomGhost;
},
{
horizontal = 1;
origin = (0,6);
target = (0,1);
type = Stem;
},
{
horizontal = 1;
origin = (0,3);
target = down;
type = TopGhost;
},
{
origin = (0,4);
target = (0,5);
type = Stem;
},
{
origin = (0,8);
target = (0,9);
type = Stem;
}
);
layerId = "6E59A8CF-B173-4F95-974A-A2EBEECFA9BB";
shapes = (
{
closed = 1;
nodes = (
(963,828,l),
(252,828,l),
(252,1400,l),
(96,1400,l),
(96,0,l),
(252,0,l),
(252,672,l),
(963,672,l),
(963,0,l),
(1119,0,l),
(1119,1400,l),
(963,1400,l)
);
}
);
width = 1214.8;
}
);
unicode = 72;
}
{
glyphname = I;
kernLeft = H;
kernRight = H;
layers = (
{
anchors = (
{
name = bottom;
pos = (260,0);
},
{
name = ogonek;
pos = (410,0);
},
{
name = top;
pos = (260,1400);
},
{
name = topleft;
pos = (-20,1400);
}
);
hints = (
{
horizontal = 1;
origin = (0,3);
target = up;
type = BottomGhost;
},
{
horizontal = 1;
origin = (0,2);
target = down;
type = TopGhost;
},
{
origin = (0,3);
target = (0,0);
type = Stem;
}
);
layerId = "10BC12B3-5274-42E3-B5BC-F74F362F0DF4";
shapes = (
{
closed = 1;
nodes = (
(410,0,l),
(410,1400,l),
(110,1400,l),
(110,0,l)
);
}
);
width = 520;
},
{
anchors = (
{
name = bottom;
pos = (150,0);
},
{
name = ogonek;
pos = (180,0);
},
{
name = top;
pos = (150,1400);
},
{
name = topleft;
pos = (-10,1400);
}
);
hints = (
{
horizontal = 1;
origin = (0,3);
target = up;
type = BottomGhost;
},
{
horizontal = 1;
origin = (0,2);
target = down;
type = TopGhost;
},
{
origin = (0,3);
target = (0,0);
type = Stem;
}
);
layerId = "9AF1F7D9-E035-453E-B2A8-46DE370997D0";
shapes = (
{
closed = 1;
nodes = (
(180,0,l),
(180,1400,l),
(120,1400,l),
(120,0,l)
);
}
);
width = 300;
},
{
anchors = (
{
name = bottom;
pos = (9,0);
},
{
name = ogonek;
pos = (39,0);
},
{
name = top;
pos = (206,1400);
},
{
name = topleft;
pos = (46,1400);
}
);
hints = (
{
horizontal = 1;
origin = (0,3);
target = up;
type = BottomGhost;
},
{
horizontal = 1;
origin = (0,2);
target = down;
type = TopGhost;
},
{
origin = (0,3);
target = (0,0);
type = Stem;
}
);
layerId = m003;
shapes = (
{
closed = 1;
nodes = (
(39,0,l),
(236,1400,l),
(176,1400,l),
(-21,0,l)
);
}
);
width = 300;
},
{
anchors = (
{
name = bottom;
pos = (119,0);
},
{
name = ogonek;
pos = (269,0);
},
{
name = top;
pos = (316,1400);
},
{
name = topleft;
pos = (36,1400);
}
);
hints = (
{
horizontal = 1;
origin = (0,3);
target = up;
type = BottomGhost;
},
{
horizontal = 1;
origin = (0,2);
target = down;
type = TopGhost;
},
{
origin = (0,3);
target = (0,0);
type = Stem;
}
);
layerId = m004;
shapes = (
{
closed = 1;
nodes = (
(269,0,l),
(466,1400,l),
(166,1400,l),
(-31,0,l)
);
}
);
width = 520;
},
{
anchors = (
{
name = bottom;
pos = (53,0);
},
{
name = ogonek;
pos = (131,0);
},
{
name = top;
pos = (250,1400);
},
{
name = topleft;
pos = (42,1400);
}
);
hints = (
{
horizontal = 1;
origin = (0,3);
target = up;
type = BottomGhost;
},
{
horizontal = 1;
origin = (0,2);
target = down;
type = TopGhost;
},
{
origin = (0,3);
target = (0,0);
type = Stem;
}
);
layerId = "79A30733-E9D0-406C-A133-0F4AF5F1D98D";
shapes = (
{
closed = 1;
nodes = (
(131,0,l),
(328,1400,l),
(172,1400,l),
(-25,0,l)
);
}
);
width = 388;
},
{
anchors = (
{
name = bottom;
pos = (194,0);
},
{
name = ogonek;
pos = (272,0);
},
{
name = top;
pos = (194,1400);
},
{
name = topleft;
pos = (-14,1400);
}
);
hints = (
{
horizontal = 1;
origin = (0,3);
target = up;
type = BottomGhost;
},
{
horizontal = 1;
origin = (0,2);
target = down;
type = TopGhost;
},
{
origin = (0,3);
target = (0,0);
type = Stem;
}
);
layerId = "6E59A8CF-B173-4F95-974A-A2EBEECFA9BB";
shapes = (
{
closed = 1;
nodes = (
(272,0,l),
(272,1400,l),
(116,1400,l),
(116,0,l)
);
}
);
width = 388;
}
);
metricLeft = "=H+20";
metricRight = "=H+20";
unicode = 73;
}
{
glyphname = J;
kernLeft = J;
kernRight = J;
layers = (
{
anchors = (
{
name = bottom;
pos = (437,0);
},
{
name = top;
pos = (634,1400);
}
);
hints = (
{
horizontal = 1;
origin = (0,15);
target = (0,8);
type = Stem;
},
{
horizontal = 1;
origin = (0,4);
target = down;
type = TopGhost;
},
{
origin = (0,5);
target = (0,2);
type = Stem;
}
);
layerId = "10BC12B3-5274-42E3-B5BC-F74F362F0DF4";
shapes = (
{
closed = 1;
nodes = (
(572,-26,o),
(784,186,o),
(784,446,cs),
(784,1400,l),
(484,1400,l),
(484,446,ls),
(484,352,o),
(406,274,o),
(312,274,cs),
(260,274,o),
(224,296,o),
(202,314,c),
(10,84,l),
(94,12,o),
(202,-26,o),
(312,-26,cs)
);
}
);
width = 874;
},
{
anchors = (
{
name = bottom;
pos = (339,0);
},
{
name = top;
pos = (558,1400);
}
);
hints = (
{
horizontal = 1;
origin = (0,15);
target = (0,8);
type = Stem;
},
{
horizontal = 1;
origin = (0,4);
target = down;
type = TopGhost;
},
{
origin = (0,5);
target = (0,2);
type = Stem;
}
);
layerId = "9AF1F7D9-E035-453E-B2A8-46DE370997D0";
shapes = (
{
closed = 1;
nodes = (
(430,-26,o),
(588,152,o),
(588,346,cs),
(588,1400,l),
(528,1400,l),
(528,346,ls),
(528,184,o),
(396,34,o),
(234,34,cs),
(166,34,o),
(100,58,o),
(48,102,c),
(10,56,l),
(74,0,o),
(152,-26,o),
(234,-26,cs)
);
}
);
width = 688;
},
{
anchors = (
{
name = bottom;
pos = (198,0);
},
{
name = top;
pos = (614,1400);
}
);
hints = (
{
horizontal = 1;
origin = (0,15);
target = (0,8);
type = Stem;
},
{
horizontal = 1;
origin = (0,4);
target = down;
type = TopGhost;
},
{
origin = (0,5);
target = (0,2);
type = Stem;
}
);
layerId = m003;
shapes = (
{
closed = 1;
nodes = (
(286,-26,o),
(469,152,o),
(496,346,cs),
(644,1400,l),
(584,1400,l),
(436,346,ls),
(413,184,o),
(260,34,o),
(98,34,cs),
(30,34,o),
(-32,58,o),
(-78,102,c),
(-123,56,l),
(-67,0,o),
(8,-26,o),
(90,-26,cs)
);
}
);
width = 688;
},
{
anchors = (
{
name = bottom;
pos = (296,0);
},
{
name = top;
pos = (690,1400);
}
);
hints = (
{
horizontal = 1;
origin = (0,15);
target = (0,8);
type = Stem;
},
{
horizontal = 1;
origin = (0,4);
target = down;
type = TopGhost;
},
{
origin = (0,5);
target = (0,2);
type = Stem;
}
);
layerId = m004;
shapes = (
{
closed = 1;
nodes = (
(428,-26,o),
(670,186,o),
(706,446,cs),
(840,1400,l),
(540,1400,l),
(406,446,ls),
(393,352,o),
(304,274,o),
(210,274,cs),
(158,274,o),
(125,296,o),
(106,314,c),
(-119,84,l),
(-45,12,o),
(58,-26,o),
(168,-26,cs)
);
}
);
width = 874;
},
{
anchors = (
{
name = bottom;
pos = (237,0);
},
{
name = top;
pos = (644,1400);
}
);
hints = (
{
horizontal = 1;
origin = (0,15);
target = (0,8);
type = Stem;
},
{
horizontal = 1;
origin = (0,4);
target = down;
type = TopGhost;
},
{
origin = (0,5);
target = (0,2);
type = Stem;
}
);
layerId = "79A30733-E9D0-406C-A133-0F4AF5F1D98D";
shapes = (
{
closed = 1;
nodes = (
(343,-26,o),
(549,166,o),
(580,386,cs),
(722,1400,l),
(566,1400,l),
(424,386,ls),
(405,251,o),
(278,130,o),
(143,130,cs),
(81,130,o),
(31,153,o),
(-4,187,c),
(-121,67,l),
(-58,5,o),
(28,-26,o),
(121,-26,cs)
);
}
);
width = 762.4;
},
{
anchors = (
{
name = bottom;
pos = (378,0);
},
{
name = top;
pos = (588,1400);
}
);
hints = (
{
horizontal = 1;
origin = (0,15);
target = (0,8);
type = Stem;
},
{
horizontal = 1;
origin = (0,4);
target = down;
type = TopGhost;
},
{
origin = (0,5);
target = (0,2);
type = Stem;
}
);
layerId = "6E59A8CF-B173-4F95-974A-A2EBEECFA9BB";
shapes = (
{
closed = 1;
nodes = (
(487,-26,o),
(666,166,o),
(666,386,cs),
(666,1400,l),
(510,1400,l),
(510,386,ls),
(510,251,o),
(400,130,o),
(265,130,cs),
(204,130,o),
(150,153,o),
(110,187,c),
(10,67,l),
(82,5,o),
(172,-26,o),
(265,-26,cs)
);
}
);
width = 762.4;
}
);
metricRight = H;
unicode = 74;
}
{
glyphname = K;
kernLeft = H;
kernRight = K;
layers = (
{
anchors = (
{
name = bottom;
pos = (585,0);
},
{
name = top;
pos = (585,1400);
}
);
hints = (
{
horizontal = 1;
origin = (0,6);
target = up;
type = BottomGhost;
},
{
horizontal = 1;
origin = (0,5);
target = down;
type = TopGhost;
},
{
origin = (0,6);
target = (0,7);
type = Stem;
}
);
layerId = "10BC12B3-5274-42E3-B5BC-F74F362F0DF4";
shapes = (
{
closed = 1;
nodes = (
(626,740,l),
(1180,1400,l),
(788,1400,l),
(390,924,l),
(390,1400,l),
(90,1400,l),
(90,0,l),
(390,0,l),
(390,458,l),
(430,506,l),
(788,0,l),
(1180,0,l)
);
}
);
width = 1180;
},
{
anchors = (
{
name = bottom;
pos = (472,0);
},
{
name = top;
pos = (472,1400);
}
);
hints = (
{
horizontal = 1;
origin = (0,6);
target = up;
type = BottomGhost;
},
{
horizontal = 1;
origin = (0,5);
target = down;
type = TopGhost;
},
{
origin = (0,6);
target = (0,7);
type = Stem;
}
);
layerId = "9AF1F7D9-E035-453E-B2A8-46DE370997D0";
shapes = (
{
closed = 1;
nodes = (
(358,738,l),
(914,1400,l),
(836,1400,l),
(160,594,l),
(160,1400,l),
(100,1400,l),
(100,0,l),
(160,0,l),
(160,500,l),
(318,690,l),
(828,0,l),
(904,0,l)
);
}
);
width = 914;
},
{
anchors = (
{
name = bottom;
pos = (331,0);
},
{
name = top;
pos = (528,1400);
}
);
hints = (
{
horizontal = 1;
origin = (0,6);
target = up;
type = BottomGhost;
},
{
horizontal = 1;
origin = (0,5);
target = down;
type = TopGhost;
},
{
origin = (0,6);
target = (0,7);
type = Stem;
}
);
layerId = m003;
shapes = (
{
closed = 1;
nodes = (
(321,738,l),
(970,1400,l),
(892,1400,l),
(103,594,l),
(216,1400,l),
(156,1400,l),
(-41,0,l),
(19,0,l),
(90,500,l),
(274,690,l),
(687,0,l),
(763,0,l)
);
}
);
width = 914;
},
{
anchors = (
{
name = bottom;
pos = (444,0);
},
{
name = top;
pos = (641,1400);
}
);
hints = (
{
horizontal = 1;
origin = (0,6);
target = up;
type = BottomGhost;
},
{
horizontal = 1;
origin = (0,5);
target = down;
type = TopGhost;
},
{
origin = (0,6);
target = (0,7);
type = Stem;
}
);
layerId = m004;
shapes = (
{
closed = 1;
nodes = (
(589,740,l),
(1236,1400,l),
(844,1400,l),
(379,924,l),
(446,1400,l),
(146,1400,l),
(-51,0,l),
(249,0,l),
(314,458,l),
(361,506,l),
(647,0,l),
(1039,0,l)
);
}
);
width = 1180;
},
{
anchors = (
{
name = bottom;
pos = (376,0);
},
{
name = top;
pos = (573,1400);
}
);
hints = (
{
horizontal = 1;
origin = (0,6);
target = up;
type = BottomGhost;
},
{
horizontal = 1;
origin = (0,5);
target = down;
type = TopGhost;
},
{
origin = (0,6);
target = (0,7);
type = Stem;
}
);
layerId = "79A30733-E9D0-406C-A133-0F4AF5F1D98D";
shapes = (
{
closed = 1;
nodes = (
(428,739,l),
(1076,1400,l),
(873,1400,l),
(213,726,l),
(308,1400,l),
(152,1400,l),
(-45,0,l),
(111,0,l),
(180,483,l),
(309,616,l),
(671,0,l),
(873,0,l)
);
}
);
width = 1020.4;
},
{
anchors = (
{
name = bottom;
pos = (517,0);
},
{
name = top;
pos = (517,1400);
}
);
hints = (
{
horizontal = 1;
origin = (0,6);
target = up;
type = BottomGhost;
},
{
horizontal = 1;
origin = (0,5);
target = down;
type = TopGhost;
},
{
origin = (0,6);
target = (0,7);
type = Stem;
}
);
layerId = "6E59A8CF-B173-4F95-974A-A2EBEECFA9BB";
shapes = (
{
closed = 1;
nodes = (
(465,739,l),
(1020,1400,l),
(817,1400,l),
(252,726,l),
(252,1400,l),
(96,1400,l),
(96,0,l),
(252,0,l),
(252,483,l),
(363,616,l),
(812,0,l),
(1014,0,l)
);
}
);
width = 1020.4;
}
);
metricLeft = H;
unicode = 75;
}
{
glyphname = L;
kernLeft = H;
kernRight = L;
layers = (
{
anchors = (
{
name = bottom;
pos = (515,0);
},
{
name = center;
pos = (505,700);
},
{
name = top;
pos = (240,1400);
},
{
name = topright;
pos = (574,1102);
}
);
hints = (
{
horizontal = 1;
origin = (0,5);
target = (0,2);
type = Stem;
},
{
horizontal = 1;
origin = (0,4);
target = down;
type = TopGhost;
},
{
origin = (0,5);
target = (0,2);
type = Stem;
}
);
layerId = "10BC12B3-5274-42E3-B5BC-F74F362F0DF4";
shapes = (
{
closed = 1;
nodes = (
(940,0,l),
(940,300,l),
(390,300,l),
(390,1400,l),
(90,1400,l),
(90,0,l)
);
}
);
width = 960;
},
{
anchors = (
{
name = bottom;
pos = (481,0);
},
{
name = center;
pos = (471,700);
},
{
name = top;
pos = (130,1400);
},
{
name = topright;
pos = (429,1102);
}
);
hints = (
{
horizontal = 1;
origin = (0,5);
target = (0,2);
type = Stem;
},
{
horizontal = 1;
origin = (0,4);
target = down;
type = TopGhost;
},
{
origin = (0,5);
target = (0,2);
type = Stem;
}
);
layerId = "9AF1F7D9-E035-453E-B2A8-46DE370997D0";
shapes = (
{
closed = 1;
nodes = (
(850,0,l),
(850,60,l),
(160,60,l),
(160,1400,l),
(100,1400,l),
(100,0,l)
);
}
);
width = 870;
},
{
anchors = (
{
name = bottom;
pos = (340,0);
},
{
name = center;
pos = (429,700);
},
{
name = top;
pos = (186,1400);
},
{
name = topright;
pos = (443,1102);
}
);
hints = (
{
horizontal = 1;
origin = (0,5);
target = (0,2);
type = Stem;
},
{
horizontal = 1;
origin = (0,4);
target = down;
type = TopGhost;
},
{
origin = (0,5);
target = (0,2);
type = Stem;
}
);
layerId = m003;
shapes = (
{
closed = 1;
nodes = (
(709,0,l),
(718,60,l),
(28,60,l),
(216,1400,l),
(156,1400,l),
(-41,0,l)
);
}
);
width = 870;
},
{
anchors = (
{
name = bottom;
pos = (374,0);
},
{
name = center;
pos = (463,700);
},
{
name = top;
pos = (296,1400);
},
{
name = topright;
pos = (588,1102);
}
);
hints = (
{
horizontal = 1;
origin = (0,5);
target = (0,2);
type = Stem;
},
{
horizontal = 1;
origin = (0,4);
target = down;
type = TopGhost;
},
{
origin = (0,5);
target = (0,2);
type = Stem;
}
);
layerId = m004;
shapes = (
{
closed = 1;
nodes = (
(799,0,l),
(842,300,l),
(292,300,l),
(446,1400,l),
(146,1400,l),
(-51,0,l)
);
}
);
width = 960;
},
{
anchors = (
{
name = bottom;
pos = (354,0);
},
{
name = center;
pos = (443,700);
},
{
name = top;
pos = (230,1400);
},
{
name = topright;
pos = (501,1102);
}
);
hints = (
{
horizontal = 1;
origin = (0,5);
target = (0,2);
type = Stem;
},
{
horizontal = 1;
origin = (0,4);
target = down;
type = TopGhost;
},
{
origin = (0,5);
target = (0,2);
type = Stem;
}
);
layerId = "79A30733-E9D0-406C-A133-0F4AF5F1D98D";
shapes = (
{
closed = 1;
nodes = (
(745,0,l),
(768,156,l),
(134,156,l),
(308,1400,l),
(152,1400,l),
(-45,0,l)
);
}
);
width = 906;
},
{
anchors = (
{
name = bottom;
pos = (495,0);
},
{
name = center;
pos = (485,700);
},
{
name = top;
pos = (174,1400);
},
{
name = topright;
pos = (487,1102);
}
);
hints = (
{
horizontal = 1;
origin = (0,5);
target = (0,2);
type = Stem;
},
{
horizontal = 1;
origin = (0,4);
target = down;
type = TopGhost;
},
{
origin = (0,5);
target = (0,2);
type = Stem;
}
);
layerId = "6E59A8CF-B173-4F95-974A-A2EBEECFA9BB";
shapes = (
{
closed = 1;
nodes = (
(886,0,l),
(886,156,l),
(252,156,l),
(252,1400,l),
(96,1400,l),
(96,0,l)
);
}
);
width = 906;
}
);
metricLeft = H;
unicode = 76;
}
{
glyphname = M;
kernLeft = M;
kernRight = M;
layers = (
{
anchors = (
{
name = bottom;
pos = (872,0);
},
{
name = top;
pos = (872,1400);
}
);
hints = (
{
horizontal = 1;
origin = (0,12);
target = up;
type = BottomGhost;
},
{
horizontal = 1;
origin = (0,11);
target = down;
type = TopGhost;
}
);
layerId = "10BC12B3-5274-42E3-B5BC-F74F362F0DF4";
shapes = (
{
closed = 1;
nodes = (
(336,0,l),
(482,756,l),
(768,0,l),
(976,0,l),
(1262,756,l),
(1408,0,l),
(1714,0,l),
(1442,1400,l),
(1186,1400,l),
(872,574,l),
(558,1400,l),
(302,1400,l),
(30,0,l)
);
}
);
width = 1744;
},
{
anchors = (
{
name = bottom;
pos = (766,0);
},
{
name = top;
pos = (766,1400);
}
);
hints = (
{
horizontal = 1;
origin = (0,12);
target = up;
type = BottomGhost;
},
{
horizontal = 1;
origin = (0,11);
target = down;
type = TopGhost;
}
);
layerId = "9AF1F7D9-E035-453E-B2A8-46DE370997D0";
shapes = (
{
closed = 1;
nodes = (
(100,0,l),
(358,1228,l),
(750,138,l),
(780,138,l),
(1172,1228,l),
(1430,0,l),
(1492,0,l),
(1200,1400,l),
(1174,1400,l),
(766,268,l),
(356,1400,l),
(330,1400,l),
(40,0,l)
);
}
);
width = 1532;
},
{
anchors = (
{
name = bottom;
pos = (625,0);
},
{
name = top;
pos = (822,1400);
}
);
hints = (
{
horizontal = 1;
origin = (0,12);
target = up;
type = BottomGhost;
},
{
horizontal = 1;
origin = (0,11);
target = down;
type = TopGhost;
}
);
layerId = m003;
shapes = (
{
closed = 1;
nodes = (
(-41,0,l),
(390,1228,l),
(629,138,l),
(659,138,l),
(1204,1228,l),
(1289,0,l),
(1351,0,l),
(1256,1400,l),
(1230,1400,l),
(663,268,l),
(412,1400,l),
(386,1400,l),
(-101,0,l)
);
}
);
width = 1531;
},
{
anchors = (
{
name = bottom;
pos = (731,0);
},
{
name = top;
pos = (928,1400);
}
);
hints = (
{
horizontal = 1;
origin = (0,12);
target = up;
type = BottomGhost;
},
{
horizontal = 1;
origin = (0,11);
target = down;
type = TopGhost;
}
);
layerId = m004;
shapes = (
{
closed = 1;
nodes = (
(195,0,l),
(448,756,l),
(627,0,l),
(835,0,l),
(1228,756,l),
(1267,0,l),
(1573,0,l),
(1498,1400,l),
(1242,1400,l),
(812,574,l),
(614,1400,l),
(358,1400,l),
(-111,0,l)
);
}
);
width = 1743;
},
{
anchors = (
{
name = bottom;
pos = (667,0);
},
{
name = top;
pos = (864,1400);
}
);
hints = (
{
horizontal = 1;
origin = (0,12);
target = up;
type = BottomGhost;
},
{
horizontal = 1;
origin = (0,11);
target = down;
type = TopGhost;
}
);
layerId = "79A30733-E9D0-406C-A133-0F4AF5F1D98D";
shapes = (
{
closed = 1;
nodes = (
(53,0,l),
(413,1039,l),
(628,83,l),
(729,83,l),
(1214,1039,l),
(1280,0,l),
(1440,0,l),
(1353,1400,l),
(1235,1400,l),
(723,390,l),
(493,1400,l),
(375,1400,l),
(-105,0,l)
);
}
);
width = 1616;
},
{
anchors = (
{
name = bottom;
pos = (808,0);
},
{
name = top;
pos = (808,1400);
}
);
hints = (
{
horizontal = 1;
origin = (0,12);
target = up;
type = BottomGhost;
},
{
horizontal = 1;
origin = (0,11);
target = down;
type = TopGhost;
}
);
layerId = "6E59A8CF-B173-4F95-974A-A2EBEECFA9BB";
shapes = (
{
closed = 1;
nodes = (
(194,0,l),
(408,1039,l),
(757,83,l),
(858,83,l),
(1208,1039,l),
(1421,0,l),
(1581,0,l),
(1297,1400,l),
(1179,1400,l),
(808,390,l),
(437,1400,l),
(319,1400,l),
(36,0,l)
);
}
);
width = 1616.8;
}
);
metricLeft = "=H-60";
metricRight = "=H-60";
unicode = 77;
}
{
glyphname = N;
kernLeft = H;
kernRight = H;
layers = (
{
anchors = (
{
name = bottom;
pos = (658,0);
},
{
name = bottomright;
pos = (1226,0);
},
{
name = top;
pos = (658,1400);
}
);
hints = (
{
horizontal = 1;
origin = (0,9);
target = up;
type = BottomGhost;
},
{
horizontal = 1;
origin = (0,8);
target = down;
type = TopGhost;
},
{
origin = (0,9);
target = (0,0);
type = Stem;
},
{
origin = (0,6);
target = (0,3);
type = Stem;
}
);
layerId = "10BC12B3-5274-42E3-B5BC-F74F362F0DF4";
shapes = (
{
closed = 1;
nodes = (
(390,0,l),
(390,858,l),
(902,0,l),
(1226,0,l),
(1226,1400,l),
(926,1400,l),
(926,542,l),
(414,1400,l),
(90,1400,l),
(90,0,l)
);
}
);
width = 1316;
},
{
anchors = (
{
name = bottom;
pos = (589,0);
},
{
name = bottomright;
pos = (1078,0);
},
{
name = top;
pos = (589,1400);
}
);
hints = (
{
horizontal = 1;
origin = (0,9);
target = up;
type = BottomGhost;
},
{
horizontal = 1;
origin = (0,8);
target = down;
type = TopGhost;
},
{
origin = (0,9);
target = (0,0);
type = Stem;
},
{
origin = (0,6);
target = (0,3);
type = Stem;
}
);
layerId = "9AF1F7D9-E035-453E-B2A8-46DE370997D0";
shapes = (
{
closed = 1;
nodes = (
(160,0,l),
(160,1292,l),
(1014,0,l),
(1078,0,l),
(1078,1400,l),
(1018,1400,l),
(1018,108,l),
(166,1400,l),
(100,1400,l),
(100,0,l)
);
}
);
width = 1178;
},
{
anchors = (
{
name = bottom;
pos = (448,0);
},
{
name = bottomright;
pos = (937,0);
},
{
name = top;
pos = (645,1400);
}
);
hints = (
{
horizontal = 1;
origin = (0,9);
target = up;
type = BottomGhost;
},
{
horizontal = 1;
origin = (0,8);
target = down;
type = TopGhost;
},
{
origin = (0,9);
target = (0,0);
type = Stem;
},
{
origin = (0,6);
target = (0,3);
type = Stem;
}
);
layerId = m003;
shapes = (
{
closed = 1;
nodes = (
(19,0,l),
(201,1292,l),
(873,0,l),
(937,0,l),
(1134,1400,l),
(1074,1400,l),
(893,108,l),
(222,1400,l),
(156,1400,l),
(-41,0,l)
);
}
);
width = 1178;
},
{
anchors = (
{
name = bottom;
pos = (517,0);
},
{
name = bottomright;
pos = (1085,0);
},
{
name = top;
pos = (714,1400);
}
);
hints = (
{
horizontal = 1;
origin = (0,9);
target = up;
type = BottomGhost;
},
{
horizontal = 1;
origin = (0,8);
target = down;
type = TopGhost;
},
{
origin = (0,9);
target = (0,0);
type = Stem;
},
{
origin = (0,6);
target = (0,3);
type = Stem;
}
);
layerId = m004;
shapes = (
{
closed = 1;
nodes = (
(249,0,l),
(370,858,l),
(761,0,l),
(1085,0,l),
(1282,1400,l),
(982,1400,l),
(862,542,l),
(470,1400,l),
(146,1400,l),
(-51,0,l)
);
}
);
width = 1316;
},
{
anchors = (
{
name = bottom;
pos = (476,0);
},
{
name = bottomright;
pos = (996,0);
},
{
name = top;
pos = (673,1400);
}
);
hints = (
{
horizontal = 1;
origin = (0,9);
target = up;
type = BottomGhost;
},
{
horizontal = 1;
origin = (0,8);
target = down;
type = TopGhost;
},
{
origin = (0,9);
target = (0,0);
type = Stem;
},
{
origin = (0,6);
target = (0,3);
type = Stem;
}
);
layerId = "79A30733-E9D0-406C-A133-0F4AF5F1D98D";
shapes = (
{
closed = 1;
nodes = (
(111,0,l),
(269,1118,l),
(828,0,l),
(996,0,l),
(1193,1400,l),
(1037,1400,l),
(881,282,l),
(321,1400,l),
(152,1400,l),
(-45,0,l)
);
}
);
width = 1233;
},
{
anchors = (
{
name = bottom;
pos = (617,0);
},
{
name = bottomright;
pos = (1137,0);
},
{
name = top;
pos = (617,1400);
}
);
hints = (
{
horizontal = 1;
origin = (0,9);
target = up;
type = BottomGhost;
},
{
horizontal = 1;
origin = (0,8);
target = down;
type = TopGhost;
},
{
origin = (0,9);
target = (0,0);
type = Stem;
},
{
origin = (0,6);
target = (0,3);
type = Stem;
}
);
layerId = "6E59A8CF-B173-4F95-974A-A2EBEECFA9BB";
shapes = (
{
closed = 1;
nodes = (
(252,0,l),
(252,1118,l),
(969,0,l),
(1137,0,l),
(1137,1400,l),
(981,1400,l),
(981,282,l),
(265,1400,l),
(96,1400,l),
(96,0,l)
);
}
);
width = 1233.2;
}
);
metricLeft = H;
metricRight = H;
unicode = 78;
}
{
glyphname = O;
kernLeft = O;
kernRight = O;
layers = (
{
anchors = (
{
name = bottom;
pos = (720,0);
},
{
name = center;
pos = (720,700);
},
{
name = ogonek;
pos = (1336,10);
},
{
name = top;
pos = (720,1400);
},
{
name = topleft;
pos = (-30,1400);
},
{
name = topright;
pos = (1470,1400);
}
);
hints = (
{
horizontal = 1;
origin = (0,11);
target = (1,11);
type = Stem;
},
{
horizontal = 1;
origin = (0,5);
target = (1,5);
type = Stem;
},
{
origin = (0,8);
target = (1,2);
type = Stem;
},
{
origin = (1,8);
target = (0,2);
type = Stem;
}
);
layerId = "10BC12B3-5274-42E3-B5BC-F74F362F0DF4";
shapes = (
{
closed = 1;
nodes = (
(1100,-26,o),
(1410,300,o),
(1410,700,cs),
(1410,1100,o),
(1100,1426,o),
(720,1426,cs),
(340,1426,o),
(30,1100,o),
(30,700,cs),
(30,300,o),
(340,-26,o),
(720,-26,cs)
);
},
{
closed = 1;
nodes = (
(506,274,o),
(330,466,o),
(330,700,cs),
(330,934,o),
(506,1126,o),
(720,1126,cs),
(934,1126,o),
(1110,934,o),
(1110,700,cs),
(1110,466,o),
(934,274,o),
(720,274,cs)
);
}
);
width = 1440;
},
{
anchors = (
{
name = bottom;
pos = (740,0);
},
{
name = center;
pos = (740,700);
},
{
name = ogonek;
pos = (1356,10);
},
{
name = top;
pos = (740,1400);
},
{
name = topleft;
pos = (-10,1400);
},
{
name = topright;
pos = (1490,1400);
}
);
hints = (
{
horizontal = 1;
origin = (0,11);
target = (1,11);
type = Stem;
},
{
horizontal = 1;
origin = (0,5);
target = (1,5);
type = Stem;
},
{
origin = (0,8);
target = (1,2);
type = Stem;
},
{
origin = (1,8);
target = (0,2);
type = Stem;
}
);
layerId = "9AF1F7D9-E035-453E-B2A8-46DE370997D0";
shapes = (
{
closed = 1;
nodes = (
(1120,-26,o),
(1430,300,o),
(1430,700,cs),
(1430,1100,o),
(1120,1426,o),
(740,1426,cs),
(360,1426,o),
(50,1100,o),
(50,700,cs),
(50,300,o),
(360,-26,o),
(740,-26,cs)
);
},
{
closed = 1;
nodes = (
(392,34,o),
(110,334,o),
(110,700,cs),
(110,1060,o),
(388,1366,o),
(740,1366,cs),
(1088,1366,o),
(1370,1064,o),
(1370,700,cs),
(1370,340,o),
(1092,34,o),
(740,34,cs)
);
}
);
width = 1480;
},
{
anchors = (
{
name = bottom;
pos = (599,0);
},
{
name = center;
pos = (698,700);
},
{
name = ogonek;
pos = (1217,10);
},
{
name = top;
pos = (796,1400);
},
{
name = topleft;
pos = (46,1400);
},
{
name = topright;
pos = (1546,1400);
}
);
hints = (
{
horizontal = 1;
origin = (0,11);
target = (1,11);
type = Stem;
},
{
horizontal = 1;
origin = (0,5);
target = (1,5);
type = Stem;
},
{
origin = (0,8);
target = (1,2);
type = Stem;
},
{
origin = (1,8);
target = (0,2);
type = Stem;
}
);
layerId = m003;
shapes = (
{
closed = 1;
nodes = (
(976,-26,o),
(1332,300,o),
(1388,700,cs),
(1444,1100,o),
(1180,1426,o),
(800,1426,cs),
(420,1426,o),
(64,1100,o),
(8,700,cs),
(-48,300,o),
(216,-26,o),
(596,-26,cs)
);
},
{
closed = 1;
nodes = (
(256,34,o),
(16,334,o),
(68,700,cs),
(118,1060,o),
(439,1366,o),
(791,1366,cs),
(1139,1366,o),
(1379,1064,o),
(1328,700,cs),
(1277,340,o),
(956,34,o),
(604,34,cs)
);
}
);
width = 1480;
},
{
anchors = (
{
name = bottom;
pos = (579,0);
},
{
name = center;
pos = (678,700);
},
{
name = ogonek;
pos = (1197,10);
},
{
name = top;
pos = (776,1400);
},
{
name = topleft;
pos = (26,1400);
},
{
name = topright;
pos = (1526,1400);
}
);
hints = (
{
horizontal = 1;
origin = (0,11);
target = (1,11);
type = Stem;
},
{
horizontal = 1;
origin = (0,5);
target = (1,5);
type = Stem;
},
{
origin = (0,8);
target = (1,2);
type = Stem;
},
{
origin = (1,8);
target = (0,2);
type = Stem;
}
);
layerId = m004;
shapes = (
{
closed = 1;
nodes = (
(956,-26,o),
(1312,300,o),
(1368,700,cs),
(1424,1100,o),
(1160,1426,o),
(780,1426,cs),
(400,1426,o),
(44,1100,o),
(-12,700,cs),
(-68,300,o),
(196,-26,o),
(576,-26,cs)
);
},
{
closed = 1;
nodes = (
(404,274,o),
(255,466,o),
(288,700,cs),
(321,934,o),
(524,1126,o),
(738,1126,cs),
(952,1126,o),
(1101,934,o),
(1068,700,cs),
(1035,466,o),
(832,274,o),
(618,274,cs)
);
}
);
width = 1440;
},
{
anchors = (
{
name = bottom;
pos = (591,0);
},
{
name = center;
pos = (690,700);
},
{
name = ogonek;
pos = (1209,10);
},
{
name = top;
pos = (788,1400);
},
{
name = topleft;
pos = (38,1400);
},
{
name = topright;
pos = (1538,1400);
}
);
hints = (
{
horizontal = 1;
origin = (0,11);
target = (1,11);
type = Stem;
},
{
horizontal = 1;
origin = (0,5);
target = (1,5);
type = Stem;
},
{
origin = (0,8);
target = (1,2);
type = Stem;
},
{
origin = (1,8);
target = (0,2);
type = Stem;
}
);
layerId = "79A30733-E9D0-406C-A133-0F4AF5F1D98D";
shapes = (
{
closed = 1;
nodes = (
(968,-26,o),
(1324,300,o),
(1380,700,cs),
(1436,1100,o),
(1172,1426,o),
(792,1426,cs),
(412,1426,o),
(56,1100,o),
(0,700,cs),
(-56,300,o),
(208,-26,o),
(588,-26,cs)
);
},
{
closed = 1;
nodes = (
(315,130,o),
(112,387,o),
(156,700,cs),
(199,1010,o),
(473,1270,o),
(770,1270,cs),
(1064,1270,o),
(1268,1012,o),
(1224,700,cs),
(1180,390,o),
(906,130,o),
(610,130,cs)
);
}
);
width = 1464;
},
{
anchors = (
{
name = bottom;
pos = (732,0);
},
{
name = center;
pos = (732,700);
},
{
name = ogonek;
pos = (1348,10);
},
{
name = top;
pos = (732,1400);
},
{
name = topleft;
pos = (-18,1400);
},
{
name = topright;
pos = (1482,1400);
}
);
hints = (
{
horizontal = 1;
origin = (0,11);
target = (1,11);
type = Stem;
},
{
horizontal = 1;
origin = (0,5);
target = (1,5);
type = Stem;
},
{
origin = (0,8);
target = (1,2);
type = Stem;
},
{
origin = (1,8);
target = (0,2);
type = Stem;
}
);
layerId = "6E59A8CF-B173-4F95-974A-A2EBEECFA9BB";
shapes = (
{
closed = 1;
nodes = (
(1112,-26,o),
(1422,300,o),
(1422,700,cs),
(1422,1100,o),
(1112,1426,o),
(732,1426,cs),
(352,1426,o),
(42,1100,o),
(42,700,cs),
(42,300,o),
(352,-26,o),
(732,-26,cs)
);
},
{
closed = 1;
nodes = (
(438,130,o),
(198,387,o),
(198,700,cs),
(198,1010,o),
(435,1270,o),
(732,1270,cs),
(1026,1270,o),
(1266,1012,o),
(1266,700,cs),
(1266,390,o),
(1029,130,o),
(732,130,cs)
);
}
);
width = 1464;
}
);
unicode = 79;
}
{
glyphname = P;
kernLeft = H;
kernRight = P;
layers = (
{
anchors = (
{
name = bottom;
pos = (540,0);
},
{
name = top;
pos = (540,1400);
}
);
hints = (
{
horizontal = 1;
origin = (0,10);
target = up;
type = BottomGhost;
},
{
horizontal = 1;
origin = (0,1);
target = (1,8);
type = Stem;
},
{
horizontal = 1;
origin = (0,9);
target = (1,0);
type = Stem;
},
{
origin = (0,10);
target = (0,0);
type = Stem;
},
{
origin = (1,4);
target = (0,5);
type = Stem;
}
);
layerId = "10BC12B3-5274-42E3-B5BC-F74F362F0DF4";
shapes = (
{
closed = 1;
nodes = (
(390,0,l),
(390,544,l),
(618,544,ls),
(840,544,o),
(1030,736,o),
(1030,972,cs),
(1030,1204,o),
(848,1400,o),
(618,1400,cs),
(90,1400,l),
(90,0,l)
);
},
{
closed = 1;
nodes = (
(390,1144,l),
(584,1144,ls),
(664,1144,o),
(730,1076,o),
(730,994,cs),
(730,912,o),
(664,844,o),
(584,844,cs),
(390,844,l)
);
}
);
width = 1050;
},
{
anchors = (
{
name = bottom;
pos = (480,0);
},
{
name = top;
pos = (480,1400);
}
);
hints = (
{
horizontal = 1;
origin = (0,10);
target = up;
type = BottomGhost;
},
{
horizontal = 1;
origin = (0,1);
target = (1,8);
type = Stem;
},
{
horizontal = 1;
origin = (0,9);
target = (1,0);
type = Stem;
},
{
origin = (0,10);
target = (0,0);
type = Stem;
},
{
origin = (1,4);
target = (0,5);
type = Stem;
}
);
layerId = "9AF1F7D9-E035-453E-B2A8-46DE370997D0";
shapes = (
{
closed = 1;
nodes = (
(160,0,l),
(160,600,l),
(508,600,ls),
(722,600,o),
(900,770,o),
(900,1000,cs),
(900,1228,o),
(728,1400,o),
(508,1400,cs),
(100,1400,l),
(100,0,l)
);
},
{
closed = 1;
nodes = (
(160,1340,l),
(508,1340,ls),
(690,1340,o),
(840,1196,o),
(840,1000,cs),
(840,804,o),
(690,660,o),
(508,660,cs),
(160,660,l)
);
}
);
width = 920;
},
{
anchors = (
{
name = bottom;
pos = (339,0);
},
{
name = top;
pos = (536,1400);
}
);
hints = (
{
horizontal = 1;
origin = (0,10);
target = up;
type = BottomGhost;
},
{
horizontal = 1;
origin = (0,1);
target = (1,8);
type = Stem;
},
{
horizontal = 1;
origin = (0,9);
target = (1,0);
type = Stem;
},
{
origin = (0,10);
target = (0,0);
type = Stem;
},
{
origin = (1,4);
target = (0,5);
type = Stem;
}
);
layerId = m003;
shapes = (
{
closed = 1;
nodes = (
(19,0,l),
(104,600,l),
(452,600,ls),
(666,600,o),
(868,770,o),
(900,1000,cs),
(932,1228,o),
(784,1400,o),
(564,1400,cs),
(156,1400,l),
(-41,0,l)
);
},
{
closed = 1;
nodes = (
(208,1340,l),
(556,1340,ls),
(738,1340,o),
(868,1196,o),
(840,1000,cs),
(812,804,o),
(642,660,o),
(460,660,cs),
(112,660,l)
);
}
);
width = 920;
},
{
anchors = (
{
name = bottom;
pos = (399,0);
},
{
name = top;
pos = (596,1400);
}
);
hints = (
{
horizontal = 1;
origin = (0,10);
target = up;
type = BottomGhost;
},
{
horizontal = 1;
origin = (0,1);
target = (1,8);
type = Stem;
},
{
horizontal = 1;
origin = (0,9);
target = (1,0);
type = Stem;
},
{
origin = (0,10);
target = (0,0);
type = Stem;
},
{
origin = (1,4);
target = (0,5);
type = Stem;
}
);
layerId = m004;
shapes = (
{
closed = 1;
nodes = (
(249,0,l),
(326,544,l),
(554,544,ls),
(776,544,o),
(993,736,o),
(1026,972,cs),
(1059,1204,o),
(904,1400,o),
(674,1400,cs),
(146,1400,l),
(-51,0,l)
);
},
{
closed = 1;
nodes = (
(410,1144,l),
(604,1144,ls),
(684,1144,o),
(741,1076,o),
(729,994,cs),
(718,912,o),
(642,844,o),
(562,844,cs),
(368,844,l)
);
}
);
width = 1050;
},
{
anchors = (
{
name = bottom;
pos = (363,0);
},
{
name = top;
pos = (560,1400);
}
);
hints = (
{
horizontal = 1;
origin = (0,10);
target = up;
type = BottomGhost;
},
{
horizontal = 1;
origin = (0,1);
target = (1,8);
type = Stem;
},
{
horizontal = 1;
origin = (0,9);
target = (1,0);
type = Stem;
},
{
origin = (0,10);
target = (0,0);
type = Stem;
},
{
origin = (1,4);
target = (0,5);
type = Stem;
}
);
layerId = "79A30733-E9D0-406C-A133-0F4AF5F1D98D";
shapes = (
{
closed = 1;
nodes = (
(111,0,l),
(193,578,l),
(493,578,ls),
(710,578,o),
(918,756,o),
(950,989,cs),
(983,1218,o),
(832,1400,o),
(608,1400,cs),
(152,1400,l),
(-45,0,l)
);
},
{
closed = 1;
nodes = (
(289,1262,l),
(575,1262,ls),
(716,1262,o),
(817,1148,o),
(796,998,cs),
(774,847,o),
(642,734,o),
(501,734,cs),
(214,734,l)
);
}
);
width = 972;
},
{
anchors = (
{
name = bottom;
pos = (504,0);
},
{
name = top;
pos = (504,1400);
}
);
hints = (
{
horizontal = 1;
origin = (0,10);
target = up;
type = BottomGhost;
},
{
horizontal = 1;
origin = (0,1);
target = (1,8);
type = Stem;
},
{
horizontal = 1;
origin = (0,9);
target = (1,0);
type = Stem;
},
{
origin = (0,10);
target = (0,0);
type = Stem;
},
{
origin = (1,4);
target = (0,5);
type = Stem;
}
);
layerId = "6E59A8CF-B173-4F95-974A-A2EBEECFA9BB";
shapes = (
{
closed = 1;
nodes = (
(252,0,l),
(252,578,l),
(552,578,ls),
(769,578,o),
(952,756,o),
(952,989,cs),
(952,1218,o),
(776,1400,o),
(552,1400,cs),
(96,1400,l),
(96,0,l)
);
},
{
closed = 1;
nodes = (
(252,1262,l),
(538,1262,ls),
(680,1262,o),
(796,1148,o),
(796,998,cs),
(796,847,o),
(680,734,o),
(538,734,cs),
(252,734,l)
);
}
);
width = 972;
}
);
metricLeft = H;
unicode = 80;
}
{
glyphname = Q;
kernLeft = O;
kernRight = O;
layers = (
{
anchors = (
{
name = bottom;
pos = (742,0);
},
{
name = top;
pos = (742,1400);
}
);
hints = (
{
horizontal = 1;
origin = (0,13);
target = (1,17);
type = Stem;
},
{
horizontal = 1;
origin = (1,5);
target = (0,7);
type = Stem;
},
{
origin = (0,10);
target = (1,2);
type = Stem;
},
{
origin = (1,8);
target = (0,4);
type = Stem;
}
);
layerId = "10BC12B3-5274-42E3-B5BC-F74F362F0DF4";
shapes = (
{
closed = 1;
nodes = (
(1454,160,l),
(1300,314,l),
(1368,428,o),
(1410,562,o),
(1410,708,cs),
(1410,1108,o),
(1100,1434,o),
(720,1434,cs),
(340,1434,o),
(30,1108,o),
(30,708,cs),
(30,306,o),
(340,-18,o),
(720,-18,cs),
(858,-18,o),
(986,24,o),
(1092,96,c),
(1242,-52,l)
);
},
{
closed = 1;
nodes = (
(506,282,o),
(330,472,o),
(330,708,cs),
(330,942,o),
(506,1134,o),
(720,1134,cs),
(934,1134,o),
(1110,942,o),
(1110,708,cs),
(1110,648,o),
(1098,590,o),
(1076,538,c),
(1002,612,l),
(790,400,l),
(874,316,l),
(826,294,o),
(774,282,o),
(720,282,cs)
);
}
);
width = 1484;
},
{
anchors = (
{
name = bottom;
pos = (739,0);
},
{
name = top;
pos = (739,1400);
}
);
hints = (
{
horizontal = 1;
origin = (0,17);
target = up;
type = BottomGhost;
},
{
horizontal = 1;
origin = (0,7);
target = (1,5);
type = Stem;
},
{
horizontal = 1;
origin = (0,13);
target = (1,17);
type = Stem;
},
{
origin = (0,10);
target = (1,2);
type = Stem;
},
{
origin = (1,8);
target = (0,4);
type = Stem;
}
);
layerId = "9AF1F7D9-E035-453E-B2A8-46DE370997D0";
shapes = (
{
closed = 1;
nodes = (
(1424,32,l),
(1246,208,l),
(1360,338,o),
(1428,510,o),
(1428,700,cs),
(1428,1100,o),
(1120,1426,o),
(740,1426,cs),
(358,1426,o),
(50,1100,o),
(50,700,cs),
(50,300,o),
(358,-26,o),
(740,-26,cs),
(918,-26,o),
(1082,46,o),
(1206,166,c),
(1382,-10,l)
);
},
{
closed = 1;
nodes = (
(394,34,o),
(110,334,o),
(110,700,cs),
(110,1058,o),
(388,1366,o),
(740,1366,cs),
(1084,1366,o),
(1368,1066,o),
(1368,700,cs),
(1368,536,o),
(1310,376,o),
(1204,252,c),
(936,520,l),
(894,476,l),
(1162,208,l),
(1052,98,o),
(894,34,o),
(740,34,cs)
);
}
);
width = 1478;
},
{
anchors = (
{
name = bottom;
pos = (598,0);
},
{
name = top;
pos = (795,1400);
}
);
hints = (
{
horizontal = 1;
origin = (0,17);
target = up;
type = BottomGhost;
},
{
horizontal = 1;
origin = (0,7);
target = (1,5);
type = Stem;
},
{
horizontal = 1;
origin = (0,13);
target = (1,17);
type = Stem;
},
{
origin = (0,10);
target = (1,2);
type = Stem;
},
{
origin = (1,8);
target = (0,4);
type = Stem;
}
);
layerId = m003;
shapes = (
{
closed = 1;
nodes = (
(1288,32,l),
(1135,208,l),
(1267,338,o),
(1359,510,o),
(1386,700,cs),
(1442,1100,o),
(1180,1426,o),
(800,1426,cs),
(418,1426,o),
(64,1100,o),
(8,700,cs),
(-48,300,o),
(214,-26,o),
(596,-26,cs),
(774,-26,o),
(948,46,o),
(1089,166,c),
(1240,-10,l)
);
},
{
closed = 1;
nodes = (
(258,34,o),
(16,334,o),
(68,700,cs),
(118,1058,o),
(439,1366,o),
(791,1366,cs),
(1135,1366,o),
(1377,1066,o),
(1326,700,cs),
(1303,536,o),
(1222,376,o),
(1099,252,c),
(869,520,l),
(820,476,l),
(1051,208,l),
(925,98,o),
(758,34,o),
(604,34,cs)
);
}
);
width = 1478;
},
{
anchors = (
{
name = bottom;
pos = (601,0);
},
{
name = top;
pos = (798,1400);
}
);
hints = (
{
horizontal = 1;
origin = (0,13);
target = (1,17);
type = Stem;
},
{
horizontal = 1;
origin = (1,5);
target = (0,7);
type = Stem;
},
{
origin = (0,10);
target = (1,2);
type = Stem;
},
{
origin = (1,8);
target = (0,4);
type = Stem;
}
);
layerId = m004;
shapes = (
{
closed = 1;
nodes = (
(1336,160,l),
(1204,314,l),
(1288,428,o),
(1348,562,o),
(1369,708,cs),
(1425,1108,o),
(1161,1434,o),
(781,1434,cs),
(401,1434,o),
(45,1108,o),
(-11,708,cs),
(-68,306,o),
(197,-18,o),
(577,-18,cs),
(715,-18,o),
(849,24,o),
(965,96,c),
(1094,-52,l)
);
},
{
closed = 1;
nodes = (
(405,282,o),
(256,472,o),
(289,708,cs),
(322,942,o),
(525,1134,o),
(739,1134,cs),
(953,1134,o),
(1102,942,o),
(1069,708,cs),
(1061,648,o),
(1040,590,o),
(1011,538,c),
(947,612,l),
(706,400,l),
(778,316,l),
(727,294,o),
(673,282,o),
(619,282,cs)
);
}
);
width = 1484;
},
{
anchors = (
{
name = bottom;
pos = (600,0);
},
{
name = top;
pos = (797,1400);
}
);
hints = (
{
horizontal = 1;
origin = (0,17);
target = up;
type = BottomGhost;
},
{
horizontal = 1;
origin = (0,7);
target = (1,5);
type = Stem;
},
{
horizontal = 1;
origin = (0,13);
target = (1,17);
type = Stem;
},
{
origin = (0,10);
target = (1,2);
type = Stem;
},
{
origin = (1,8);
target = (0,4);
type = Stem;
}
);
layerId = "79A30733-E9D0-406C-A133-0F4AF5F1D98D";
shapes = (
{
closed = 1;
nodes = (
(1308,83,l),
(1164,250,l),
(1276,374,o),
(1356,531,o),
(1380,703,cs),
(1436,1103,o),
(1173,1429,o),
(793,1429,cs),
(412,1429,o),
(57,1103,o),
(1,703,cs),
(-55,302,o),
(208,-23,o),
(589,-23,cs),
(751,-23,o),
(909,37,o),
(1040,138,c),
(1183,-27,l)
);
},
{
closed = 1;
nodes = (
(318,133,o),
(113,389,o),
(157,703,cs),
(201,1012,o),
(474,1273,o),
(771,1273,cs),
(1063,1273,o),
(1268,1016,o),
(1224,703,cs),
(1207,581,o),
(1150,462,o),
(1065,366,c),
(901,557,l),
(775,446,l),
(943,251,l),
(847,176,o),
(725,133,o),
(611,133,cs)
);
}
);
width = 1479;
},
{
anchors = (
{
name = bottom;
pos = (740,0);
},
{
name = top;
pos = (740,1400);
}
);
hints = (
{
horizontal = 1;
origin = (0,17);
target = up;
type = BottomGhost;
},
{
horizontal = 1;
origin = (0,7);
target = (1,5);
type = Stem;
},
{
horizontal = 1;
origin = (0,13);
target = (1,17);
type = Stem;
},
{
origin = (0,10);
target = (1,2);
type = Stem;
},
{
origin = (1,8);
target = (0,4);
type = Stem;
}
);
layerId = "6E59A8CF-B173-4F95-974A-A2EBEECFA9BB";
shapes = (
{
closed = 1;
nodes = (
(1436,83,l),
(1268,250,l),
(1363,374,o),
(1421,531,o),
(1421,703,cs),
(1421,1103,o),
(1112,1429,o),
(732,1429,cs),
(351,1429,o),
(42,1103,o),
(42,703,cs),
(42,302,o),
(351,-23,o),
(732,-23,cs),
(894,-23,o),
(1044,37,o),
(1160,138,c),
(1326,-27,l)
);
},
{
closed = 1;
nodes = (
(439,133,o),
(198,389,o),
(198,703,cs),
(198,1012,o),
(435,1273,o),
(732,1273,cs),
(1024,1273,o),
(1265,1016,o),
(1265,703,cs),
(1265,581,o),
(1225,462,o),
(1153,366,c),
(962,557,l),
(852,446,l),
(1047,251,l),
(962,176,o),
(846,133,o),
(732,133,cs)
);
}
);
width = 1478;
}
);
metricLeft = O;
metricRight = O;
unicode = 81;
}
